<?xml version="1.0" encoding="utf-8"?>
<!-- Generator: Adobe Illustrator 18.1.0, SVG Export Plug-In . SVG Version: 6.00 Build 0)  -->
<!DOCTYPE svg PUBLIC "-//W3C//DTD SVG 1.1//EN" "http://www.w3.org/Graphics/SVG/1.1/DTD/svg11.dtd">
<svg version="1.1" id="Layer_1" xmlns="http://www.w3.org/2000/svg" xmlns:xlink="http://www.w3.org/1999/xlink" x="0px" y="0px"
	 viewBox="0 0 140 140" enable-background="new 0 0 140 140" xml:space="preserve">
<g>
	<path fill="#3D5B99" d="M140,132c0,4.4-3.6,8-8,8H8c-4.4,0-8-3.6-8-8V8c0-4.4,3.6-8,8-8h124c4.4,0,8,3.6,8,8V132z"/>
	<rect x="10" y="110" fill="#6E85B4" width="120" height="20"/>
	<path fill="#FFFFFF" d="M80,130V78.5H66.4V60H80c0,0,0-7.6,0-15.8c0-12.4,8-23.9,26.6-23.9c7.5,0,13,0.7,13,0.7l-0.4,17.3
		c0,0-5.7-0.1-11.8-0.1c-6.7,0-7.8,3.1-7.8,8.2c0,4,0-8.6,0,13.5h20.1l-0.9,18.5H99.6V130H80z"/>
</g>
</svg>
