<?xml version="1.0" encoding="utf-8"?>
<!-- Generator: Adobe Illustrator 15.0.0, SVG Export Plug-In . SVG Version: 6.00 Build 0)  -->
<!DOCTYPE svg PUBLIC "-//W3C//DTD SVG 1.1//EN" "http://www.w3.org/Graphics/SVG/1.1/DTD/svg11.dtd">
<svg version="1.1" id="Layer_1" xmlns="http://www.w3.org/2000/svg" xmlns:xlink="http://www.w3.org/1999/xlink" x="0px" y="0px"
	 width="640.673px" height="200.402px" viewBox="0 0 640.673 200.402" enable-background="new 0 0 640.673 200.402"
	 xml:space="preserve">
<g>
	<path fill-rule="evenodd" clip-rule="evenodd" fill="#FFFFFF" d="M2.349,0.75h29.88l45.967,48.261L77.048,0.75h24.144v67.183
		H73.763l-48.261-50.82l1.069,50.82H2.349V0.75L2.349,0.75z M152.477,58.012h27.298V47.827h-25.681
		c-5.085,0-8.604,0.406-10.56,1.232c-1.931,0.827-2.896,2.262-2.896,4.29c0,1.748,0.783,2.948,2.321,3.634
		C144.525,57.669,147.704,58.012,152.477,58.012L152.477,58.012z M123.535,18.626h44.61c11.263,0,19.738,1.544,25.448,4.633
		c5.709,3.104,8.551,7.689,8.551,13.773v30.9h-58.532c-8.188,0-14.497-1.233-18.904-3.696c-4.406-2.48-6.596-5.975-6.596-10.514
		c0-5.615,2.529-9.625,7.614-12.073c5.057-2.434,13.479-3.65,25.237-3.65h28.653v-1.232c0-2.933-1.434-4.992-4.301-6.177
		c-2.894-1.186-8.03-1.779-15.41-1.779h-36.371V18.626L123.535,18.626z M213.018,18.626h15.358V0.75h21.771v17.876h22.995v9.827
		h-22.995v19.919c0,3.65,1.041,6.192,3.128,7.612c2.086,1.419,5.734,2.121,10.923,2.121h8.944v9.827h-19.867
		c-8.03,0-14.211-1.326-18.486-3.993s-6.413-6.49-6.413-11.449V28.453h-15.358V18.626L213.018,18.626z M308.782,13.011h-22.839
		V0.765h22.839V13.011L308.782,13.011z M308.782,67.933h-22.839V18.626h22.839V67.933L308.782,67.933z M344.894,43.303
		c0,4.695,1.824,8.346,5.5,10.966c3.65,2.62,8.787,3.931,15.357,3.931c6.494,0,11.627-1.311,15.33-3.931
		c3.729-2.621,5.58-6.271,5.58-10.966s-1.852-8.345-5.527-10.951c-3.701-2.604-8.838-3.899-15.383-3.899
		c-6.518,0-11.629,1.31-15.33,3.931C346.743,35.004,344.894,38.639,344.894,43.303L344.894,43.303z M409.501,43.303
		c0,7.737-3.936,13.915-11.811,18.532c-7.848,4.616-18.461,6.925-31.811,6.925c-13.32,0-23.959-2.31-31.912-6.942
		c-7.953-4.633-11.914-10.81-11.914-18.515c0-7.737,3.961-13.93,11.914-18.578c7.953-4.648,18.592-6.973,31.912-6.973
		c13.246,0,23.832,2.325,31.758,6.973C405.54,29.373,409.501,35.565,409.501,43.303L409.501,43.303z M422.823,18.626h40.961
		c12.357,0,21.197,1.387,26.49,4.18c5.293,2.792,7.953,7.409,7.953,13.867v31.26h-21.771V38.265c0-3.682-0.965-6.068-2.869-7.177
		c-1.902-1.091-5.736-1.637-11.498-1.637h-17.494v38.481h-21.771V18.626L422.823,18.626z M547.321,58.012h27.299V47.827h-25.682
		c-5.086,0-8.605,0.406-10.559,1.232c-1.932,0.827-2.896,2.262-2.896,4.29c0,1.748,0.783,2.948,2.32,3.634
		C539.37,57.669,542.55,58.012,547.321,58.012L547.321,58.012z M518.38,18.626h44.609c11.264,0,19.738,1.544,25.449,4.633
		c5.709,3.104,8.551,7.689,8.551,13.773v30.9h-58.533c-8.188,0-14.496-1.233-18.902-3.696c-4.406-2.48-6.598-5.975-6.598-10.514
		c0-5.615,2.531-9.625,7.615-12.073c5.057-2.434,13.479-3.65,25.236-3.65h28.654v-1.232c0-2.933-1.434-4.992-4.301-6.177
		c-2.895-1.186-8.029-1.779-15.41-1.779H518.38V18.626L518.38,18.626z M638.421,67.933h-22.684V0.75h22.684V67.933L638.421,67.933z"
		/>
	<path fill="#FFFFFF" d="M365.88,69.51c-13.401,0-24.265-2.37-32.289-7.044c-8.153-4.749-12.287-11.196-12.287-19.163
		c0-7.993,4.134-14.461,12.285-19.225c8.033-4.695,18.897-7.076,32.291-7.076c13.319,0,24.132,2.381,32.138,7.076
		c8.117,4.775,12.233,11.243,12.233,19.225c0,7.987-4.099,14.439-12.182,19.179C390.141,67.145,379.311,69.51,365.88,69.51z
		 M365.88,18.502c-13.124,0-23.733,2.312-31.534,6.871c-7.767,4.539-11.542,10.404-11.542,17.93c0,7.395,3.883,13.406,11.542,17.867
		c7.792,4.539,18.401,6.84,31.534,6.84c13.159,0,23.734-2.295,31.431-6.822c7.592-4.451,11.44-10.468,11.44-17.885
		c0-7.413-3.867-13.445-11.493-17.931C389.485,20.813,378.929,18.502,365.88,18.502z M639.171,68.683h-24.184V0h24.184V68.683z
		 M616.487,67.183h21.184V1.5h-21.184V67.183z M597.739,68.683h-59.283c-8.285,0-14.768-1.276-19.269-3.792
		c-4.633-2.608-6.981-6.366-6.981-11.169c0-5.89,2.705-10.179,8.04-12.749c5.134-2.471,13.734-3.725,25.562-3.725h27.904v-0.482
		c0-2.623-1.255-4.417-3.837-5.484c-2.788-1.142-7.877-1.722-15.124-1.722H517.63V17.876h45.359c11.329,0,20.012,1.589,25.806,4.723
		c5.936,3.227,8.944,8.083,8.944,14.433V68.683z M545.808,38.75c-11.601,0-19.981,1.203-24.911,3.576
		c-4.839,2.33-7.19,6.058-7.19,11.397c0,4.281,2.033,7.506,6.216,9.861c4.271,2.388,10.508,3.6,18.534,3.6h57.783v-30.15
		c0-5.84-2.669-10.129-8.159-13.115c-5.571-3.013-14.014-4.542-25.091-4.542H519.13v8.685h35.621c7.548,0,12.682,0.6,15.694,1.835
		c3.163,1.307,4.767,3.618,4.767,6.871v1.982H545.808z M498.978,68.683h-23.271V38.265c0-3.368-0.84-5.564-2.496-6.529
		c-1.775-1.018-5.519-1.535-11.121-1.535h-16.744v38.481h-23.271V17.876h41.711c12.444,0,21.475,1.436,26.84,4.267
		c5.543,2.923,8.354,7.813,8.354,14.53V68.683z M477.206,67.183h20.271v-30.51c0-6.204-2.471-10.523-7.553-13.204
		c-5.148-2.716-13.943-4.093-26.141-4.093h-40.211v47.807h20.271V28.702h18.244c5.951,0,9.834,0.568,11.871,1.736
		c2.155,1.254,3.246,3.887,3.246,7.827V67.183z M309.532,68.683h-24.339V17.876h24.339V68.683z M286.693,67.183h21.339V19.376
		h-21.339V67.183z M273.893,68.683h-20.617c-8.162,0-14.516-1.382-18.884-4.107c-4.489-2.801-6.766-6.867-6.766-12.085V29.203
		h-15.358V17.876h15.358V0h23.271v17.876h22.995v11.327h-22.995v19.169c0,3.375,0.941,5.728,2.8,6.992
		c1.942,1.321,5.476,1.991,10.501,1.991h9.694V68.683z M213.768,27.703h15.358v24.788c0,4.732,1.982,8.269,6.06,10.813
		c4.127,2.574,10.213,3.879,18.09,3.879h19.117v-8.327h-8.194c-5.407,0-9.118-0.736-11.345-2.251
		c-2.294-1.561-3.456-4.331-3.456-8.232V27.703h22.995v-8.327h-22.995V1.5h-20.271v17.876h-15.358V27.703z M202.895,68.683h-59.282
		c-8.285,0-14.769-1.276-19.27-3.792c-4.633-2.608-6.98-6.365-6.98-11.169c0-5.891,2.704-10.18,8.039-12.749
		c5.135-2.471,13.734-3.725,25.563-3.725h27.903v-0.482c0-2.623-1.255-4.417-3.837-5.484c-2.787-1.142-7.876-1.722-15.124-1.722
		h-37.121V17.876h45.36c11.329,0,20.012,1.589,25.805,4.723c5.936,3.227,8.944,8.083,8.944,14.433V68.683z M150.964,38.75
		c-11.601,0-19.982,1.203-24.912,3.576c-4.838,2.33-7.189,6.058-7.189,11.397c0,4.281,2.032,7.507,6.214,9.861
		c4.272,2.388,10.51,3.6,18.536,3.6h57.782v-30.15c0-5.84-2.669-10.129-8.159-13.115c-5.57-3.013-14.013-4.542-25.09-4.542h-43.86
		v8.685h35.621c7.549,0,12.683,0.6,15.694,1.835c3.164,1.307,4.767,3.618,4.767,6.871v1.982H150.964z M101.941,68.683h-28.5
		l-0.223-0.233L26.292,19.035l1.046,49.648H1.599V0H32.55l44.85,47.088L76.279,0h25.662V68.683z M74.085,67.183h26.356V1.5H77.815
		l1.13,47.493l-1.293,0.535L31.907,1.5H3.099v65.683h22.707l-1.054-50.054l1.294-0.532L74.085,67.183z M365.751,58.95
		c-6.717,0-12.031-1.37-15.795-4.071c-3.856-2.75-5.813-6.645-5.813-11.576c0-4.889,1.966-8.768,5.842-11.529
		c3.814-2.701,9.118-4.07,15.766-4.07c6.688,0,12.009,1.358,15.814,4.036c3.88,2.75,5.846,6.641,5.846,11.564
		c0,4.933-1.984,8.829-5.898,11.58C377.698,57.581,372.396,58.95,365.751,58.95z M365.751,29.203c-6.33,0-11.343,1.276-14.896,3.793
		c-3.506,2.498-5.211,5.87-5.211,10.307c0,4.48,1.696,7.868,5.186,10.355c3.506,2.517,8.525,3.792,14.922,3.792
		c6.328,0,11.34-1.276,14.896-3.793c3.543-2.49,5.264-5.876,5.264-10.354c0-4.471-1.704-7.853-5.211-10.339
		C377.154,30.469,372.124,29.203,365.751,29.203z M575.37,58.762h-28.049c-4.931,0-8.143-0.357-9.819-1.093
		c-1.813-0.809-2.769-2.302-2.769-4.321c0-2.319,1.159-4.041,3.352-4.979c2.057-0.87,5.606-1.292,10.854-1.292h26.432V58.762z
		 M548.938,48.577c-4.973,0-8.427,0.395-10.267,1.173c-1.64,0.702-2.438,1.879-2.438,3.599c0,1.441,0.596,2.378,1.876,2.949
		c1.457,0.639,4.558,0.964,9.212,0.964h26.549v-8.685H548.938z M180.524,58.762h-28.048c-4.932,0-8.144-0.357-9.818-1.093
		c-1.813-0.809-2.77-2.302-2.77-4.321c0-2.319,1.159-4.041,3.351-4.979c2.059-0.87,5.608-1.292,10.854-1.292h26.431V58.762z
		 M154.094,48.577c-4.972,0-8.426,0.395-10.268,1.173c-1.639,0.702-2.438,1.879-2.438,3.599c0,1.441,0.597,2.378,1.877,2.949
		c1.456,0.639,4.557,0.964,9.211,0.964h26.548v-8.685H154.094z M309.532,13.761h-24.339V0.015h24.339V13.761z M286.693,12.261
		h21.339V1.515h-21.339V12.261z"/>
</g>
<g>
	<path fill-rule="evenodd" clip-rule="evenodd" fill="#FFFFFF" d="M4.366,114.551c4.235-11.559,9.79-20.154,16.665-25.784
		c6.887-5.631,15.245-8.455,25.083-8.455c9.92,0,16.212,2.854,18.881,8.548c2.684,5.693,1.837,14.491-2.52,26.377
		c-4.35,11.87-9.958,20.684-16.825,26.408c-6.854,5.724-15.243,8.594-25.163,8.594c-10.028,0-16.336-2.886-18.956-8.641
		C-1.073,135.843-0.133,126.827,4.366,114.551L4.366,114.551z M41.896,91.824c-5.272,0-9.918,1.887-13.909,5.662
		c-3.999,3.791-7.396,9.5-10.196,17.142c-3.041,8.299-4.002,14.367-2.873,18.22c1.115,3.854,4.389,5.787,9.823,5.787
		c5.354,0,10.025-1.918,14.021-5.74c3.981-3.821,7.434-9.718,10.349-17.672c2.922-7.971,3.791-13.868,2.61-17.69
		C50.521,93.726,47.249,91.824,41.896,91.824L41.896,91.824z M75.82,109.341h-8.167l3.602-9.827h8.167l1.864-5.086
		c1.84-5.021,3.896-8.407,6.158-10.17c2.258-1.748,5.676-2.621,10.269-2.621h10.749l-3.481,9.5h-5.367
		c-1.944,0-3.455,0.343-4.522,1.029c-1.08,0.687-1.905,1.825-2.488,3.417l-1.44,3.931h10.748l-3.602,9.827H87.561l-14.469,39.479
		h-11.74L75.82,109.341L75.82,109.341z M107.779,109.341h-8.166l3.601-9.827h8.167l1.864-5.086c1.84-5.021,3.896-8.407,6.159-10.17
		c2.257-1.748,5.675-2.621,10.269-2.621h10.748l-3.481,9.5h-5.367c-1.943,0-3.454,0.343-4.521,1.029
		c-1.081,0.687-1.905,1.825-2.489,3.417l-1.44,3.931h10.749l-3.602,9.827H119.52l-14.468,39.479h-11.74L107.779,109.341
		L107.779,109.341z M153.401,93.898h-11.903l4.488-12.246h11.903L153.401,93.898L153.401,93.898z M133.273,148.821H121.37
		l18.07-49.307h11.903L133.273,148.821L133.273,148.821z M170.34,138.261h12.066l-3.87,10.56h-15.409
		c-3.899,0-6.936-0.467-9.098-1.389c-2.172-0.936-3.811-2.433-4.898-4.508c-1.174-2.246-1.711-5.008-1.649-8.252
		s0.748-6.675,2.074-10.295c1.395-3.805,3.255-7.363,5.582-10.668c2.326-3.308,4.905-6.084,7.742-8.298
		c2.635-2.075,5.398-3.573,8.283-4.509c2.864-0.919,6.216-1.387,10.034-1.387h15.408l-3.904,10.654h-12.065
		c-5.327,0-9.397,1.06-12.187,3.181c-2.796,2.106-5.15,5.787-7.071,11.028c-1.104,3.01-1.61,5.506-1.508,7.487
		c0.089,1.981,0.783,3.573,2.063,4.789c0.639,0.594,1.469,0.998,2.505,1.248C165.479,138.136,167.445,138.261,170.34,138.261
		L170.34,138.261z M205.184,148.821c-7.106,0-11.727-2.075-13.856-6.239c-2.135-4.149-1.703-10.295,1.264-18.392
		c2.973-8.11,7.054-14.24,12.241-18.421c5.195-4.166,11.342-6.254,18.422-6.254h16.563l-3.767,10.279h-15.016
		c-4.104,0-7.122,0.67-9.039,2.012c-1.905,1.341-3.553,3.76-4.947,7.27h25.6l-3.767,10.278h-25.601
		c-1.188,3.541-1.361,5.944-0.52,7.238c0.831,1.295,3.391,1.95,7.67,1.95h15.083l-3.768,10.28H205.184L205.184,148.821z
		 M286.318,81.637h26.715c4.512,0,8.001,0.266,10.497,0.796c2.482,0.53,4.303,1.388,5.469,2.542c1.949,1.95,3.027,4.493,3.227,7.659
		c0.217,3.151-0.436,6.785-1.938,10.887c-1.477,4.024-3.295,7.471-5.469,10.357c-2.172,2.886-4.738,5.256-7.719,7.16
		c-2.481,1.544-5.075,2.651-7.802,3.307c-2.728,0.654-6.639,0.982-11.762,0.982h-14.933l-8.609,23.491h-12.298L286.318,81.637
		L286.318,81.637z M308.48,93.618h-14.255l-7.265,19.825h15.001c3.723,0,6.779-0.811,9.187-2.45c2.4-1.621,4.214-4.118,5.442-7.471
		c1.314-3.587,1.363-6.131,0.15-7.643C315.53,94.366,312.774,93.618,308.48,93.618L308.48,93.618z M339.108,99.514h19.064
		c4.455,0,7.244,0.92,8.363,2.76s0.834,5.069-0.848,9.656l-3.018,8.236h-10.83l2.326-6.348c0.703-1.918,0.879-3.213,0.521-3.868
		c-0.359-0.656-1.598-0.983-3.719-0.983h-3.98l-14.605,39.854h-11.346L339.108,99.514L339.108,99.514z M377.419,124.189
		c-1.721,4.696-2.107,8.347-1.152,10.967c0.943,2.62,3.141,3.932,6.564,3.932c3.383,0,6.539-1.312,9.43-3.932
		c2.904-2.62,5.205-6.271,6.928-10.967c1.719-4.694,2.092-8.344,1.131-10.949c-0.975-2.604-3.176-3.899-6.588-3.899
		c-3.396,0-6.541,1.31-9.43,3.93C381.425,115.892,379.128,119.526,377.419,124.189L377.419,124.189z M411.091,124.189
		c-2.836,7.738-7.15,13.915-12.947,18.533c-5.781,4.616-12.158,6.925-19.115,6.925c-6.943,0-11.643-2.309-14.088-6.942
		c-2.447-4.632-2.248-10.809,0.576-18.516c2.836-7.736,7.17-13.928,13.018-18.577s12.244-6.973,19.188-6.973
		c6.902,0,11.568,2.325,13.996,6.973C414.132,110.261,413.927,116.454,411.091,124.189L411.091,124.189z M441.358,138.261
		l10.297-28.093h-6.85c-4.594,0-8.258,1.107-10.994,3.306c-2.729,2.215-5.043,5.896-6.93,11.044
		c-1.828,4.991-2.242,8.533-1.236,10.606c1.002,2.09,3.646,3.136,7.955,3.136H441.358L441.358,138.261z M448.796,148.821h-21.783
		c-6.576,0-10.896-2.23-12.963-6.677c-2.053-4.445-1.631-10.637,1.283-18.593c1.195-3.26,2.674-6.255,4.447-8.984
		c1.775-2.73,3.854-5.209,6.244-7.472c2.857-2.714,5.795-4.648,8.846-5.818c3.037-1.169,6.693-1.762,10.975-1.762h9.715
		l6.551-17.877h11.307L448.796,148.821L448.796,148.821z M497.563,148.821h-21.375c-6.291,0-10.316-1.436-12.07-4.29
		c-1.748-2.87-1.467-7.457,0.842-13.758l11.457-31.258h11.305l-11.072,30.214c-1.205,3.29-1.504,5.475-0.918,6.582
		c0.592,1.092,2.377,1.639,5.352,1.639h9.117l14.086-38.435h11.346L497.563,148.821L497.563,148.821z M535.024,138.261h12.066
		l-3.871,10.56h-15.408c-3.9,0-6.936-0.467-9.098-1.389c-2.172-0.936-3.811-2.433-4.898-4.508c-1.174-2.246-1.711-5.008-1.65-8.252
		s0.748-6.675,2.074-10.295c1.395-3.805,3.256-7.363,5.582-10.668c2.326-3.308,4.906-6.084,7.742-8.298
		c2.635-2.075,5.398-3.573,8.283-4.509c2.865-0.919,6.215-1.387,10.035-1.387h15.408l-3.904,10.654h-12.066
		c-5.326,0-9.398,1.06-12.188,3.181c-2.795,2.106-5.148,5.787-7.07,11.028c-1.104,3.01-1.609,5.506-1.508,7.487
		c0.09,1.981,0.783,3.573,2.064,4.789c0.639,0.594,1.469,0.998,2.504,1.248C530.163,138.136,532.13,138.261,535.024,138.261
		L535.024,138.261z M564.524,99.514h8.004l6.551-17.877h11.348l-6.553,17.877h11.986l-3.602,9.827h-11.986l-7.299,19.919
		c-1.338,3.65-1.727,6.192-1.16,7.612c0.568,1.419,2.213,2.121,4.916,2.121h4.662l-3.602,9.828h-10.354
		c-4.186,0-6.922-1.326-8.172-3.993c-1.252-2.667-0.965-6.489,0.854-11.45l8.809-24.037h-8.004L564.524,99.514L564.524,99.514z
		 M587.563,138.541h23.914c2.121,0,3.807-0.375,5.051-1.138c1.246-0.765,2.18-1.981,2.799-3.665
		c0.611-1.669,0.572-2.902-0.125-3.667c-0.705-0.78-2.1-1.169-4.191-1.169h-9.797c-5.801,0-9.357-1.014-10.66-3.058
		c-1.291-2.042-0.977-5.677,0.932-10.887c1.943-5.304,4.609-9.204,7.984-11.7c3.387-2.496,7.662-3.743,12.84-3.743h24.363
		l-3.766,10.279h-20.031c-3.26,0-5.5,0.327-6.732,0.983c-1.219,0.655-2.137,1.825-2.748,3.494c-0.561,1.529-0.537,2.651,0.057,3.369
		c0.607,0.718,1.834,1.076,3.682,1.076h10.273c4.701,0,7.826,1.263,9.365,3.775c1.553,2.511,1.457,6.146-0.281,10.888
		c-1.676,4.571-4.137,8.283-7.375,11.153c-3.234,2.854-6.586,4.29-10.037,4.29h-29.283L587.563,138.541L587.563,138.541z"/>
	<path fill="#FFFFFF" d="M20.487,150.348c-10.015,0-16.425-2.929-19.054-8.704c-2.607-5.762-1.655-14.89,2.831-27.13
		c4.223-11.524,9.841-20.215,16.698-25.831c6.881-5.626,15.343-8.479,25.151-8.479c9.915,0,16.301,2.897,18.979,8.61
		c2.681,5.688,1.834,14.59-2.516,26.46c-4.342,11.849-10.014,20.749-16.857,26.454C38.871,147.448,30.382,150.348,20.487,150.348z
		 M46.114,80.42c-9.758,0-18.174,2.836-25.015,8.43c-6.827,5.591-12.423,14.25-16.632,25.738
		c-4.466,12.186-5.421,21.258-2.838,26.967c2.591,5.691,8.936,8.577,18.857,8.577c9.842,0,18.285-2.883,25.094-8.569
		c6.814-5.68,12.465-14.55,16.793-26.362c4.33-11.814,5.179-20.66,2.523-26.294C62.258,83.275,55.938,80.42,46.114,80.42z
		 M379.028,149.755c-6.96,0-11.732-2.355-14.184-7c-2.447-4.633-2.256-10.892,0.57-18.603c2.832-7.725,7.224-13.991,13.052-18.624
		c5.841-4.643,12.318-6.997,19.255-6.997c6.914,0,11.655,2.366,14.092,7.031c2.42,4.659,2.211,10.938-0.621,18.664
		c-2.83,7.721-7.197,13.973-12.981,18.58C392.437,147.417,385.982,149.755,379.028,149.755z M397.722,98.748
		c-6.886,0-13.319,2.338-19.12,6.95c-5.797,4.608-10.166,10.843-12.983,18.529c-2.804,7.651-3,13.852-0.582,18.428
		c2.411,4.568,7.118,6.884,13.992,6.884c6.904,0,13.313-2.321,19.048-6.901c5.753-4.583,10.098-10.802,12.913-18.485
		c2.811-7.666,3.023-13.887,0.633-18.49C409.226,101.074,404.549,98.748,397.722,98.748z M613.079,148.929h-29.438l0.053-0.146
		l3.794-10.351h23.989c2.101,0,3.781-0.377,4.994-1.122c1.223-0.751,2.149-1.966,2.754-3.61c0.597-1.63,0.563-2.827-0.104-3.557
		c-0.681-0.752-2.063-1.134-4.111-1.134h-9.797c-5.819,0-9.437-1.045-10.751-3.108c-1.303-2.062-0.993-5.756,0.921-10.982
		c1.94-5.294,4.639-9.248,8.021-11.75c3.39-2.498,7.731-3.764,12.904-3.764h24.518l-0.053,0.145l-3.792,10.35h-20.106
		c-3.224,0-5.472,0.327-6.682,0.97c-1.188,0.639-2.097,1.795-2.697,3.436c-0.542,1.479-0.529,2.577,0.038,3.263
		c0.582,0.688,1.793,1.037,3.599,1.037h10.273c4.72,0,7.901,1.288,9.457,3.827c1.563,2.529,1.473,6.224-0.271,10.981
		c-1.67,4.555-4.161,8.322-7.405,11.197C619.941,147.476,616.541,148.929,613.079,148.929z M583.95,148.712h29.129
		c3.407,0,6.761-1.434,9.966-4.263c3.216-2.85,5.688-6.588,7.345-11.109c1.721-4.692,1.818-8.324,0.291-10.794
		c-1.514-2.471-4.634-3.724-9.273-3.724h-10.273c-1.872,0-3.139-0.375-3.764-1.114c-0.621-0.75-0.646-1.919-0.076-3.476
		c0.62-1.692,1.562-2.888,2.799-3.552c1.241-0.661,3.523-0.996,6.783-0.996h19.956l3.687-10.063H616.31
		c-5.126,0-9.425,1.252-12.775,3.722c-3.349,2.476-6.022,6.396-7.947,11.65c-1.89,5.16-2.207,8.791-0.941,10.792
		c1.271,1.996,4.827,3.008,10.568,3.008h9.797c2.111,0,3.549,0.405,4.271,1.205c0.724,0.793,0.773,2.064,0.146,3.776
		c-0.622,1.692-1.579,2.943-2.844,3.72c-1.248,0.766-2.966,1.154-5.107,1.154h-23.839L583.95,148.712z M577.865,148.929h-10.429
		c-4.227,0-7.009-1.365-8.27-4.056c-1.259-2.681-0.973-6.561,0.85-11.533l8.756-23.892h-8.004l0.053-0.145l3.628-9.898h8.004
		l6.551-17.877h11.577l-0.053,0.145l-6.5,17.732h11.986l-0.053,0.145l-3.628,9.898h-11.986l-7.272,19.849
		c-1.324,3.612-1.715,6.147-1.161,7.535c0.545,1.362,2.165,2.053,4.815,2.053h4.816l-0.053,0.145L577.865,148.929z M561.077,109.233
		h8.004l-0.053,0.145l-8.809,24.037c-1.802,4.916-2.091,8.74-0.857,11.367c1.223,2.608,3.939,3.931,8.074,3.931h10.278l3.522-9.611
		h-4.508c-2.747,0-4.435-0.736-5.017-2.188c-0.573-1.438-0.184-4.025,1.159-7.689l7.325-19.99h11.986l3.522-9.611H583.72
		l0.053-0.145l6.5-17.732h-11.118l-6.551,17.877H564.6L561.077,109.233z M543.295,148.929h-15.483c-3.891,0-6.966-0.471-9.14-1.397
		c-2.197-0.946-3.862-2.479-4.952-4.557c-1.164-2.229-1.724-5.022-1.663-8.304c0.062-3.251,0.761-6.727,2.081-10.33
		c1.392-3.797,3.274-7.396,5.596-10.693c2.339-3.326,4.95-6.125,7.764-8.321c2.618-2.063,5.417-3.586,8.316-4.527
		c2.88-0.924,6.267-1.393,10.068-1.393h15.563l-0.053,0.145l-3.931,10.725h-12.142c-5.287,0-9.365,1.063-12.122,3.159
		c-2.759,2.079-5.125,5.772-7.034,10.979c-1.097,2.99-1.602,5.495-1.502,7.445c0.088,1.934,0.771,3.52,2.031,4.716
		c0.614,0.571,1.418,0.971,2.455,1.221c1.049,0.237,3.026,0.357,5.877,0.357h12.221l-0.053,0.145L543.295,148.929z M545.882,99.622
		c-3.779,0-7.145,0.465-10.002,1.382c-2.875,0.933-5.65,2.444-8.25,4.491c-2.796,2.183-5.394,4.967-7.721,8.275
		c-2.31,3.283-4.184,6.864-5.568,10.644c-1.312,3.581-2.008,7.032-2.067,10.26c-0.061,3.245,0.49,6.004,1.638,8.2
		c1.065,2.032,2.696,3.532,4.846,4.458c2.146,0.916,5.193,1.38,9.055,1.38h15.333l3.792-10.344h-11.912
		c-2.866,0-4.859-0.122-5.926-0.362c-1.076-0.259-1.911-0.676-2.554-1.274c-1.303-1.236-2.009-2.872-2.099-4.863
		c-0.102-1.978,0.407-4.512,1.514-7.529c1.924-5.247,4.315-8.974,7.106-11.078c2.795-2.125,6.917-3.203,12.253-3.203h11.991
		l3.825-10.438H545.882z M497.639,148.929h-21.45c-6.3,0-10.393-1.461-12.162-4.342c-1.758-2.886-1.478-7.546,0.832-13.852
		l11.483-31.329h11.534l-0.053,0.145l-11.072,30.214c-1.184,3.231-1.494,5.416-0.924,6.495c0.568,1.049,2.337,1.581,5.256,1.581
		h9.042l14.086-38.435h11.575l-0.053,0.145L497.639,148.929z M476.492,99.622l-11.431,31.188
		c-2.286,6.241-2.573,10.839-0.852,13.665c1.729,2.812,5.759,4.238,11.979,4.238h21.3l17.989-49.09h-11.116l-14.086,38.435h-9.192
		c-3.047,0-4.828-0.554-5.446-1.695c-0.609-1.151-0.312-3.333,0.911-6.67l11.02-30.069H476.492z M448.871,148.929h-21.858
		c-6.588,0-10.982-2.268-13.061-6.74c-2.058-4.456-1.628-10.739,1.279-18.676c1.198-3.268,2.698-6.298,4.458-9.006
		c1.758-2.703,3.864-5.223,6.261-7.491c2.852-2.708,5.84-4.674,8.881-5.84c3.05-1.174,6.755-1.77,11.014-1.77h9.64l6.551-17.877
		h11.536l-0.053,0.145L448.871,148.929z M445.845,99.622c-4.232,0-7.911,0.59-10.936,1.755c-3.016,1.157-5.979,3.107-8.811,5.796
		c-2.385,2.257-4.479,4.764-6.228,7.452c-1.751,2.695-3.244,5.71-4.437,8.963c-2.887,7.881-3.319,14.109-1.287,18.511
		c2.04,4.389,6.368,6.614,12.865,6.614h21.708l24.542-66.967h-11.077l-6.551,17.877H445.845z M332.459,148.929h-11.575l0.053-0.146
		l18.097-49.377h19.14c4.476,0,7.32,0.946,8.455,2.812c1.133,1.862,0.851,5.143-0.838,9.749l-3.044,8.307h-11.06l0.053-0.145
		l2.326-6.348c0.69-1.884,0.868-3.156,0.528-3.779c-0.337-0.615-1.557-0.927-3.624-0.927h-3.905L332.459,148.929z M321.192,148.712
		h11.116l14.605-39.854h4.056c2.183,0,3.431,0.34,3.813,1.04c0.377,0.69,0.208,1.984-0.515,3.957l-2.273,6.203h10.601l2.991-8.165
		c1.665-4.542,1.953-7.759,0.857-9.563c-1.094-1.797-3.876-2.708-8.271-2.708h-18.989L321.192,148.712z M274.07,148.929h-12.527
		l0.053-0.146l24.647-67.254h26.79c4.488,0,8.027,0.269,10.52,0.799c2.475,0.528,4.333,1.394,5.522,2.571
		c1.963,1.963,3.059,4.564,3.258,7.729c0.217,3.14-0.438,6.818-1.943,10.931c-1.474,4.016-3.318,7.51-5.484,10.385
		c-2.151,2.859-4.757,5.277-7.746,7.186c-2.499,1.555-5.135,2.672-7.835,3.321c-2.726,0.654-6.691,0.985-11.787,0.985H282.68
		L274.07,148.929z M261.853,148.712h12.067l8.609-23.491h15.008c5.079,0,9.027-0.33,11.736-0.979
		c2.678-0.644,5.292-1.752,7.771-3.294c2.966-1.895,5.554-4.295,7.689-7.133c2.152-2.858,3.987-6.333,5.453-10.33
		c1.496-4.084,2.146-7.732,1.932-10.843c-0.196-3.112-1.271-5.665-3.195-7.59c-1.159-1.147-2.981-1.993-5.415-2.513
		c-2.478-0.527-6.002-0.794-10.475-0.794h-26.639L261.853,148.712z M221.822,148.929h-16.639c-7.121,0-11.815-2.119-13.952-6.298
		c-2.137-4.153-1.714-10.37,1.258-18.479c2.96-8.075,7.09-14.288,12.275-18.468c5.196-4.166,11.416-6.278,18.489-6.278h16.718
		l-3.846,10.495h-15.091c-4.067,0-7.088,0.67-8.978,1.992c-1.852,1.304-3.482,3.683-4.849,7.073h25.595l-3.847,10.494h-25.598
		c-1.147,3.446-1.318,5.825-0.507,7.071c0.809,1.262,3.358,1.901,7.579,1.901h15.237L221.822,148.929z M223.254,99.622
		c-7.022,0-13.197,2.096-18.354,6.231c-5.154,4.154-9.262,10.336-12.207,18.374c-2.95,8.049-3.377,14.208-1.269,18.306
		c2.097,4.101,6.727,6.18,13.76,6.18h16.488l3.688-10.063h-14.928c-4.299,0-6.909-0.673-7.761-2c-0.866-1.332-0.7-3.73,0.508-7.331
		l0.025-0.074h25.602l3.688-10.063H206.89l0.059-0.148c1.395-3.508,3.072-5.971,4.985-7.318c1.927-1.348,4.989-2.031,9.102-2.031
		h14.94l3.687-10.063H223.254z M178.611,148.929h-15.484c-3.89,0-6.965-0.471-9.141-1.397c-2.195-0.946-3.861-2.479-4.951-4.557
		c-1.165-2.23-1.725-5.024-1.661-8.304c0.062-3.255,0.762-6.731,2.08-10.33c1.394-3.802,3.276-7.4,5.595-10.693
		c2.34-3.328,4.952-6.127,7.765-8.321c2.619-2.063,5.417-3.586,8.316-4.527c2.879-0.924,6.266-1.393,10.067-1.393h15.563
		l-3.984,10.87h-12.141c-5.287,0-9.365,1.063-12.121,3.159c-2.761,2.079-5.127,5.773-7.035,10.979
		c-1.098,2.994-1.603,5.499-1.502,7.444c0.087,1.933,0.771,3.52,2.03,4.716c0.614,0.571,1.418,0.971,2.456,1.221
		c1.049,0.237,3.027,0.357,5.876,0.357h12.221L178.611,148.929z M181.197,99.622c-3.779,0-7.144,0.465-10.001,1.382
		c-2.875,0.933-5.65,2.444-8.25,4.491c-2.795,2.181-5.393,4.966-7.721,8.275c-2.308,3.278-4.182,6.859-5.568,10.644
		c-1.311,3.577-2.006,7.028-2.067,10.26c-0.063,3.244,0.488,6.002,1.637,8.2c1.066,2.032,2.696,3.532,4.846,4.458
		c2.147,0.916,5.194,1.38,9.055,1.38h15.333l3.791-10.344H170.34c-2.865,0-4.858-0.122-5.926-0.362
		c-1.076-0.259-1.911-0.676-2.554-1.274c-1.303-1.237-2.009-2.873-2.099-4.863c-0.102-1.975,0.407-4.508,1.515-7.529
		c1.923-5.246,4.314-8.973,7.107-11.078c2.795-2.125,6.917-3.203,12.252-3.203h11.989l3.826-10.438H181.197z M133.349,148.929
		h-12.133l0.053-0.146l18.096-49.377h12.134l-0.053,0.145L133.349,148.929z M121.525,148.712h11.673l17.99-49.09h-11.673
		L121.525,148.712z M105.127,148.929H93.156l0.054-0.146l14.415-39.334h-8.167l3.681-10.043h8.167l1.838-5.015
		c1.835-5.008,3.919-8.446,6.194-10.218c2.266-1.754,5.743-2.644,10.335-2.644h10.903l-3.562,9.716h-5.442
		c-1.918,0-3.419,0.341-4.463,1.012c-1.05,0.667-1.872,1.798-2.446,3.363l-1.387,3.786h10.748l-3.681,10.043h-10.748
		L105.127,148.929z M93.466,148.712h11.51l14.469-39.479h10.748l3.522-9.611h-10.748l1.493-4.076
		c0.591-1.611,1.442-2.779,2.532-3.471c1.079-0.694,2.62-1.046,4.58-1.046h5.292l3.402-9.284h-10.594
		c-4.543,0-7.976,0.875-10.202,2.599c-2.242,1.747-4.304,5.152-6.124,10.122l-1.89,5.157h-8.167l-3.522,9.611h8.167l-0.054,0.145
		L93.466,148.712z M73.167,148.929h-11.97l0.053-0.146l14.415-39.334h-8.166l3.681-10.043h8.166l1.839-5.015
		c1.835-5.007,3.918-8.445,6.193-10.218c2.267-1.754,5.743-2.644,10.335-2.644h10.903l-3.561,9.716h-5.442
		c-1.918,0-3.42,0.341-4.464,1.012c-1.05,0.667-1.872,1.798-2.445,3.363l-1.388,3.786h10.749l-3.682,10.043H87.636L73.167,148.929z
		 M61.507,148.712h11.51l14.469-39.479h10.748l3.522-9.611H91.007l1.494-4.076c0.591-1.611,1.442-2.778,2.532-3.471
		c1.078-0.694,2.619-1.046,4.58-1.046h5.291l3.402-9.284H97.713c-4.542,0-7.975,0.875-10.202,2.599
		c-2.242,1.747-4.303,5.153-6.123,10.122l-1.891,5.157h-8.166l-3.522,9.611h8.166l-0.053,0.145L61.507,148.712z M382.831,139.196
		c-3.467,0-5.71-1.347-6.666-4.003c-0.957-2.626-0.569-6.341,1.152-11.041c1.703-4.647,4.028-8.335,6.911-10.961
		c2.896-2.626,6.094-3.958,9.503-3.958c3.453,0,5.703,1.335,6.689,3.969c0.968,2.624,0.587,6.333-1.131,11.024
		c-1.723,4.695-4.063,8.399-6.957,11.01C389.435,137.864,386.237,139.196,382.831,139.196z M393.731,109.449
		c-3.354,0-6.502,1.313-9.357,3.902c-2.856,2.602-5.163,6.261-6.854,10.875c-1.704,4.651-2.092,8.315-1.152,10.893
		c0.922,2.562,3.097,3.861,6.463,3.861c3.352,0,6.499-1.313,9.357-3.904c2.867-2.587,5.188-6.263,6.898-10.924
		c1.7-4.642,2.08-8.301,1.131-10.875C399.268,110.737,397.085,109.449,393.731,109.449z M24.74,138.742
		c-5.461,0-8.801-1.973-9.927-5.865c-1.128-3.85-0.161-10.002,2.875-18.287c2.792-7.618,6.231-13.399,10.224-17.184
		c3.993-3.776,8.698-5.691,13.983-5.691c5.378,0,8.718,1.946,9.928,5.783c1.184,3.829,0.305,9.804-2.611,17.76
		c-2.909,7.938-6.399,13.897-10.375,17.713C34.833,136.801,30.091,138.742,24.74,138.742z M41.896,91.932
		c-5.229,0-9.884,1.895-13.835,5.632c-3.968,3.76-7.389,9.514-10.169,17.101c-3.02,8.24-3.985,14.348-2.871,18.152
		c1.097,3.788,4.366,5.709,9.72,5.709c5.293,0,9.985-1.921,13.947-5.71c3.951-3.792,7.424-9.725,10.321-17.631
		c2.899-7.911,3.777-13.839,2.608-17.621C50.438,93.827,47.168,91.932,41.896,91.932z M441.434,138.369h-7.833
		c-4.326,0-7.035-1.076-8.053-3.197c-1.014-2.091-0.6-5.688,1.232-10.69c1.883-5.137,4.226-8.868,6.963-11.091
		c2.75-2.21,6.472-3.33,11.063-3.33h7.004l-0.053,0.145L441.434,138.369z M444.806,110.276c-4.54,0-8.217,1.104-10.927,3.282
		c-2.706,2.198-5.026,5.897-6.896,10.997c-1.812,4.945-2.229,8.485-1.241,10.522c0.979,2.041,3.622,3.076,7.858,3.076h7.683
		l10.218-27.877H444.806z M301.962,113.551h-15.156l7.344-20.041h14.331c4.376,0,7.105,0.753,8.346,2.302
		c1.232,1.537,1.187,4.143-0.134,7.748c-1.234,3.369-3.079,5.9-5.483,7.523C308.803,112.721,305.691,113.551,301.962,113.551z
		 M287.115,113.335h14.847c3.686,0,6.756-0.818,9.126-2.431c2.366-1.598,4.184-4.094,5.401-7.419
		c1.293-3.528,1.35-6.065,0.168-7.539c-1.18-1.474-3.931-2.221-8.177-2.221h-14.18L287.115,113.335z M153.477,94.006h-12.133
		l4.566-12.461h12.134L153.477,94.006z M141.653,93.791h11.673l4.408-12.03h-11.673L141.653,93.791z"/>
</g>
<g>
	<polygon fill-rule="evenodd" clip-rule="evenodd" fill="#ED1C24" points="0.443,162.518 639.741,162.518 639.741,200.402 
		0.443,200.402 0.443,162.518 	"/>
</g>
<g>
	<path fill-rule="evenodd" clip-rule="evenodd" fill="#FFFFFF" d="M231.908,176.006l-4.303,8.203h8.604L231.908,176.006
		L231.908,176.006z M229.215,172.822h5.426l10.634,18.906h-5.148l-2.6-4.891h-11.264l-2.532,4.891h-5.031L229.215,172.822
		L229.215,172.822z M248.254,172.822h5.117l13.483,14.148v-14.148h4.655v18.906h-5.072l-13.561-14.146v14.146h-4.623V172.822
		L248.254,172.822z M282.378,175.506v13.436h5.921c2.868,0,4.98-0.559,6.331-1.682c1.359-1.123,2.038-2.859,2.038-5.209
		c0-2.141-0.679-3.762-2.047-4.873c-1.358-1.113-3.362-1.672-5.996-1.672H282.378L282.378,175.506z M277.639,172.822h11.188
		c4.242,0,7.43,0.783,9.561,2.355c2.129,1.572,3.194,3.916,3.194,7.037c0,3.057-1.165,5.406-3.497,7.049
		c-2.332,1.645-5.686,2.465-10.063,2.465h-10.384V172.822L277.639,172.822z M330.146,171.514v7.459h7.816
		c2.432,0,4.176-0.289,5.215-0.865c1.041-0.58,1.561-1.521,1.561-2.842c0-1.293-0.52-2.24-1.551-2.85
		c-1.033-0.602-2.658-0.902-4.883-0.902H330.146L330.146,171.514z M324.124,168.096h13.787c2.223,0,3.873,0.066,4.947,0.203
		c1.074,0.131,2.037,0.355,2.885,0.662c1.66,0.58,2.91,1.408,3.766,2.498c0.846,1.084,1.273,2.387,1.273,3.904
		c0,1.256-0.35,2.371-1.057,3.363c-0.705,0.986-1.727,1.807-3.068,2.459c-0.922,0.443-1.996,0.756-3.221,0.947
		c-1.232,0.193-2.928,0.291-5.09,0.291h-8.201v9.305h-6.021V168.096L324.124,168.096z M360.604,175.479v5.816h6.9
		c2.02,0,3.463-0.229,4.344-0.695c0.881-0.459,1.316-1.209,1.316-2.246c0-1.006-0.428-1.74-1.291-2.195
		c-0.855-0.455-2.273-0.68-4.252-0.68H360.604L360.604,175.479z M355.864,172.822h12.486c0.377,0,0.799,0.012,1.258,0.027
		c0.145,0.006,0.227,0.012,0.254,0.012c2.557,0,4.553,0.465,6.004,1.402c1.449,0.93,2.17,2.213,2.17,3.85
		c0,1.068-0.359,1.982-1.08,2.744s-1.746,1.309-3.063,1.643c1.176,0.252,2.021,0.641,2.543,1.178c0.52,0.531,0.82,1.402,0.914,2.607
		l0.25,2.713c0,0.004,0,0.014,0,0.025c0.084,1.178,0.479,1.896,1.199,2.154v0.551h-5.383c-0.209-0.246-0.369-0.541-0.477-0.881
		c-0.111-0.334-0.193-0.871-0.244-1.609l-0.16-2.258c-0.102-1.215-0.494-2.02-1.166-2.426c-0.678-0.4-1.818-0.604-3.43-0.604h-0.932
		h-6.363v7.777h-4.781V172.822L355.864,172.822z M383.595,172.822h4.84v18.906h-4.84V172.822L383.595,172.822z M394.706,172.822
		h5.115l13.486,14.148v-14.148h4.652v18.906h-5.072l-13.559-14.146v14.146h-4.623V172.822L394.706,172.822z M421.384,172.822h22.615
		v2.771h-8.881v16.135h-4.795v-16.135h-8.939V172.822L421.384,172.822z M447.597,172.822h4.838v18.906h-4.838V172.822
		L447.597,172.822z M458.706,172.822h5.117l13.484,14.148v-14.148h4.654v18.906h-5.072l-13.561-14.146v14.146h-4.623V172.822
		L458.706,172.822z M513.032,178.611h-4.779c-0.361-1.123-1.193-1.992-2.484-2.623c-1.291-0.629-2.9-0.941-4.846-0.941
		c-2.893,0-5.141,0.623-6.734,1.879c-1.602,1.254-2.396,3.018-2.396,5.295c0,2.23,0.803,3.988,2.414,5.275
		c1.609,1.281,3.814,1.922,6.6,1.922c2.373,0,4.293-0.477,5.77-1.434c1.475-0.959,2.256-2.242,2.348-3.852h-7.924v-2.607h12.367
		v10.203h-3.184l-0.807-2.387c-1.072,0.947-2.381,1.664-3.908,2.152c-1.535,0.486-3.262,0.734-5.189,0.734
		c-4.002,0-7.238-0.916-9.721-2.74c-2.48-1.828-3.725-4.227-3.725-7.195c0-3.029,1.252-5.443,3.758-7.252
		c2.5-1.803,5.838-2.705,10.021-2.705c3.488,0,6.324,0.553,8.512,1.652C511.312,175.096,512.612,176.635,513.032,178.611
		L513.032,178.611z M520.001,187.621h6.096v4.207c0,1.357-0.518,2.465-1.561,3.318c-1.039,0.861-2.557,1.424-4.535,1.705v-1.705
		c0.947-0.125,1.719-0.459,2.297-0.996c0.578-0.531,0.871-1.166,0.871-1.889c0-0.012-0.006-0.078-0.023-0.193
		c-0.018-0.119-0.025-0.23-0.025-0.34h-3.119V187.621L520.001,187.621z M547.978,168.096h6.045v23.633h-6.045V168.096
		L547.978,168.096z M561.099,172.822h5.117l13.484,14.148v-14.148h4.654v18.906h-5.072l-13.561-14.146v14.146h-4.623V172.822
		L561.099,172.822z M614.913,178.738h-4.764c-0.26-1.139-1.031-2.021-2.305-2.65c-1.275-0.631-2.953-0.943-5.025-0.943
		c-2.758,0-4.896,0.613-6.404,1.836c-1.518,1.227-2.273,2.951-2.273,5.186c0,2.252,0.762,4.021,2.297,5.313
		c1.535,1.293,3.631,1.939,6.305,1.939c2.123,0,3.877-0.41,5.26-1.227c1.385-0.816,2.146-1.9,2.307-3.242h4.721
		c-0.117,2.141-1.344,3.895-3.664,5.258c-2.322,1.363-5.268,2.049-8.814,2.049c-4.125,0-7.381-0.889-9.762-2.656
		c-2.373-1.77-3.563-4.207-3.563-7.307c0-3.127,1.207-5.57,3.613-7.328c2.416-1.754,5.77-2.629,10.064-2.629
		c3.488,0,6.289,0.568,8.418,1.709C613.454,175.178,614.653,176.744,614.913,178.738L614.913,178.738z M620.622,187.588h6.096v4.141
		h-6.096V187.588L620.622,187.588z"/>
</g>
</svg>
