<?xml version="1.0" encoding="utf-8"?>
<!-- Generator: Adobe Illustrator 15.0.0, SVG Export Plug-In . SVG Version: 6.00 Build 0)  -->
<!DOCTYPE svg PUBLIC "-//W3C//DTD SVG 1.1//EN" "http://www.w3.org/Graphics/SVG/1.1/DTD/svg11.dtd">
<svg version="1.1" id="Layer_1" xmlns="http://www.w3.org/2000/svg" xmlns:xlink="http://www.w3.org/1999/xlink" x="0px" y="0px"
	 width="643.572px" height="359.3px" viewBox="0 0 643.572 359.3" enable-background="new 0 0 643.572 359.3" xml:space="preserve">
<g>
	<g>
		<path fill-rule="evenodd" clip-rule="evenodd" fill="#BCBEC0" d="M346.813,249.781c0.004,0.002,0.006,0.004,0.01,0.008
			c14.662,10.996,23.289,32.07,20.678,55.154c-3.643,32.191-27.793,56.42-53.763,53.93c-19.08-1.828-33.97-17.58-39.084-38.578
			c0-0.002-0.001-0.004-0.001-0.006c-0.034-0.137-0.064-0.275-0.097-0.412L346.813,249.781L346.813,249.781z M274.2,320.561
			l72.228-70.555L274.2,320.561L274.2,320.561z"/>
	</g>
	<g>
		<path d="M317.426,359.3c-1.232,0-2.47-0.059-3.713-0.178c-18.492-1.772-33.867-16.865-39.234-38.485l-0.105,0.103l-0.35-0.357
			l0.318-0.311l-0.064-0.275l0.102-0.099l49.867-48.375l22.005-21.495l0.075,0.076l0.438-0.425l0.233,0.134
			c15.115,11.333,23.271,33.072,20.749,55.359C364.261,335.797,342.104,359.3,317.426,359.3z M274.894,320.229
			c5.253,21.567,20.509,36.636,38.867,38.395c25.867,2.495,49.859-21.613,53.491-53.709c2.492-22.036-5.519-43.521-20.419-54.805
			l-22.237,21.571l-49.701,48.55L274.894,320.229z"/>
	</g>
	<g>
		<path fill-rule="evenodd" clip-rule="evenodd" fill="#E6E7E8" d="M353.934,339.746c53.285-137.129-110.932-115.691-353.817-36.902
			L525.545,27.147c37.773-20.016,98.23-45.525,97.293-6.592L353.934,339.746L353.934,339.746z"/>
		<path d="M354.125,339.907l-0.425-0.252c12.581-32.376,13.285-57.085,2.094-73.44c-11.688-17.082-36.877-25.743-74.865-25.743
			c-59.03,0-150.859,20.479-280.735,62.61L0,302.622L525.429,26.926C548.608,14.643,580.685,0,601.85,0
			c7.375,0,12.906,1.836,16.44,5.457c3.343,3.424,4.957,8.506,4.798,15.104l-0.002,0.088l-0.057,0.067L354.125,339.907z
			 M280.929,239.972c38.163,0,63.49,8.734,75.278,25.961c11.129,16.265,10.621,40.656-1.506,72.515L622.59,20.461
			c0.14-6.416-1.428-11.346-4.657-14.655C614.495,2.285,609.085,0.5,601.85,0.5c-21.063,0-53.057,14.611-76.188,26.868
			L2.831,301.702C131.278,260.168,222.271,239.972,280.929,239.972z"/>
	</g>
	<g>
		<path fill-rule="evenodd" clip-rule="evenodd" fill="#004085" d="M5.094,26.949h29.88L80.94,75.21l-1.148-48.261h24.144v67.183
			H76.508l-48.261-50.82l1.07,50.82H5.094V26.949L5.094,26.949z M155.222,84.21h27.298V74.025h-25.681
			c-5.085,0-8.604,0.406-10.56,1.232c-1.931,0.827-2.896,2.262-2.896,4.29c0,1.748,0.783,2.948,2.321,3.634
			C147.27,83.868,150.449,84.21,155.222,84.21L155.222,84.21z M126.28,44.825h44.61c11.263,0,19.738,1.544,25.448,4.633
			c5.709,3.104,8.551,7.689,8.551,13.773v30.9h-58.532c-8.187,0-14.497-1.233-18.904-3.696c-4.406-2.48-6.596-5.975-6.596-10.514
			c0-5.615,2.53-9.625,7.614-12.073c5.057-2.434,13.479-3.65,25.237-3.65h28.654v-1.232c0-2.933-1.434-4.992-4.301-6.177
			c-2.893-1.186-8.03-1.779-15.41-1.779H126.28V44.825L126.28,44.825z M215.763,44.825h15.358V26.949h21.771v17.876h22.996v9.827
			h-22.996v19.919c0,3.65,1.042,6.192,3.128,7.612c2.086,1.419,5.735,2.121,10.923,2.121h8.944v9.827H256.02
			c-8.03,0-14.21-1.326-18.486-3.993c-4.275-2.667-6.413-6.49-6.413-11.449V54.652h-15.358V44.825L215.763,44.825z M311.527,39.209
			h-22.838V26.964h22.838V39.209L311.527,39.209z M311.527,94.132h-22.838V44.825h22.838V94.132L311.527,94.132z M347.639,69.501
			c0,4.695,1.824,8.346,5.5,10.966c3.65,2.62,8.787,3.931,15.357,3.931c6.494,0,11.627-1.311,15.33-3.931
			c3.729-2.621,5.58-6.271,5.58-10.966s-1.852-8.345-5.527-10.951c-3.701-2.604-8.838-3.899-15.383-3.899
			c-6.518,0-11.629,1.31-15.33,3.931C349.488,61.203,347.639,64.837,347.639,69.501L347.639,69.501z M412.246,69.501
			c0,7.737-3.936,13.915-11.811,18.532c-7.848,4.616-18.461,6.925-31.811,6.925c-13.32,0-23.959-2.31-31.912-6.942
			c-7.953-4.633-11.914-10.81-11.914-18.515c0-7.737,3.961-13.93,11.914-18.578c7.953-4.648,18.592-6.973,31.912-6.973
			c13.246,0,23.832,2.325,31.758,6.973C408.285,55.572,412.246,61.764,412.246,69.501L412.246,69.501z M425.568,44.825h40.961
			c12.357,0,21.197,1.387,26.49,4.18c5.293,2.792,7.953,7.409,7.953,13.867v31.26h-21.771V64.464c0-3.682-0.965-6.068-2.869-7.177
			c-1.902-1.091-5.736-1.637-11.498-1.637H447.34v38.481h-21.771V44.825L425.568,44.825z M550.066,84.21h27.299V74.025h-25.682
			c-5.086,0-8.605,0.406-10.559,1.232c-1.932,0.827-2.896,2.262-2.896,4.29c0,1.748,0.783,2.948,2.32,3.634
			C542.115,83.868,545.295,84.21,550.066,84.21L550.066,84.21z M521.125,44.825h44.609c11.264,0,19.738,1.544,25.449,4.633
			c5.709,3.104,8.551,7.689,8.551,13.773v30.9h-58.533c-8.188,0-14.496-1.233-18.902-3.696c-4.406-2.48-6.598-5.975-6.598-10.514
			c0-5.615,2.531-9.625,7.615-12.073c5.057-2.434,13.479-3.65,25.236-3.65h28.654v-1.232c0-2.933-1.434-4.992-4.301-6.177
			c-2.895-1.186-8.029-1.779-15.41-1.779h-36.371V44.825L521.125,44.825z M641.166,94.132h-22.684V26.949h22.684V94.132
			L641.166,94.132z"/>
		<path d="M368.625,95.708c-13.401,0-24.265-2.37-32.289-7.044c-8.153-4.749-12.287-11.196-12.287-19.163
			c0-7.993,4.134-14.461,12.285-19.225c8.033-4.695,18.897-7.076,32.291-7.076c13.319,0,24.132,2.381,32.138,7.076
			c8.117,4.775,12.233,11.243,12.233,19.225c0,7.987-4.099,14.439-12.182,19.179C392.886,93.344,382.056,95.708,368.625,95.708z
			 M368.625,44.701c-13.124,0-23.733,2.312-31.534,6.871c-7.767,4.539-11.542,10.404-11.542,17.93
			c0,7.395,3.883,13.406,11.542,17.867c7.792,4.539,18.401,6.84,31.534,6.84c13.159,0,23.734-2.295,31.431-6.822
			c7.592-4.451,11.44-10.468,11.44-17.885c0-7.413-3.867-13.445-11.493-17.931C392.23,47.012,381.674,44.701,368.625,44.701z
			 M641.916,94.882h-24.184V26.199h24.184V94.882z M619.232,93.382h21.184V27.699h-21.184V93.382z M600.484,94.882h-59.283
			c-8.285,0-14.768-1.276-19.269-3.792c-4.633-2.608-6.981-6.366-6.981-11.169c0-5.89,2.705-10.179,8.04-12.749
			c5.134-2.471,13.734-3.725,25.562-3.725h27.904v-0.482c0-2.623-1.255-4.417-3.837-5.484c-2.788-1.142-7.877-1.722-15.124-1.722
			h-37.121V44.075h45.359c11.329,0,20.012,1.589,25.806,4.723c5.936,3.227,8.944,8.083,8.944,14.433V94.882z M548.553,64.948
			c-11.601,0-19.981,1.203-24.911,3.576c-4.839,2.33-7.19,6.058-7.19,11.397c0,4.281,2.033,7.506,6.216,9.861
			c4.271,2.388,10.508,3.6,18.534,3.6h57.783v-30.15c0-5.84-2.669-10.129-8.159-13.115c-5.571-3.013-14.014-4.542-25.091-4.542
			h-43.859v8.685h35.621c7.548,0,12.682,0.6,15.694,1.835c3.163,1.307,4.767,3.618,4.767,6.871v1.982H548.553z M501.723,94.882
			h-23.271V64.464c0-3.368-0.84-5.564-2.496-6.529c-1.775-1.018-5.519-1.535-11.121-1.535H448.09v38.481h-23.271V44.075h41.711
			c12.444,0,21.475,1.436,26.84,4.267c5.543,2.923,8.354,7.813,8.354,14.53V94.882z M479.951,93.382h20.271v-30.51
			c0-6.204-2.471-10.523-7.553-13.204c-5.148-2.716-13.943-4.093-26.141-4.093h-40.211v47.807h20.271V54.9h18.244
			c5.951,0,9.834,0.568,11.871,1.736c2.155,1.254,3.246,3.887,3.246,7.827V93.382z M312.277,94.882h-24.338V44.075h24.338V94.882z
			 M289.438,93.382h21.338V45.575h-21.338V93.382z M276.638,94.882H256.02c-8.162,0-14.515-1.382-18.883-4.107
			c-4.49-2.801-6.766-6.867-6.766-12.085V55.402h-15.358V44.075h15.358V26.199h23.271v17.876h22.996v11.327h-22.996v19.169
			c0,3.375,0.942,5.728,2.8,6.992c1.942,1.321,5.476,1.991,10.501,1.991h9.694V94.882z M216.513,53.902h15.358v24.788
			c0,4.732,1.982,8.269,6.06,10.813c4.126,2.574,10.212,3.879,18.089,3.879h19.118v-8.327h-8.194c-5.407,0-9.119-0.736-11.345-2.251
			c-2.293-1.561-3.456-4.331-3.456-8.232V53.902h22.996v-8.327h-22.996V27.699h-20.271v17.876h-15.358V53.902z M205.639,94.882
			h-59.282c-8.285,0-14.769-1.276-19.27-3.792c-4.632-2.608-6.98-6.365-6.98-11.169c0-5.891,2.705-10.18,8.039-12.749
			c5.135-2.471,13.735-3.725,25.563-3.725h27.904v-0.482c0-2.623-1.255-4.417-3.837-5.484c-2.787-1.142-7.875-1.722-15.124-1.722
			H125.53V44.075h45.36c11.33,0,20.012,1.589,25.805,4.723c5.935,3.227,8.944,8.083,8.944,14.433V94.882z M153.708,64.948
			c-11.601,0-19.982,1.203-24.912,3.576c-4.838,2.33-7.189,6.057-7.189,11.397c0,4.281,2.033,7.507,6.214,9.861
			c4.273,2.388,10.51,3.6,18.536,3.6h57.782v-30.15c0-5.84-2.669-10.129-8.159-13.115c-5.57-3.013-14.012-4.542-25.09-4.542h-43.86
			v8.685h35.621c7.549,0,12.683,0.6,15.694,1.835c3.164,1.307,4.767,3.618,4.767,6.871v1.982H153.708z M104.687,94.882h-28.5
			l-0.222-0.233L29.037,45.233l1.045,49.648H4.344V26.199h30.951l44.85,47.088l-1.12-47.088h25.662V94.882z M76.83,93.382h26.357
			V27.699H80.561l1.13,47.493l-1.293,0.535L34.652,27.699H5.844v65.683H28.55l-1.054-50.054l1.294-0.532L76.83,93.382z
			 M368.496,85.148c-6.717,0-12.031-1.37-15.795-4.071c-3.856-2.75-5.813-6.645-5.813-11.576c0-4.889,1.966-8.768,5.842-11.529
			c3.814-2.701,9.118-4.07,15.766-4.07c6.688,0,12.009,1.358,15.814,4.036c3.88,2.75,5.846,6.641,5.846,11.564
			c0,4.933-1.984,8.829-5.898,11.58C380.443,83.779,375.141,85.148,368.496,85.148z M368.496,55.402
			c-6.33,0-11.343,1.276-14.896,3.793c-3.506,2.498-5.211,5.87-5.211,10.307c0,4.48,1.696,7.868,5.186,10.355
			c3.506,2.517,8.525,3.792,14.922,3.792c6.328,0,11.34-1.276,14.896-3.793c3.543-2.49,5.264-5.876,5.264-10.354
			c0-4.471-1.704-7.853-5.211-10.339C379.899,56.667,374.869,55.402,368.496,55.402z M578.115,84.96h-28.049
			c-4.931,0-8.143-0.357-9.819-1.093c-1.813-0.809-2.769-2.302-2.769-4.321c0-2.319,1.159-4.041,3.352-4.979
			c2.057-0.87,5.606-1.292,10.854-1.292h26.432V84.96z M551.684,74.775c-4.973,0-8.427,0.395-10.267,1.173
			c-1.64,0.702-2.438,1.879-2.438,3.599c0,1.441,0.596,2.378,1.876,2.949c1.457,0.639,4.558,0.964,9.212,0.964h26.549v-8.685
			H551.684z M183.27,84.96h-28.048c-4.932,0-8.144-0.357-9.818-1.093c-1.813-0.809-2.77-2.302-2.77-4.321
			c0-2.319,1.159-4.041,3.351-4.979c2.059-0.87,5.608-1.292,10.854-1.292h26.431V84.96z M156.839,74.775
			c-4.972,0-8.426,0.395-10.268,1.173c-1.639,0.702-2.438,1.879-2.438,3.599c0,1.441,0.596,2.378,1.876,2.949
			c1.456,0.639,4.557,0.964,9.211,0.964h26.548v-8.685H156.839z M312.277,39.959h-24.338V26.214h24.338V39.959z M289.438,38.459
			h21.338V27.714h-21.338V38.459z"/>
	</g>
	<g>
		<path fill-rule="evenodd" clip-rule="evenodd" d="M7.111,140.75c4.236-11.559,9.79-20.154,16.665-25.784
			c6.887-5.631,15.246-8.455,25.083-8.455c9.92,0,16.212,2.854,18.881,8.548c2.683,5.693,1.836,14.491-2.52,26.377
			c-4.35,11.87-9.958,20.684-16.825,26.408c-6.854,5.724-15.244,8.594-25.164,8.594c-10.028,0-16.336-2.886-18.956-8.641
			C1.672,162.042,2.612,153.025,7.111,140.75L7.111,140.75z M44.64,118.023c-5.272,0-9.917,1.887-13.909,5.662
			c-3.999,3.791-7.396,9.5-10.196,17.142c-3.041,8.299-4.001,14.367-2.873,18.22c1.115,3.854,4.388,5.787,9.823,5.787
			c5.354,0,10.025-1.918,14.021-5.74c3.981-3.821,7.434-9.718,10.349-17.672c2.921-7.971,3.791-13.868,2.61-17.69
			C53.265,119.925,49.994,118.023,44.64,118.023L44.64,118.023z M78.565,135.54h-8.167L74,125.713h8.167l1.864-5.086
			c1.84-5.021,3.896-8.407,6.159-10.17c2.257-1.748,5.675-2.621,10.269-2.621h10.749l-3.481,9.5h-5.367
			c-1.944,0-3.455,0.343-4.522,1.029c-1.081,0.687-1.905,1.825-2.488,3.417l-1.441,3.931h10.749l-3.602,9.827H90.305L75.837,175.02
			h-11.74L78.565,135.54L78.565,135.54z M110.524,135.54h-8.167l3.601-9.827h8.167l1.864-5.086c1.84-5.021,3.897-8.407,6.16-10.17
			c2.257-1.748,5.675-2.621,10.268-2.621h10.749l-3.482,9.5h-5.367c-1.943,0-3.454,0.343-4.521,1.029
			c-1.081,0.687-1.905,1.825-2.489,3.417l-1.44,3.931h10.749l-3.602,9.827h-10.749l-14.468,39.479h-11.74L110.524,135.54
			L110.524,135.54z M156.146,120.097h-11.903l4.488-12.246h11.903L156.146,120.097L156.146,120.097z M136.019,175.02h-11.903
			l18.07-49.307h11.903L136.019,175.02L136.019,175.02z M173.085,164.459h12.066l-3.87,10.56h-15.409
			c-3.9,0-6.936-0.467-9.098-1.389c-2.171-0.936-3.81-2.433-4.898-4.508c-1.174-2.246-1.711-5.008-1.649-8.252
			c0.062-3.244,0.748-6.675,2.074-10.295c1.395-3.805,3.255-7.363,5.582-10.668c2.326-3.308,4.905-6.084,7.742-8.298
			c2.635-2.075,5.398-3.573,8.283-4.509c2.865-0.919,6.216-1.387,10.034-1.387h15.409l-3.905,10.654H183.38
			c-5.327,0-9.397,1.06-12.187,3.181c-2.796,2.106-5.15,5.787-7.071,11.028c-1.103,3.01-1.61,5.506-1.508,7.487
			c0.089,1.981,0.784,3.573,2.064,4.789c0.638,0.594,1.468,0.998,2.504,1.248C168.225,164.334,170.19,164.459,173.085,164.459
			L173.085,164.459z M207.929,175.02c-7.106,0-11.727-2.075-13.856-6.239c-2.135-4.149-1.704-10.295,1.264-18.392
			c2.972-8.11,7.054-14.24,12.241-18.421c5.195-4.166,11.341-6.254,18.421-6.254h16.563l-3.767,10.279H223.78
			c-4.104,0-7.122,0.67-9.04,2.012c-1.905,1.341-3.552,3.76-4.947,7.27h25.6l-3.767,10.278h-25.6
			c-1.188,3.541-1.362,5.944-0.52,7.238c0.831,1.295,3.39,1.95,7.669,1.95h15.083l-3.767,10.28H207.929L207.929,175.02z
			 M289.063,107.836h26.715c4.511,0,8.001,0.266,10.497,0.796c2.482,0.53,4.303,1.388,5.469,2.542
			c1.949,1.95,3.027,4.493,3.227,7.659c0.217,3.151-0.436,6.785-1.938,10.887c-1.477,4.024-3.295,7.471-5.469,10.357
			c-2.172,2.886-4.738,5.256-7.719,7.16c-2.482,1.544-5.076,2.651-7.802,3.307c-2.728,0.654-6.639,0.982-11.762,0.982h-14.933
			l-8.609,23.491h-12.297L289.063,107.836L289.063,107.836z M311.225,119.817H296.97l-7.265,19.825h15.001
			c3.723,0,6.779-0.811,9.187-2.45c2.4-1.621,4.213-4.118,5.442-7.471c1.315-3.587,1.364-6.131,0.151-7.643
			C318.275,120.565,315.519,119.817,311.225,119.817L311.225,119.817z M341.854,125.713h19.064c4.455,0,7.244,0.92,8.363,2.76
			s0.834,5.069-0.848,9.656l-3.018,8.236h-10.83l2.326-6.348c0.703-1.918,0.879-3.213,0.521-3.868
			c-0.359-0.656-1.598-0.983-3.719-0.983h-3.98l-14.605,39.854h-11.346L341.854,125.713L341.854,125.713z M380.164,150.388
			c-1.721,4.696-2.107,8.347-1.152,10.967c0.943,2.62,3.141,3.932,6.564,3.932c3.383,0,6.539-1.312,9.43-3.932
			c2.904-2.62,5.205-6.271,6.928-10.967c1.719-4.694,2.092-8.344,1.131-10.949c-0.975-2.604-3.176-3.899-6.588-3.899
			c-3.396,0-6.541,1.31-9.43,3.93C384.17,142.09,381.873,145.725,380.164,150.388L380.164,150.388z M413.836,150.388
			c-2.836,7.738-7.15,13.915-12.947,18.533c-5.781,4.616-12.158,6.925-19.115,6.925c-6.943,0-11.643-2.309-14.088-6.942
			c-2.447-4.632-2.248-10.809,0.576-18.516c2.836-7.736,7.17-13.928,13.018-18.577s12.244-6.973,19.188-6.973
			c6.902,0,11.568,2.325,13.996,6.973C416.877,136.46,416.672,142.652,413.836,150.388L413.836,150.388z M444.104,164.459
			l10.297-28.093h-6.85c-4.594,0-8.258,1.107-10.994,3.306c-2.729,2.215-5.043,5.896-6.93,11.044
			c-1.828,4.991-2.242,8.533-1.236,10.606c1.002,2.09,3.646,3.136,7.955,3.136H444.104L444.104,164.459z M451.541,175.02h-21.783
			c-6.576,0-10.896-2.23-12.963-6.677c-2.053-4.445-1.631-10.637,1.283-18.593c1.195-3.26,2.674-6.255,4.447-8.984
			c1.775-2.73,3.854-5.209,6.244-7.472c2.857-2.714,5.795-4.648,8.846-5.818c3.037-1.169,6.693-1.762,10.975-1.762h9.715
			l6.551-17.877h11.307L451.541,175.02L451.541,175.02z M500.309,175.02h-21.375c-6.291,0-10.316-1.436-12.07-4.29
			c-1.748-2.87-1.467-7.457,0.842-13.758l11.457-31.258h11.305l-11.072,30.214c-1.205,3.29-1.504,5.475-0.918,6.582
			c0.592,1.092,2.377,1.639,5.352,1.639h9.117l14.086-38.435h11.346L500.309,175.02L500.309,175.02z M537.77,164.459h12.066
			l-3.871,10.56h-15.408c-3.9,0-6.936-0.467-9.098-1.389c-2.172-0.936-3.811-2.433-4.898-4.508c-1.174-2.246-1.711-5.008-1.65-8.252
			s0.748-6.675,2.074-10.295c1.395-3.805,3.256-7.363,5.582-10.668c2.326-3.308,4.906-6.084,7.742-8.298
			c2.635-2.075,5.398-3.573,8.283-4.509c2.865-0.919,6.215-1.387,10.035-1.387h15.408l-3.904,10.654h-12.066
			c-5.326,0-9.398,1.06-12.188,3.181c-2.795,2.106-5.148,5.787-7.07,11.028c-1.104,3.01-1.609,5.506-1.508,7.487
			c0.09,1.981,0.783,3.573,2.064,4.789c0.639,0.594,1.469,0.998,2.504,1.248C532.908,164.334,534.875,164.459,537.77,164.459
			L537.77,164.459z M567.27,125.713h8.004l6.551-17.877h11.348l-6.553,17.877h11.986l-3.602,9.827h-11.986l-7.299,19.919
			c-1.338,3.65-1.727,6.192-1.16,7.612c0.568,1.419,2.213,2.121,4.916,2.121h4.662l-3.602,9.828h-10.354
			c-4.186,0-6.922-1.326-8.172-3.993c-1.252-2.667-0.965-6.489,0.854-11.45l8.809-24.037h-8.004L567.27,125.713L567.27,125.713z
			 M590.309,164.74h23.914c2.121,0,3.807-0.375,5.051-1.138c1.246-0.765,2.18-1.981,2.799-3.665
			c0.611-1.669,0.572-2.902-0.125-3.667c-0.705-0.78-2.1-1.169-4.191-1.169h-9.797c-5.801,0-9.357-1.014-10.66-3.058
			c-1.291-2.042-0.977-5.677,0.932-10.887c1.943-5.304,4.609-9.204,7.984-11.7c3.387-2.496,7.662-3.743,12.84-3.743h24.363
			l-3.766,10.279h-20.031c-3.26,0-5.5,0.327-6.732,0.983c-1.219,0.655-2.137,1.825-2.748,3.494
			c-0.561,1.529-0.537,2.651,0.057,3.369c0.607,0.718,1.834,1.076,3.682,1.076h10.273c4.701,0,7.826,1.263,9.365,3.775
			c1.553,2.511,1.457,6.146-0.281,10.888c-1.676,4.571-4.137,8.283-7.375,11.153c-3.234,2.854-6.586,4.29-10.037,4.29h-29.283
			L590.309,164.74L590.309,164.74z"/>
		<path fill="#FFFFFF" d="M23.232,176.547c-10.014,0-16.425-2.929-19.054-8.704c-2.607-5.762-1.655-14.89,2.831-27.13
			c4.223-11.524,9.841-20.215,16.698-25.831c6.881-5.626,15.343-8.479,25.151-8.479c9.916,0,16.301,2.897,18.979,8.61
			c2.681,5.688,1.834,14.59-2.516,26.46c-4.342,11.849-10.014,20.749-16.857,26.454C41.616,173.646,33.126,176.547,23.232,176.547z
			 M48.859,106.619c-9.757,0-18.173,2.836-25.015,8.43c-6.827,5.591-12.422,14.25-16.632,25.738
			c-4.466,12.186-5.421,21.258-2.838,26.967c2.591,5.691,8.936,8.577,18.857,8.577c9.842,0,18.286-2.883,25.094-8.569
			c6.814-5.68,12.464-14.55,16.793-26.362c4.33-11.814,5.179-20.66,2.523-26.294C65.003,109.474,58.683,106.619,48.859,106.619z
			 M381.773,175.954c-6.96,0-11.732-2.355-14.184-7c-2.447-4.633-2.256-10.892,0.57-18.603c2.832-7.725,7.224-13.991,13.052-18.624
			c5.841-4.643,12.318-6.997,19.255-6.997c6.914,0,11.655,2.366,14.092,7.031c2.42,4.659,2.211,10.938-0.621,18.664
			c-2.83,7.721-7.197,13.973-12.981,18.58C395.182,173.616,388.728,175.954,381.773,175.954z M400.467,124.946
			c-6.886,0-13.319,2.338-19.12,6.95c-5.797,4.608-10.166,10.843-12.983,18.529c-2.804,7.651-3,13.852-0.582,18.428
			c2.411,4.568,7.118,6.884,13.992,6.884c6.904,0,13.313-2.321,19.048-6.901c5.753-4.583,10.098-10.802,12.913-18.485
			c2.811-7.666,3.023-13.887,0.633-18.49C411.971,127.273,407.294,124.946,400.467,124.946z M615.824,175.128h-29.438l0.053-0.146
			l3.794-10.351h23.989c2.101,0,3.781-0.377,4.994-1.122c1.223-0.751,2.149-1.966,2.754-3.61c0.597-1.63,0.563-2.827-0.104-3.557
			c-0.681-0.752-2.063-1.134-4.111-1.134h-9.797c-5.819,0-9.437-1.045-10.751-3.108c-1.303-2.062-0.993-5.756,0.921-10.982
			c1.94-5.294,4.639-9.248,8.021-11.75c3.39-2.498,7.731-3.764,12.904-3.764h24.518l-0.053,0.145l-3.792,10.35h-20.106
			c-3.224,0-5.472,0.327-6.682,0.97c-1.188,0.639-2.097,1.795-2.697,3.436c-0.542,1.479-0.529,2.577,0.038,3.263
			c0.582,0.688,1.793,1.037,3.599,1.037h10.273c4.72,0,7.901,1.288,9.457,3.827c1.563,2.529,1.473,6.224-0.271,10.981
			c-1.67,4.555-4.161,8.322-7.405,11.197C622.687,173.675,619.286,175.128,615.824,175.128z M586.695,174.911h29.129
			c3.407,0,6.761-1.434,9.966-4.263c3.216-2.85,5.688-6.588,7.345-11.109c1.721-4.692,1.818-8.324,0.291-10.794
			c-1.514-2.471-4.634-3.724-9.273-3.724h-10.273c-1.872,0-3.139-0.375-3.764-1.114c-0.621-0.75-0.646-1.919-0.076-3.476
			c0.62-1.692,1.562-2.888,2.799-3.552c1.241-0.661,3.523-0.996,6.783-0.996h19.956l3.687-10.063h-24.209
			c-5.126,0-9.425,1.252-12.775,3.722c-3.349,2.476-6.022,6.396-7.947,11.65c-1.89,5.16-2.207,8.791-0.941,10.792
			c1.271,1.996,4.827,3.008,10.568,3.008h9.797c2.111,0,3.549,0.405,4.271,1.205c0.724,0.793,0.773,2.064,0.146,3.776
			c-0.622,1.692-1.579,2.943-2.844,3.72c-1.248,0.766-2.966,1.154-5.107,1.154h-23.839L586.695,174.911z M580.61,175.128h-10.429
			c-4.227,0-7.009-1.365-8.27-4.056c-1.259-2.681-0.973-6.561,0.85-11.533l8.756-23.892h-8.004l0.053-0.145l3.628-9.898h8.004
			l6.551-17.877h11.577l-0.053,0.145l-6.5,17.732h11.986l-0.053,0.145l-3.628,9.898h-11.986l-7.272,19.849
			c-1.324,3.612-1.715,6.147-1.161,7.535c0.545,1.362,2.165,2.053,4.815,2.053h4.816l-0.053,0.145L580.61,175.128z M563.822,135.432
			h8.004l-0.053,0.145l-8.809,24.037c-1.802,4.916-2.091,8.74-0.857,11.367c1.223,2.608,3.939,3.931,8.074,3.931h10.278l3.522-9.611
			h-4.508c-2.747,0-4.435-0.736-5.017-2.188c-0.573-1.438-0.184-4.025,1.159-7.689l7.325-19.99h11.986l3.522-9.611h-11.986
			l0.053-0.145l6.5-17.732h-11.118l-6.551,17.877h-8.004L563.822,135.432z M546.04,175.128h-15.483c-3.891,0-6.966-0.471-9.14-1.397
			c-2.197-0.946-3.862-2.479-4.952-4.557c-1.164-2.229-1.724-5.022-1.663-8.304c0.062-3.251,0.761-6.727,2.081-10.33
			c1.392-3.797,3.274-7.396,5.596-10.693c2.339-3.326,4.95-6.125,7.764-8.321c2.618-2.063,5.417-3.586,8.316-4.527
			c2.88-0.924,6.267-1.393,10.068-1.393h15.563l-0.053,0.145l-3.931,10.725h-12.142c-5.287,0-9.365,1.063-12.122,3.159
			c-2.759,2.079-5.125,5.772-7.034,10.979c-1.097,2.99-1.602,5.495-1.502,7.445c0.088,1.934,0.771,3.52,2.031,4.716
			c0.614,0.571,1.418,0.971,2.455,1.221c1.049,0.237,3.026,0.357,5.877,0.357h12.221l-0.053,0.145L546.04,175.128z M548.627,125.821
			c-3.779,0-7.145,0.465-10.002,1.382c-2.875,0.933-5.65,2.444-8.25,4.491c-2.796,2.183-5.394,4.967-7.721,8.275
			c-2.31,3.283-4.184,6.864-5.568,10.644c-1.312,3.581-2.008,7.032-2.067,10.26c-0.061,3.245,0.49,6.004,1.638,8.2
			c1.065,2.032,2.696,3.532,4.846,4.458c2.146,0.916,5.193,1.38,9.055,1.38h15.333l3.792-10.344H537.77
			c-2.866,0-4.859-0.122-5.926-0.362c-1.076-0.259-1.911-0.676-2.554-1.274c-1.303-1.236-2.009-2.872-2.099-4.863
			c-0.102-1.978,0.407-4.512,1.514-7.529c1.924-5.247,4.315-8.974,7.106-11.078c2.795-2.125,6.917-3.203,12.253-3.203h11.991
			l3.825-10.438H548.627z M500.384,175.128h-21.45c-6.3,0-10.393-1.461-12.162-4.342c-1.758-2.886-1.478-7.546,0.832-13.852
			l11.483-31.329h11.534l-0.053,0.145l-11.072,30.214c-1.184,3.231-1.494,5.416-0.924,6.495c0.568,1.049,2.337,1.581,5.256,1.581
			h9.042l14.086-38.435h11.575l-0.053,0.145L500.384,175.128z M479.237,125.821l-11.431,31.188
			c-2.286,6.241-2.573,10.839-0.852,13.665c1.729,2.812,5.759,4.238,11.979,4.238h21.3l17.989-49.09h-11.116l-14.086,38.435h-9.192
			c-3.047,0-4.828-0.554-5.446-1.695c-0.609-1.151-0.312-3.333,0.911-6.67l11.02-30.069H479.237z M451.616,175.128h-21.858
			c-6.588,0-10.982-2.268-13.061-6.74c-2.058-4.456-1.628-10.739,1.279-18.676c1.198-3.268,2.698-6.298,4.458-9.006
			c1.758-2.703,3.864-5.223,6.261-7.491c2.852-2.708,5.84-4.674,8.881-5.84c3.05-1.174,6.755-1.77,11.014-1.77h9.64l6.551-17.877
			h11.536l-0.053,0.145L451.616,175.128z M448.59,125.821c-4.232,0-7.911,0.59-10.936,1.755c-3.016,1.157-5.979,3.107-8.811,5.796
			c-2.385,2.257-4.479,4.764-6.228,7.452c-1.751,2.695-3.244,5.71-4.437,8.963c-2.887,7.881-3.319,14.109-1.287,18.511
			c2.04,4.389,6.368,6.614,12.865,6.614h21.708l24.542-66.967h-11.077l-6.551,17.877H448.59z M335.204,175.128h-11.575l0.053-0.146
			l18.097-49.377h19.14c4.476,0,7.32,0.946,8.455,2.812c1.133,1.862,0.851,5.143-0.838,9.749l-3.044,8.307h-11.06l0.053-0.145
			l2.326-6.348c0.69-1.884,0.868-3.156,0.528-3.779c-0.337-0.615-1.557-0.927-3.624-0.927h-3.905L335.204,175.128z M323.938,174.911
			h11.116l14.605-39.854h4.056c2.183,0,3.431,0.34,3.813,1.04c0.377,0.69,0.208,1.984-0.515,3.957l-2.273,6.203h10.601l2.991-8.165
			c1.665-4.542,1.953-7.759,0.857-9.563c-1.094-1.797-3.876-2.708-8.271-2.708h-18.989L323.938,174.911z M276.815,175.128h-12.527
			l0.053-0.146l24.647-67.254h26.79c4.488,0,8.027,0.269,10.52,0.799c2.475,0.528,4.333,1.394,5.522,2.571
			c1.963,1.963,3.059,4.564,3.258,7.729c0.217,3.14-0.438,6.818-1.943,10.931c-1.474,4.016-3.318,7.51-5.484,10.385
			c-2.151,2.859-4.757,5.277-7.747,7.186c-2.499,1.555-5.134,2.672-7.834,3.321c-2.726,0.654-6.692,0.985-11.787,0.985h-14.858
			L276.815,175.128z M264.597,174.911h12.067l8.609-23.491h15.009c5.079,0,9.027-0.33,11.736-0.979
			c2.678-0.644,5.292-1.752,7.77-3.294c2.966-1.895,5.553-4.295,7.69-7.133c2.152-2.858,3.987-6.333,5.453-10.33
			c1.496-4.084,2.146-7.732,1.932-10.843c-0.196-3.112-1.271-5.665-3.195-7.59c-1.159-1.147-2.981-1.993-5.415-2.513
			c-2.478-0.527-6.001-0.794-10.475-0.794h-26.639L264.597,174.911z M224.567,175.128h-16.639c-7.121,0-11.815-2.119-13.953-6.298
			c-2.137-4.153-1.713-10.37,1.258-18.479c2.959-8.075,7.089-14.288,12.275-18.468c5.196-4.166,11.417-6.278,18.489-6.278h16.718
			l-3.846,10.495h-15.09c-4.067,0-7.088,0.67-8.978,1.992c-1.852,1.304-3.483,3.683-4.849,7.073h25.595l-3.846,10.494h-25.598
			c-1.147,3.446-1.318,5.825-0.507,7.071c0.809,1.262,3.359,1.901,7.579,1.901h15.238L224.567,175.128z M225.999,125.821
			c-7.022,0-13.197,2.096-18.354,6.231c-5.154,4.154-9.262,10.336-12.207,18.374c-2.95,8.049-3.377,14.208-1.269,18.306
			c2.097,4.101,6.727,6.18,13.76,6.18h16.488l3.688-10.063h-14.928c-4.298,0-6.909-0.673-7.76-2
			c-0.867-1.332-0.701-3.73,0.508-7.331l0.025-0.074h25.603l3.688-10.063h-25.604l0.059-0.148c1.395-3.508,3.072-5.971,4.985-7.318
			c1.927-1.348,4.989-2.031,9.102-2.031h14.939l3.688-10.063H225.999z M181.356,175.128h-15.484c-3.89,0-6.965-0.471-9.141-1.397
			c-2.196-0.946-3.862-2.479-4.951-4.557c-1.165-2.23-1.724-5.024-1.662-8.304c0.062-3.255,0.762-6.731,2.08-10.33
			c1.394-3.802,3.276-7.4,5.595-10.693c2.34-3.328,4.952-6.127,7.764-8.321c2.619-2.063,5.417-3.586,8.316-4.527
			c2.879-0.924,6.266-1.393,10.067-1.393h15.563l-3.984,10.87H183.38c-5.287,0-9.365,1.063-12.121,3.159
			c-2.76,2.079-5.127,5.773-7.035,10.979c-1.097,2.994-1.602,5.499-1.501,7.444c0.087,1.933,0.771,3.52,2.03,4.716
			c0.614,0.571,1.418,0.971,2.456,1.221c1.049,0.237,3.027,0.357,5.876,0.357h12.221L181.356,175.128z M183.942,125.821
			c-3.779,0-7.144,0.465-10.001,1.382c-2.875,0.933-5.65,2.444-8.25,4.491c-2.795,2.181-5.393,4.966-7.721,8.275
			c-2.308,3.278-4.182,6.859-5.569,10.644c-1.311,3.577-2.006,7.028-2.067,10.26c-0.062,3.244,0.489,6.002,1.637,8.2
			c1.066,2.032,2.696,3.532,4.845,4.458c2.147,0.916,5.194,1.38,9.055,1.38h15.333l3.791-10.344h-11.911
			c-2.865,0-4.859-0.122-5.926-0.362c-1.076-0.259-1.911-0.676-2.554-1.274c-1.303-1.237-2.008-2.873-2.098-4.863
			c-0.102-1.975,0.407-4.508,1.514-7.529c1.923-5.246,4.314-8.973,7.108-11.078c2.794-2.125,6.917-3.203,12.251-3.203h11.99
			l3.825-10.438H183.942z M136.094,175.128H123.96l0.053-0.146l18.096-49.377h12.133l-0.053,0.145L136.094,175.128z M124.27,174.911
			h11.673l17.99-49.09h-11.673L124.27,174.911z M107.872,175.128H95.901l0.053-0.146l14.415-39.334h-8.167l3.681-10.043h8.167
			l1.837-5.015c1.835-5.008,3.919-8.446,6.195-10.218c2.266-1.754,5.743-2.644,10.334-2.644h10.903l-3.562,9.716h-5.442
			c-1.917,0-3.419,0.341-4.463,1.012c-1.049,0.667-1.872,1.798-2.446,3.363l-1.387,3.786h10.749l-3.681,10.043H122.34
			L107.872,175.128z M96.211,174.911h11.51l14.468-39.479h10.748l3.522-9.611h-10.749l1.494-4.076
			c0.591-1.611,1.442-2.779,2.532-3.471c1.079-0.694,2.62-1.046,4.58-1.046h5.292l3.403-9.284h-10.594
			c-4.543,0-7.975,0.875-10.202,2.599c-2.242,1.747-4.303,5.152-6.124,10.122l-1.89,5.157h-8.167l-3.522,9.611h8.167l-0.053,0.145
			L96.211,174.911z M75.912,175.128h-11.97l0.053-0.146l14.415-39.334h-8.167l3.681-10.043h8.166l1.838-5.015
			c1.835-5.007,3.918-8.445,6.194-10.218c2.266-1.754,5.743-2.644,10.335-2.644h10.903l-3.561,9.716h-5.442
			c-1.918,0-3.42,0.341-4.463,1.012c-1.05,0.667-1.872,1.798-2.445,3.363l-1.388,3.786h10.749l-3.681,10.043H90.381L75.912,175.128z
			 M64.251,174.911h11.51l14.469-39.479h10.748l3.522-9.611H93.752l1.494-4.076c0.59-1.611,1.442-2.778,2.532-3.471
			c1.079-0.694,2.62-1.046,4.58-1.046h5.292l3.402-9.284h-10.594c-4.542,0-7.975,0.875-10.203,2.599
			c-2.242,1.747-4.303,5.153-6.123,10.122l-1.891,5.157h-8.166l-3.522,9.611h8.167l-0.053,0.145L64.251,174.911z M385.576,165.395
			c-3.467,0-5.71-1.347-6.666-4.003c-0.957-2.626-0.569-6.341,1.152-11.041c1.703-4.647,4.028-8.335,6.911-10.961
			c2.896-2.626,6.094-3.958,9.503-3.958c3.453,0,5.703,1.335,6.689,3.969c0.968,2.624,0.587,6.333-1.131,11.024
			c-1.723,4.695-4.063,8.399-6.957,11.01C392.18,164.063,388.982,165.395,385.576,165.395z M396.477,135.648
			c-3.354,0-6.502,1.313-9.357,3.902c-2.856,2.602-5.163,6.261-6.854,10.875c-1.704,4.651-2.092,8.315-1.152,10.893
			c0.922,2.562,3.097,3.861,6.463,3.861c3.352,0,6.499-1.313,9.357-3.904c2.867-2.587,5.188-6.263,6.898-10.924
			c1.7-4.642,2.08-8.301,1.131-10.875C402.013,136.936,399.83,135.648,396.477,135.648z M27.485,164.941
			c-5.461,0-8.801-1.973-9.927-5.865c-1.128-3.85-0.161-10.002,2.875-18.287c2.792-7.618,6.231-13.399,10.224-17.184
			c3.993-3.776,8.698-5.691,13.983-5.691c5.378,0,8.718,1.946,9.928,5.783c1.183,3.829,0.304,9.804-2.611,17.76
			c-2.909,7.938-6.4,13.897-10.375,17.713C37.578,163,32.835,164.941,27.485,164.941z M44.64,118.131
			c-5.229,0-9.883,1.895-13.835,5.632c-3.967,3.76-7.389,9.514-10.169,17.101c-3.02,8.24-3.985,14.348-2.871,18.152
			c1.096,3.788,4.366,5.709,9.72,5.709c5.292,0,9.985-1.921,13.947-5.71c3.952-3.792,7.424-9.725,10.322-17.631
			c2.899-7.911,3.777-13.839,2.608-17.621C53.184,120.026,49.913,118.131,44.64,118.131z M444.179,164.567h-7.833
			c-4.326,0-7.035-1.076-8.053-3.197c-1.014-2.091-0.6-5.688,1.232-10.69c1.883-5.137,4.226-8.868,6.963-11.091
			c2.75-2.21,6.472-3.33,11.063-3.33h7.004l-0.053,0.145L444.179,164.567z M447.551,136.475c-4.54,0-8.217,1.104-10.927,3.282
			c-2.706,2.198-5.026,5.897-6.896,10.997c-1.812,4.945-2.229,8.485-1.241,10.522c0.979,2.041,3.622,3.076,7.858,3.076h7.683
			l10.218-27.877H447.551z M304.707,139.75h-15.156l7.344-20.041h14.33c4.376,0,7.106,0.753,8.346,2.302
			c1.232,1.537,1.188,4.143-0.134,7.748c-1.234,3.369-3.079,5.9-5.483,7.523C311.548,138.919,308.436,139.75,304.707,139.75z
			 M289.86,139.534h14.846c3.686,0,6.756-0.818,9.126-2.431c2.366-1.598,4.183-4.094,5.401-7.419
			c1.293-3.528,1.35-6.065,0.168-7.539c-1.179-1.474-3.93-2.221-8.177-2.221h-14.179L289.86,139.534z M156.221,120.205h-12.133
			l4.567-12.461h12.134L156.221,120.205z M144.398,119.989h11.672l4.409-12.03h-11.673L144.398,119.989z"/>
	</g>
	<g>
		<polygon fill-rule="evenodd" clip-rule="evenodd" fill="#ED1C24" points="3.188,188.717 642.486,188.717 642.486,226.602 
			3.188,226.602 3.188,188.717 		"/>
	</g>
	<g>
		<path fill-rule="evenodd" clip-rule="evenodd" fill="#FFFFFF" d="M234.653,202.205l-4.303,8.203h8.604L234.653,202.205
			L234.653,202.205z M231.959,199.021h5.426l10.634,18.906h-5.148l-2.6-4.891h-11.264l-2.532,4.891h-5.032L231.959,199.021
			L231.959,199.021z M250.999,199.021h5.117L269.6,213.17v-14.148h4.655v18.906h-5.072l-13.56-14.146v14.146h-4.623V199.021
			L250.999,199.021z M285.123,201.705v13.436h5.92c2.869,0,4.981-0.559,6.332-1.682c1.359-1.123,2.038-2.859,2.038-5.209
			c0-2.141-0.679-3.762-2.046-4.873c-1.358-1.113-3.363-1.672-5.997-1.672H285.123L285.123,201.705z M280.384,199.021h11.188
			c4.243,0,7.43,0.783,9.561,2.355c2.129,1.572,3.195,3.916,3.195,7.037c0,3.057-1.165,5.406-3.498,7.049
			c-2.332,1.645-5.685,2.465-10.063,2.465h-10.383V199.021L280.384,199.021z M332.891,197.713v7.459h7.816
			c2.432,0,4.176-0.289,5.215-0.865c1.041-0.58,1.561-1.521,1.561-2.842c0-1.293-0.52-2.24-1.551-2.85
			c-1.033-0.602-2.658-0.902-4.883-0.902H332.891L332.891,197.713z M326.869,194.295h13.787c2.223,0,3.873,0.066,4.947,0.203
			c1.074,0.131,2.037,0.355,2.885,0.662c1.66,0.58,2.91,1.408,3.766,2.498c0.846,1.084,1.273,2.387,1.273,3.904
			c0,1.256-0.35,2.371-1.057,3.363c-0.705,0.986-1.727,1.807-3.068,2.459c-0.922,0.443-1.996,0.756-3.221,0.947
			c-1.232,0.193-2.928,0.291-5.09,0.291h-8.201v9.305h-6.021V194.295L326.869,194.295z M363.35,201.678v5.816h6.9
			c2.02,0,3.463-0.229,4.344-0.695c0.881-0.459,1.316-1.209,1.316-2.246c0-1.006-0.428-1.74-1.291-2.195
			c-0.855-0.455-2.273-0.68-4.252-0.68H363.35L363.35,201.678z M358.609,199.021h12.486c0.377,0,0.799,0.012,1.258,0.027
			c0.145,0.006,0.227,0.012,0.254,0.012c2.557,0,4.553,0.465,6.004,1.402c1.449,0.93,2.17,2.213,2.17,3.85
			c0,1.068-0.359,1.982-1.08,2.744s-1.746,1.309-3.063,1.643c1.176,0.252,2.021,0.641,2.543,1.178
			c0.52,0.531,0.82,1.402,0.914,2.607l0.25,2.713c0,0.004,0,0.014,0,0.025c0.084,1.178,0.479,1.896,1.199,2.154v0.551h-5.383
			c-0.209-0.246-0.369-0.541-0.477-0.881c-0.111-0.334-0.193-0.871-0.244-1.609l-0.16-2.258c-0.102-1.215-0.494-2.02-1.166-2.426
			c-0.678-0.4-1.818-0.604-3.43-0.604h-0.932h-6.363v7.777h-4.781V199.021L358.609,199.021z M386.34,199.021h4.84v18.906h-4.84
			V199.021L386.34,199.021z M397.451,199.021h5.115l13.486,14.148v-14.148h4.652v18.906h-5.072l-13.559-14.146v14.146h-4.623
			V199.021L397.451,199.021z M424.129,199.021h22.615v2.771h-8.881v16.135h-4.795v-16.135h-8.939V199.021L424.129,199.021z
			 M450.342,199.021h4.838v18.906h-4.838V199.021L450.342,199.021z M461.451,199.021h5.117l13.484,14.148v-14.148h4.654v18.906
			h-5.072l-13.561-14.146v14.146h-4.623V199.021L461.451,199.021z M515.777,204.811h-4.779c-0.361-1.123-1.193-1.992-2.484-2.623
			c-1.291-0.629-2.9-0.941-4.846-0.941c-2.893,0-5.141,0.623-6.734,1.879c-1.602,1.254-2.396,3.018-2.396,5.295
			c0,2.23,0.803,3.988,2.414,5.275c1.609,1.281,3.814,1.922,6.6,1.922c2.373,0,4.293-0.477,5.77-1.434
			c1.475-0.959,2.256-2.242,2.348-3.852h-7.924v-2.607h12.367v10.203h-3.184l-0.807-2.387c-1.072,0.947-2.381,1.664-3.908,2.152
			c-1.535,0.486-3.262,0.734-5.189,0.734c-4.002,0-7.238-0.916-9.721-2.74c-2.48-1.828-3.725-4.227-3.725-7.195
			c0-3.029,1.252-5.443,3.758-7.252c2.5-1.803,5.838-2.705,10.021-2.705c3.488,0,6.324,0.553,8.512,1.652
			C514.057,201.295,515.357,202.834,515.777,204.811L515.777,204.811z M522.746,213.82h6.096v4.207c0,1.357-0.518,2.465-1.561,3.318
			c-1.039,0.861-2.557,1.424-4.535,1.705v-1.705c0.947-0.125,1.719-0.459,2.297-0.996c0.578-0.531,0.871-1.166,0.871-1.889
			c0-0.012-0.006-0.078-0.023-0.193c-0.018-0.119-0.025-0.23-0.025-0.34h-3.119V213.82L522.746,213.82z M550.723,194.295h6.045
			v23.633h-6.045V194.295L550.723,194.295z M563.844,199.021h5.117l13.484,14.148v-14.148h4.654v18.906h-5.072l-13.561-14.146
			v14.146h-4.623V199.021L563.844,199.021z M617.658,204.938h-4.764c-0.26-1.139-1.031-2.021-2.305-2.65
			c-1.275-0.631-2.953-0.943-5.025-0.943c-2.758,0-4.896,0.613-6.404,1.836c-1.518,1.227-2.273,2.951-2.273,5.186
			c0,2.252,0.762,4.021,2.297,5.313c1.535,1.293,3.631,1.939,6.305,1.939c2.123,0,3.877-0.41,5.26-1.227
			c1.385-0.816,2.146-1.9,2.307-3.242h4.721c-0.117,2.141-1.344,3.895-3.664,5.258c-2.322,1.363-5.268,2.049-8.814,2.049
			c-4.125,0-7.381-0.889-9.762-2.656c-2.373-1.77-3.563-4.207-3.563-7.307c0-3.127,1.207-5.57,3.613-7.328
			c2.416-1.754,5.77-2.629,10.064-2.629c3.488,0,6.289,0.568,8.418,1.709C616.199,201.377,617.398,202.943,617.658,204.938
			L617.658,204.938z M623.367,213.787h6.096v4.141h-6.096V213.787L623.367,213.787z"/>
	</g>
	<g>
		<path fill-rule="evenodd" clip-rule="evenodd" fill="#A7A9AC" d="M510.412,253.549c-2.068,12.084-12.674,19.539-27.158,24.889
			c8.73-12.082,13.256-25.068,8.535-40.039C506.791,238.158,512.998,243.209,510.412,253.549L510.412,253.549z"/>
		<path d="M483.341,278.672l-0.29-0.381c10.001-13.84,12.702-26.492,8.5-39.817l-0.101-0.32l0.335-0.005
			c8.854-0.151,14.757,1.592,17.537,5.152c1.966,2.518,2.414,5.985,1.332,10.309C508.79,264.509,500.109,272.479,483.341,278.672z
			 M492.127,238.644c4.044,13.157,1.438,25.664-8.193,39.272c16.083-6.083,24.425-13.852,26.232-24.409
			c1.046-4.185,0.628-7.509-1.237-9.898c-2.574-3.297-8.001-4.968-16.132-4.968C492.576,238.641,492.353,238.642,492.127,238.644z"
			/>
	</g>
	<g>
		<path fill-rule="evenodd" clip-rule="evenodd" fill="#A7A9AC" d="M394.072,335.965c13.721-5.027,23.801-14.385,29.482-28.967
			c14.041,7.1,27.609,3.129,42.045-4.828C451.309,323.035,429.813,339.615,394.072,335.965L394.072,335.965z"/>
		<path d="M403.747,336.722c-3.139,0-6.402-0.171-9.7-0.508l-0.061-0.483c14.015-5.136,23.884-14.833,29.335-28.823l0.101-0.257
			l0.246,0.124c4.88,2.468,9.802,3.668,15.045,3.668c7.857,0,16.112-2.619,26.766-8.491l0.327,0.36
			C449.947,325.466,429.647,336.722,403.747,336.722z M395.167,335.819c2.917,0.267,5.798,0.401,8.58,0.401
			c25.398,0,45.378-10.903,61.047-33.326c-10.287,5.561-18.364,8.048-26.081,8.048c-5.235,0-10.154-1.178-15.025-3.598
			C418.295,321,408.703,330.575,395.167,335.819z"/>
	</g>
	<g>
		<path fill-rule="evenodd" clip-rule="evenodd" fill="#D1D3D4" d="M509.637,257.518c-17.33,48.094-58.971,78.633-101.646,78.633
			c38.281-6.668,58.066-32.52,69.445-67.092C492.824,273.389,503.557,269.541,509.637,257.518L509.637,257.518z"/>
		<path d="M407.99,336.4l-0.043-0.496c34.178-5.953,56.183-27.219,69.251-66.924l0.074-0.228l0.23,0.065
			c4.033,1.134,7.793,1.71,11.177,1.71h0.001c9.354,0,16.329-4.415,20.732-13.124l0.459,0.198
			C492.889,304.734,451.945,336.4,407.99,336.4z M477.599,269.363c-12.771,38.631-34.01,59.838-66.687,66.49
			c41.715-1.337,80.265-31.21,97.394-75.487c-4.515,7.077-11.104,10.661-19.625,10.662c-0.001,0,0,0-0.001,0
			C485.314,271.028,481.588,270.468,477.599,269.363z"/>
	</g>
	<g>
		<path fill-rule="evenodd" clip-rule="evenodd" fill="#A7A9AC" d="M578.15,249.273c-1.471,8.594-9.012,13.893-19.309,17.697
			c6.207-8.592,9.424-17.824,6.068-28.469C575.576,238.33,579.988,241.922,578.15,249.273L578.15,249.273z"/>
		<path d="M558.929,267.205l-0.29-0.381c7.096-9.82,9.012-18.796,6.033-28.247l-0.101-0.319l0.335-0.006
			c6.334-0.105,10.533,1.139,12.525,3.69c1.412,1.809,1.735,4.295,0.961,7.392C577.063,257.105,570.878,262.79,558.929,267.205z
			 M565.248,238.748c2.822,9.281,0.999,18.11-5.728,27.7c11.264-4.304,17.112-9.788,18.384-17.217
			c0.738-2.958,0.445-5.301-0.866-6.981C575.183,239.873,571.21,238.694,565.248,238.748z"/>
	</g>
	<g>
		<path fill-rule="evenodd" clip-rule="evenodd" fill="#A7A9AC" d="M495.432,307.873c9.756-3.576,16.922-10.229,20.961-20.598
			c9.984,5.049,19.631,2.227,29.895-3.432C536.127,298.68,520.842,310.469,495.432,307.873L495.432,307.873z"/>
		<path d="M502.311,308.483c-2.233,0-4.557-0.122-6.904-0.361l-0.061-0.483c9.944-3.646,16.947-10.527,20.813-20.454l0.101-0.257
			l0.246,0.125c3.46,1.749,6.949,2.601,10.667,2.601c5.573,0,11.432-1.859,18.993-6.028l0.327,0.36
			C535.204,300.47,520.752,308.483,502.311,308.483z M496.521,307.725c1.968,0.172,3.91,0.259,5.789,0.259
			c17.938,0,32.07-7.663,43.17-23.416c-7.197,3.857-12.877,5.586-18.308,5.586c-3.71,0-7.195-0.829-10.647-2.532
			C512.717,297.215,505.991,303.973,496.521,307.725z"/>
	</g>
	<g>
		<path fill-rule="evenodd" clip-rule="evenodd" fill="#D1D3D4" d="M577.598,252.094c-12.32,34.197-41.928,55.91-72.27,55.91
			c27.219-4.74,41.285-23.121,49.375-47.701C565.645,263.379,573.275,260.645,577.598,252.094L577.598,252.094z"/>
		<path d="M505.328,308.254l-0.043-0.496c24.271-4.228,39.898-19.331,49.181-47.533l0.074-0.228l0.23,0.065
			c2.86,0.804,5.526,1.212,7.925,1.212c6.623,0,11.563-3.127,14.679-9.294l0.459,0.198
			C565.749,285.719,536.611,308.254,505.328,308.254z M554.866,260.607c-8.981,27.119-23.84,42.159-46.606,47.08
			c29.104-1.317,55.908-22.153,68.076-52.96c-3.209,4.679-7.785,7.047-13.641,7.047l0,0
			C560.316,261.774,557.684,261.382,554.866,260.607z"/>
	</g>
	<g>
		<path fill-rule="evenodd" clip-rule="evenodd" fill="#A7A9AC" d="M628.85,245.113c-0.93,5.428-5.691,8.775-12.197,11.178
			c3.922-5.426,5.953-11.258,3.834-17.98C627.223,238.203,630.01,240.471,628.85,245.113L628.85,245.113z"/>
		<path d="M616.739,256.525l-0.29-0.381c4.464-6.176,5.671-11.818,3.799-17.759l-0.101-0.32l0.335-0.005
			c4.021-0.083,6.709,0.731,7.985,2.367c0.91,1.165,1.12,2.762,0.624,4.746C628.247,250.113,624.32,253.727,616.739,256.525z
			 M620.823,238.558c1.717,5.77,0.604,11.265-3.495,17.21c6.897-2.688,10.487-6.1,11.275-10.696c0.46-1.846,0.281-3.299-0.529-4.336
			c-1.129-1.445-3.53-2.179-7.137-2.179C620.899,238.557,620.861,238.557,620.823,238.558z"/>
	</g>
	<g>
		<path fill-rule="evenodd" clip-rule="evenodd" fill="#A7A9AC" d="M576.602,282.127c6.162-2.258,10.688-6.461,13.24-13.01
			c6.307,3.189,12.398,1.406,18.883-2.168C602.305,276.32,592.652,283.766,576.602,282.127L576.602,282.127z"/>
		<path d="M580.945,282.604c-1.414,0-2.884-0.077-4.369-0.229l-0.061-0.483c6.253-2.292,10.658-6.62,13.093-12.866l0.101-0.257
			l0.246,0.125c2.172,1.099,4.362,1.633,6.695,1.633c3.503,0,7.189-1.171,11.953-3.797l0.327,0.36
			C601.779,277.529,592.625,282.604,580.945,282.604z M577.684,281.974c1.108,0.087,2.201,0.131,3.262,0.131
			c11.177,0,20.009-4.724,26.969-14.435c-4.398,2.316-7.905,3.357-11.264,3.357c-2.325,0-4.512-0.513-6.676-1.565
			C587.6,275.377,583.469,279.581,577.684,281.974z"/>
	</g>
	<g>
		<path fill-rule="evenodd" clip-rule="evenodd" fill="#D1D3D4" d="M628.5,246.896c-7.781,21.598-26.482,35.314-45.648,35.314
			c17.193-2.996,26.078-14.605,31.188-30.131C620.949,254.023,625.77,252.295,628.5,246.896L628.5,246.896z"/>
		<path d="M582.852,282.461l-0.043-0.496c15.295-2.665,25.143-12.187,30.993-29.963l0.074-0.228l0.23,0.065
			c1.798,0.505,3.474,0.762,4.979,0.762c0.001,0,0.001,0,0.001,0c4.146,0,7.237-1.957,9.19-5.818l0.458,0.198
			C621.09,268.203,602.65,282.461,582.852,282.461z M614.202,252.385c-5.544,16.681-14.616,26.123-28.405,29.47
			c17.705-1.278,33.908-13.983,41.546-32.646c-2.015,2.586-4.782,3.894-8.256,3.894c0,0,0,0-0.001,0
			C617.599,253.102,615.957,252.86,614.202,252.385z"/>
	</g>
</g>
</svg>
