<?xml version="1.0" encoding="utf-8"?>
<!-- Generator: Adobe Illustrator 18.1.1, SVG Export Plug-In . SVG Version: 6.00 Build 0)  -->
<!DOCTYPE svg PUBLIC "-//W3C//DTD SVG 1.1//EN" "http://www.w3.org/Graphics/SVG/1.1/DTD/svg11.dtd">
<svg version="1.1" id="Layer_1" xmlns="http://www.w3.org/2000/svg" xmlns:xlink="http://www.w3.org/1999/xlink" x="0px" y="0px"
	 viewBox="0 0 483.9 229.1" style="enable-background:new 0 0 483.9 229.1;" xml:space="preserve">
<style type="text/css">
	.st0{opacity:0.5;fill:#FFFFFF;}
	.st1{fill:#FFFFFF;}
	.st2{fill-rule:evenodd;clip-rule:evenodd;fill:#FFFFFF;}
</style>
<path class="st0" d="M456.5,102H449V77.6h-4.3v28.7h11.8V102z M434.9,95.5h-3.2l1.6-11.3L434.9,95.5z M435.5,99.7l1,6.6h4.5
	l-4.8-28.7h-5.9l-4.9,28.7h4.5l1.1-6.6H435.5z M421,104.7c1.3-1.3,2-2.9,2-4.8v-4h-4.5v4c0,0.7-0.2,1.3-0.7,1.7
	c-0.5,0.5-1.1,0.7-1.8,0.7c-0.7,0-1.3-0.2-1.7-0.7c-0.5-0.5-0.7-1.1-0.7-1.7V84.1c0-0.7,0.2-1.3,0.7-1.8c0.5-0.5,1.1-0.7,1.7-0.7
	c0.7,0,1.3,0.2,1.8,0.7c0.5,0.5,0.7,1.1,0.7,1.8v3.4h4.5v-3.3c0-1.9-0.7-3.5-2-4.8c-1.3-1.3-2.9-2-4.8-2c-1.9,0-3.5,0.7-4.8,2
	c-1.3,1.3-2,3-2,4.9v15.6c0,1.9,0.7,3.5,2,4.8c1.3,1.3,3,2,4.9,2C418,106.7,419.6,106,421,104.7 M405.4,77.6h-4.3v28.7h4.3V77.6z
	 M381.5,88.3l4.2,18h3.5l3.8-18v18h4.3V77.6h-6l-3.9,20.6l-4-20.6h-6.2v28.7h4.3V88.3z M368.9,99.7c0,0.7-0.2,1.3-0.7,1.7
	c-0.5,0.5-1.1,0.7-1.7,0.7s-1.3-0.2-1.8-0.7c-0.5-0.5-0.7-1.1-0.7-1.7V84c0-0.7,0.2-1.3,0.7-1.7c0.5-0.5,1.1-0.7,1.8-0.7
	s1.3,0.2,1.7,0.7c0.5,0.5,0.7,1.1,0.7,1.7V99.7z M361.7,79.3c-1.3,1.3-2,3-2,4.9v15.6c0,1.9,0.7,3.5,2,4.8c1.3,1.3,2.9,2,4.8,2
	c1.9,0,3.5-0.7,4.8-2c1.3-1.3,2-3,2-4.9V84.1c0-1.9-0.7-3.5-2-4.8c-1.3-1.3-3-2-4.9-2C364.7,77.3,363.1,77.9,361.7,79.3 M341,77.6
	v28.7h4.3V87.9l5.9,18.4h4.6V77.6h-4.3v19.3l-5.7-19.3H341z M332.7,99.7c0,0.7-0.2,1.3-0.7,1.7c-0.5,0.5-1.1,0.7-1.7,0.7
	c-0.7,0-1.3-0.2-1.8-0.7c-0.5-0.5-0.7-1.1-0.7-1.7V84c0-0.7,0.2-1.3,0.7-1.7c0.5-0.5,1.1-0.7,1.8-0.7c0.7,0,1.3,0.2,1.7,0.7
	c0.5,0.5,0.7,1.1,0.7,1.7V99.7z M325.5,79.3c-1.3,1.3-2,3-2,4.9v15.6c0,1.9,0.7,3.5,2,4.8c1.3,1.3,2.9,2,4.8,2c1.9,0,3.5-0.7,4.8-2
	c1.3-1.3,2-3,2-4.9V84.1c0-1.9-0.7-3.5-2-4.8c-1.3-1.3-3-2-4.9-2C328.5,77.3,326.9,77.9,325.5,79.3 M318,104.7c1.3-1.3,2-2.9,2-4.8
	v-4h-4.5v4c0,0.7-0.2,1.3-0.7,1.7c-0.5,0.5-1.1,0.7-1.8,0.7c-0.7,0-1.3-0.2-1.7-0.7c-0.5-0.5-0.7-1.1-0.7-1.7V84.1
	c0-0.7,0.2-1.3,0.7-1.8c0.5-0.5,1.1-0.7,1.7-0.7c0.7,0,1.3,0.2,1.8,0.7c0.5,0.5,0.7,1.1,0.7,1.8v3.4h4.5v-3.3c0-1.9-0.7-3.5-2-4.8
	c-1.3-1.3-2.9-2-4.8-2c-1.9,0-3.5,0.7-4.8,2s-2,3-2,4.9v15.6c0,1.9,0.7,3.5,2,4.8c1.3,1.3,3,2,4.9,2
	C315.1,106.7,316.7,106,318,104.7 M303.4,106.3v-4.3h-8v-7.8h5.8v-4.3h-5.8V82h8v-4.3h-12.3v28.7H303.4z"/>
<path class="st0" d="M483.9,63.4h-7.5V39h-4.3v28.7h11.8V63.4z M462.3,56.9h-3.2l1.6-11.3L462.3,56.9z M463,61.1l1,6.6h4.5L463.7,39
	h-5.9l-4.9,28.7h4.5l1-6.6H463z M434.4,39v28.7h4.3V49.3l5.9,18.4h4.6V39H445v19.3L439.2,39H434.4z M426.1,61.1
	c0,0.7-0.2,1.3-0.7,1.7c-0.5,0.5-1.1,0.7-1.7,0.7c-0.7,0-1.3-0.2-1.8-0.7c-0.5-0.5-0.7-1.1-0.7-1.7V45.4c0-0.7,0.2-1.3,0.7-1.7
	c0.5-0.5,1.1-0.7,1.8-0.7c0.7,0,1.3,0.2,1.7,0.7c0.5,0.5,0.7,1.1,0.7,1.7V61.1z M418.9,40.6c-1.3,1.3-2,3-2,4.9v15.6
	c0,1.9,0.7,3.5,2,4.8c1.3,1.3,2.9,2,4.8,2c1.9,0,3.5-0.7,4.8-2c1.3-1.3,2-3,2-4.9V45.5c0-1.9-0.7-3.5-2-4.8c-1.3-1.3-3-2-4.9-2
	C421.9,38.6,420.3,39.3,418.9,40.6 M413.1,39h-4.3v28.7h4.3V39z M404.5,57.8c-0.2-0.4-0.4-0.9-0.7-1.4c-0.6-1-1.4-2.1-2.5-3.2
	c-0.3-0.3-1-0.9-2-1.8c-0.9-0.7-1.5-1.3-1.9-1.8c-1.1-1.4-1.7-2.7-1.7-4c0-0.8,0.2-1.5,0.5-2.1c0.4-0.7,1-1.1,1.8-1.1
	c0.7,0,1.3,0.2,1.7,0.7c0.5,0.7,0.9,1.6,1,2.7l4.1-0.8c-0.1-1.3-0.4-2.4-0.9-3.3c-0.5-1-1.2-1.7-2.1-2.2c-1.1-0.7-2.4-1-4-1
	c-1.6,0-2.9,0.4-4,1.2c-1.8,1.3-2.6,3.3-2.6,5.9c0,1.5,0.3,2.8,1,4c0.6,1.1,1.6,2.3,3,3.7c1.7,1.6,3,2.8,3.8,3.6
	c1.1,1.2,1.6,2.4,1.6,3.5c0,0.8-0.1,1.5-0.4,1.9c-0.6,0.9-1.3,1.4-2.3,1.4c-0.7,0-1.3-0.2-1.8-0.8c-0.7-0.8-1.1-2-1.3-3.6l-4.1,0.3
	c0.1,1.5,0.4,2.9,0.9,4.1c0.5,1.2,1.3,2.1,2.2,2.8c1.1,0.8,2.5,1.3,4.2,1.3c0.9,0,1.7-0.1,2.4-0.3c1.3-0.4,2.3-1.1,3-2
	c1.1-1.4,1.6-3.1,1.6-5.1C405.2,59.7,404.9,58.8,404.5,57.8 M387.3,57.8c-0.2-0.4-0.4-0.9-0.7-1.4c-0.6-1-1.4-2.1-2.5-3.2
	c-0.3-0.3-1-0.9-2-1.8c-0.9-0.7-1.5-1.3-1.9-1.8c-1.1-1.4-1.7-2.7-1.7-4c0-0.8,0.2-1.5,0.5-2.1c0.4-0.7,1-1.1,1.8-1.1
	c0.7,0,1.3,0.2,1.7,0.7c0.5,0.7,0.9,1.6,1,2.7l4.1-0.8c-0.1-1.3-0.4-2.4-0.9-3.3c-0.5-1-1.2-1.7-2.1-2.2c-1.1-0.7-2.4-1-4-1
	c-1.6,0-2.9,0.4-4,1.2c-1.8,1.3-2.6,3.3-2.6,5.9c0,1.5,0.3,2.8,1,4c0.6,1.1,1.6,2.3,3,3.7c1.7,1.6,3,2.8,3.8,3.6
	c1.1,1.2,1.6,2.4,1.6,3.5c0,0.8-0.1,1.5-0.4,1.9c-0.6,0.9-1.3,1.4-2.3,1.4c-0.7,0-1.3-0.2-1.8-0.8c-0.7-0.8-1.1-2-1.3-3.6l-4.1,0.3
	c0.1,1.5,0.4,2.9,0.9,4.1c0.5,1.2,1.3,2.1,2.2,2.8c1.1,0.8,2.5,1.3,4.2,1.3c0.9,0,1.7-0.1,2.4-0.3c1.3-0.4,2.3-1.1,3-2
	c1.1-1.4,1.6-3.1,1.6-5.1C387.9,59.7,387.7,58.8,387.3,57.8 M370.6,67.7v-4.3h-8v-7.8h5.8v-4.3h-5.8v-7.8h8V39h-12.3v28.7H370.6z
	 M347.4,55.5h5.8v-4.3h-5.8v-7.8h8V39h-12.3v28.7h4.3V55.5z M334.8,61.1c0,0.7-0.2,1.3-0.7,1.7c-0.5,0.5-1.1,0.7-1.7,0.7
	c-0.7,0-1.3-0.2-1.8-0.7c-0.5-0.5-0.7-1.1-0.7-1.7V45.4c0-0.7,0.2-1.3,0.7-1.7c0.5-0.5,1.1-0.7,1.8-0.7c0.7,0,1.3,0.2,1.7,0.7
	c0.5,0.5,0.7,1.1,0.7,1.7V61.1z M327.6,40.6c-1.3,1.3-2,3-2,4.9v15.6c0,1.9,0.7,3.5,2,4.8c1.3,1.3,2.9,2,4.8,2c1.9,0,3.5-0.7,4.8-2
	c1.3-1.3,2-3,2-4.9V45.5c0-1.9-0.7-3.5-2-4.8c-1.3-1.3-3-2-4.9-2C330.5,38.6,328.9,39.3,327.6,40.6 M317.5,50.1
	c0,0.7-0.2,1.3-0.7,1.8c-0.5,0.5-1.1,0.7-1.7,0.7h-2.6v-9.2h2.6c1.6,0,2.5,0.8,2.5,2.5V50.1z M308.1,39v28.7h4.3V56.9h2.5h0.4
	l2.6,10.8h4.7l-3.2-12.5c1.5-1.4,2.3-3.1,2.3-5.1v-4.2c0-2.1-0.5-3.7-1.5-4.8c-1.1-1.3-2.9-2-5.3-2H308.1z M300.5,50.1
	c0,0.7-0.2,1.3-0.7,1.8c-0.5,0.5-1.1,0.7-1.7,0.7h-2.6v-9.2h2.6c0.7,0,1.3,0.2,1.8,0.7c0.4,0.5,0.7,1.1,0.7,1.8V50.1z M291.1,39
	v28.7h4.3V56.9h2.5c1.9,0,3.5-0.7,4.8-2c1.3-1.3,2-3,2-4.8v-4.2c0-2-0.6-3.6-1.7-4.8c-1.3-1.3-2.9-2-5-2H291.1z"/>
<path class="st0" d="M373.3,29h4.3V4.7h4.6V0.4h-13.5v4.3h4.6V29z M361.3,11.5c0,0.7-0.2,1.3-0.7,1.8c-0.5,0.5-1.1,0.7-1.7,0.7h-2.6
	V4.8h2.6c1.6,0,2.5,0.8,2.5,2.5V11.5z M351.9,0.4V29h4.3V18.2h2.5h0.4l2.6,10.8h4.7l-3.2-12.5c1.5-1.4,2.3-3.1,2.3-5.1V7.2
	c0-2.1-0.5-3.7-1.5-4.8c-1.1-1.3-2.9-2-5.3-2H351.9z M342,18.2h-3.2l1.6-11.3L342,18.2z M342.7,22.4l1,6.6h4.5l-4.8-28.7h-5.9
	L332.6,29h4.5l1.1-6.6H342.7z M313.3,11l4.2,18h3.5l3.7-18v18h4.3V0.3h-6l-3.9,20.6l-4-20.6H309V29h4.3V11z M304.7,19.1
	c-0.2-0.4-0.4-0.9-0.7-1.3c-0.6-1-1.4-2.1-2.5-3.2c-0.3-0.3-1-0.9-2-1.8c-0.9-0.7-1.5-1.3-1.9-1.8c-1.1-1.4-1.7-2.7-1.7-4
	c0-0.8,0.2-1.5,0.5-2.1c0.4-0.7,1-1.1,1.8-1.1c0.7,0,1.3,0.2,1.7,0.7c0.5,0.7,0.9,1.6,1,2.7l4.1-0.8c-0.1-1.3-0.4-2.4-0.9-3.3
	S303,1.6,302.1,1c-1.1-0.7-2.4-1-4-1c-1.6,0-2.9,0.4-4,1.2c-1.8,1.3-2.6,3.3-2.6,5.9c0,1.5,0.3,2.8,1,4c0.6,1.1,1.6,2.3,3,3.7
	c1.7,1.6,3,2.8,3.8,3.6c1.1,1.2,1.6,2.4,1.6,3.5c0,0.8-0.1,1.5-0.4,1.9c-0.6,0.9-1.3,1.4-2.3,1.4c-0.7,0-1.3-0.2-1.8-0.8
	c-0.7-0.8-1.1-2-1.3-3.6l-4.1,0.3c0.1,1.5,0.4,2.9,0.9,4.1c0.5,1.2,1.3,2.1,2.2,2.8c1.1,0.8,2.5,1.3,4.2,1.3c0.9,0,1.7-0.1,2.4-0.3
	c1.3-0.4,2.3-1.1,3-2c1.1-1.4,1.6-3.1,1.6-5.1C305.3,21.1,305.1,20.2,304.7,19.1"/>
<path class="st1" d="M247,106.7h16.1V16.2h17V0.1h-50.2v16.2H247V106.7z M161.5,0v106.7h16.1V38.4l22.1,68.3H217V0h-16.1v71.7
	L179.6,0H161.5z M147.1,0.1h-16.1v106.6h16.1V0.1z M98.3,41.3c0,2.6-0.9,4.7-2.7,6.5c-1.8,1.8-4,2.7-6.5,2.7h-9.7V16.5h9.7
	c6.1,0,9.2,3.1,9.2,9.3V41.3z M63.4,0.1v106.6h16.1V66.5h9.3h1.4l9.7,40.1h17.4l-11.9-46.5c5.7-5.2,8.6-11.6,8.6-19.1V25.5
	c0-7.7-1.8-13.7-5.5-18c-4.2-4.9-10.8-7.4-19.7-7.4H63.4z M35,41.3c0,2.6-0.9,4.7-2.7,6.5c-1.8,1.8-4,2.7-6.5,2.7h-9.7V16.5h9.7
	c2.8,0,5,0.9,6.7,2.6c1.7,1.7,2.5,3.9,2.5,6.7V41.3z M0,0.1v106.6h16.1V66.5h9.3c7,0,12.9-2.5,17.8-7.5c4.9-5,7.4-11,7.4-18V25.5
	c0-7.3-2.2-13.3-6.5-18c-4.7-4.9-10.9-7.4-18.7-7.4H0z"/>
<path class="st1" d="M449,152.3h-2.2v2.4h2.2V152.3z M448.6,151.2l0.5-5.4v-4.2h-2.3v4.2l0.4,5.4H448.6z M439.6,157.9
	c0.1,0,0.3,0,0.4,0c0.8,0,1.4-0.2,1.8-0.5c0.4-0.3,0.7-0.9,0.9-1.9l2.6-10.7h-2.3l-1.3,7.1l-1.4-7.1h-2.4l2.5,10.1l0.1,0.3l0,0.3
	c0,0.2-0.1,0.4-0.2,0.5c-0.1,0.1-0.4,0.2-0.7,0.2l-0.2,0l-0.1,0v1.7C439.3,157.9,439.4,157.9,439.6,157.9 M437.1,154.6
	c-0.1-0.2-0.2-0.4-0.3-0.7c-0.1-0.2-0.1-0.5-0.1-0.7v-5.5c0-1.2-0.2-2-0.7-2.4c-0.5-0.5-1.3-0.7-2.5-0.7c-1.2,0-2.1,0.3-2.6,0.8
	c-0.5,0.5-0.8,1.3-0.8,2.4h2.2v-0.2c0-0.5,0.1-0.8,0.3-1c0.2-0.2,0.5-0.3,0.9-0.3c0.3,0,0.6,0.1,0.8,0.3c0.2,0.2,0.3,0.4,0.3,0.7
	c0,0.5-0.4,1-1.3,1.3c-0.2,0.1-0.4,0.2-0.5,0.2c-1.1,0.5-1.8,1-2.2,1.4c-0.4,0.5-0.5,1.1-0.5,1.9c0,0.9,0.2,1.6,0.6,2.1
	c0.4,0.5,1,0.8,1.7,0.8c0.5,0,0.9-0.1,1.3-0.3c0.4-0.2,0.7-0.5,0.9-0.9c0,0.3,0.1,0.5,0.1,0.6c0,0.1,0.1,0.3,0.1,0.3H437.1z
	 M434.6,151.1c0,0.7-0.1,1.2-0.3,1.6c-0.2,0.3-0.5,0.5-0.9,0.5c-0.3,0-0.6-0.1-0.8-0.3c-0.2-0.2-0.2-0.5-0.2-1
	c0-0.5,0.2-0.9,0.5-1.2c0.3-0.3,0.9-0.7,1.7-1.2V151.1z M426.1,154.6h2.2v-13.1H426v4.1c-0.2-0.4-0.4-0.6-0.8-0.8
	c-0.3-0.2-0.7-0.3-1.2-0.3c-0.9,0-1.6,0.4-2,1.1c-0.4,0.8-0.6,2.1-0.6,4.1c0,1.9,0.2,3.2,0.6,4c0.4,0.8,1.1,1.1,2,1.1
	c0.5,0,0.9-0.1,1.2-0.3c0.3-0.2,0.6-0.5,0.8-1V154.6z M424.1,147c0.1-0.4,0.4-0.6,0.8-0.6c0.5,0,0.8,0.2,0.9,0.6
	c0.2,0.4,0.2,1.5,0.2,3.3c0,1.1-0.1,1.8-0.2,2.1c-0.2,0.3-0.5,0.5-0.9,0.5c-0.4,0-0.7-0.2-0.8-0.6c-0.1-0.4-0.2-1.3-0.2-2.9
	C423.8,148.3,423.9,147.4,424.1,147 M414,153.8c0.5,0.7,1.4,1.1,2.7,1.1c1.3,0,2.2-0.4,2.7-1.1c0.5-0.7,0.8-2.1,0.8-4.1
	c0-2-0.3-3.3-0.8-4.1c-0.5-0.7-1.4-1.1-2.7-1.1c-1.3,0-2.2,0.4-2.7,1.1c-0.5,0.7-0.8,2.1-0.8,4.1C413.2,151.7,413.4,153.1,414,153.8
	 M415.5,149c0-1.2,0.1-1.9,0.2-2.2c0.2-0.3,0.5-0.5,0.9-0.5c0.4,0,0.7,0.2,0.9,0.5c0.2,0.3,0.2,1.1,0.2,2.4v0.6v0.4
	c0,1.3-0.1,2.2-0.2,2.5c-0.2,0.3-0.5,0.5-0.9,0.5c-0.4,0-0.7-0.2-0.9-0.5c-0.2-0.3-0.2-1.3-0.2-2.8v-0.2V149z M411.2,146.5h0.9v-1.7
	h-0.9v-2.7h-2.3v2.7H408v1.7h0.9v5.9c0,0.9,0.1,1.6,0.4,1.9c0.3,0.3,0.8,0.5,1.6,0.5c0.1,0,0.3,0,0.4,0c0.2,0,0.4,0,0.8-0.1v-1.8
	l-0.1,0l-0.1,0c-0.3,0-0.4-0.1-0.5-0.2c-0.1-0.1-0.1-0.5-0.1-1V151V146.5z M396.4,151.6l0,0.2c0,1.1,0.3,1.9,0.8,2.4
	c0.5,0.5,1.3,0.8,2.4,0.8c1,0,1.8-0.2,2.4-0.7c0.6-0.5,0.8-1.1,0.8-2c0-1.1-0.8-2.2-2.5-3.3c-0.2-0.2-0.4-0.3-0.5-0.3
	c-0.5-0.4-0.9-0.6-1-0.8c-0.1-0.2-0.2-0.4-0.2-0.6c0-0.3,0.1-0.5,0.3-0.6c0.2-0.2,0.4-0.2,0.7-0.2c0.4,0,0.7,0.1,0.9,0.3
	c0.2,0.2,0.3,0.6,0.3,1v0.2h2v-0.2c0-1-0.2-1.8-0.7-2.3c-0.5-0.5-1.2-0.8-2.2-0.8c-1,0-1.8,0.2-2.4,0.7c-0.5,0.5-0.8,1.1-0.8,2
	c0,1.1,0.8,2.2,2.5,3.4l0.1,0.1c0.1,0.1,0.2,0.2,0.4,0.3c0.7,0.5,1.1,0.9,1.1,1.3c0,0.3-0.1,0.5-0.3,0.7c-0.2,0.2-0.4,0.3-0.7,0.3
	c-0.4,0-0.7-0.1-0.9-0.4c-0.2-0.2-0.3-0.6-0.3-1.2v-0.3h-2L396.4,151.6z M392.5,144.8v6.3c0,0.7-0.1,1.2-0.2,1.5
	c-0.2,0.3-0.4,0.4-0.8,0.4c-0.4,0-0.6-0.1-0.7-0.4c-0.1-0.2-0.2-0.7-0.2-1.3v-6.4h-2.2v7.7c0,0.8,0.2,1.4,0.6,1.8
	c0.4,0.4,0.9,0.6,1.6,0.6c0.4,0,0.8-0.1,1.2-0.3c0.3-0.2,0.6-0.5,0.9-0.9v1h2.2v-9.8H392.5z M379.6,147c0.2,0.3,0.2,1.1,0.2,2.1
	c0,1.7-0.1,2.8-0.2,3.2c-0.2,0.4-0.5,0.6-0.9,0.6c-0.4,0-0.7-0.2-0.8-0.5c-0.1-0.4-0.2-1.2-0.2-2.5c0-1.5,0.1-2.5,0.2-2.9
	c0.1-0.4,0.4-0.6,0.8-0.6C379.1,146.4,379.4,146.6,379.6,147 M382,144.8h-2.2v1c-0.2-0.4-0.4-0.8-0.8-1c-0.3-0.2-0.7-0.3-1.2-0.3
	c-0.9,0-1.6,0.4-2,1.1c-0.4,0.8-0.6,2.1-0.6,4c0,2,0.2,3.4,0.6,4.1c0.4,0.7,1.1,1.1,2,1.1c0.4,0,0.8-0.1,1.1-0.3
	c0.3-0.2,0.6-0.5,0.8-0.8v0.7c0,0.7-0.1,1.2-0.3,1.4c-0.2,0.3-0.5,0.4-0.9,0.4c-0.3,0-0.5-0.1-0.6-0.2c-0.1-0.1-0.2-0.3-0.2-0.5
	h-2.2c0,0.7,0.3,1.3,0.8,1.7c0.5,0.4,1.3,0.6,2.2,0.6c0.7,0,1.3-0.1,1.8-0.3c0.5-0.2,0.9-0.5,1.1-0.9c0.2-0.3,0.3-0.6,0.4-1
	c0.1-0.4,0.1-1,0.1-1.9V144.8z M369.4,154.6v-6.3c0-0.7,0.1-1.2,0.2-1.5c0.2-0.3,0.4-0.4,0.8-0.4c0.3,0,0.6,0.1,0.7,0.4
	c0.1,0.2,0.2,0.6,0.2,1.2v6.6h2.2v-7.7c0-0.8-0.2-1.4-0.6-1.8c-0.4-0.4-0.9-0.6-1.6-0.6c-0.4,0-0.8,0.1-1.2,0.3
	c-0.3,0.2-0.6,0.5-0.9,0.9v-1h-2.2v9.8H369.4z M365.2,144.8h-2.3v9.8h2.3V144.8z M365.2,141.6h-2.3v2h2.3V141.6z M361,141.6h-2.3
	v13.1h2.3V141.6z M356.7,141.6h-2.3v13.1h2.3V141.6z M352.9,154.6c-0.1-0.2-0.2-0.4-0.3-0.7c-0.1-0.2-0.1-0.5-0.1-0.7v-5.5
	c0-1.2-0.2-2-0.7-2.4c-0.5-0.5-1.3-0.7-2.5-0.7c-1.2,0-2.1,0.3-2.6,0.8c-0.5,0.5-0.8,1.3-0.8,2.4h2.2v-0.2c0-0.5,0.1-0.8,0.3-1
	c0.2-0.2,0.5-0.3,0.9-0.3c0.3,0,0.6,0.1,0.8,0.3c0.2,0.2,0.3,0.4,0.3,0.7c0,0.5-0.4,1-1.3,1.3c-0.2,0.1-0.4,0.2-0.5,0.2
	c-1.1,0.5-1.8,1-2.2,1.4c-0.4,0.5-0.5,1.1-0.5,1.9c0,0.9,0.2,1.6,0.6,2.1c0.4,0.5,1,0.8,1.7,0.8c0.5,0,0.9-0.1,1.3-0.3
	c0.4-0.2,0.7-0.5,0.9-0.9c0,0.3,0.1,0.5,0.1,0.6c0,0.1,0.1,0.3,0.1,0.3H352.9z M350.4,151.1c0,0.7-0.1,1.2-0.3,1.6
	c-0.2,0.3-0.5,0.5-0.9,0.5c-0.3,0-0.6-0.1-0.8-0.3c-0.2-0.2-0.2-0.5-0.2-1c0-0.5,0.2-0.9,0.5-1.2c0.3-0.3,0.9-0.7,1.7-1.2V151.1z
	 M342.2,150.8v0.2c0,0.8-0.1,1.4-0.2,1.7c-0.2,0.3-0.4,0.5-0.8,0.5c-0.4,0-0.6-0.1-0.8-0.4c-0.1-0.3-0.2-0.7-0.2-1.4V148
	c0-0.6,0.1-1,0.2-1.3c0.2-0.3,0.4-0.4,0.8-0.4c0.3,0,0.6,0.1,0.7,0.4c0.2,0.3,0.2,0.7,0.2,1.3v0.2h2.2v-0.3c0-1.1-0.3-2-0.8-2.5
	c-0.5-0.5-1.3-0.8-2.4-0.8c-1.2,0-2.1,0.4-2.6,1.1c-0.5,0.7-0.7,2.1-0.7,4.1c0,2,0.2,3.3,0.7,4.1c0.5,0.7,1.4,1.1,2.6,1.1
	c1.1,0,1.9-0.3,2.4-0.9c0.5-0.6,0.8-1.5,0.8-2.7c0-0.1,0-0.3,0-0.3l0-0.2L342.2,150.8z M327,157.9c0.1,0,0.3,0,0.4,0
	c0.8,0,1.4-0.2,1.8-0.5c0.4-0.3,0.7-0.9,0.9-1.9l2.6-10.7h-2.3l-1.3,7.1l-1.4-7.1h-2.4l2.5,10.1l0.1,0.3l0,0.3
	c0,0.2-0.1,0.4-0.2,0.5c-0.1,0.1-0.4,0.2-0.7,0.2l-0.2,0l-0.1,0v1.7C326.8,157.9,326.9,157.9,327,157.9 M319.8,154.6v-1
	c0.2,0.4,0.4,0.7,0.8,1c0.3,0.2,0.7,0.3,1.2,0.3c1,0,1.6-0.4,2-1.1c0.4-0.8,0.6-2.1,0.6-4c0-2-0.2-3.3-0.6-4.1c-0.4-0.7-1-1.1-2-1.1
	c-0.5,0-0.9,0.1-1.2,0.3c-0.3,0.2-0.6,0.5-0.8,0.8v-4.1h-2.3v13.1H319.8z M321.9,147c0.1,0.4,0.2,1.3,0.2,2.7c0,1.4-0.1,2.3-0.2,2.7
	c-0.1,0.4-0.4,0.6-0.8,0.6c-0.5,0-0.8-0.2-0.9-0.5c-0.2-0.4-0.3-1.1-0.3-2.4c0-1.6,0.1-2.6,0.3-3c0.2-0.4,0.5-0.6,0.9-0.6
	C321.5,146.5,321.7,146.7,321.9,147 M305.3,151.6l0,0.2c0,1.1,0.3,1.9,0.8,2.4c0.5,0.5,1.3,0.8,2.4,0.8c1,0,1.8-0.2,2.4-0.7
	c0.6-0.5,0.8-1.1,0.8-2c0-1.1-0.8-2.2-2.5-3.3c-0.2-0.2-0.4-0.3-0.5-0.3c-0.5-0.4-0.9-0.6-1-0.8c-0.1-0.2-0.2-0.4-0.2-0.6
	c0-0.3,0.1-0.5,0.3-0.6c0.2-0.2,0.4-0.2,0.7-0.2c0.4,0,0.7,0.1,0.9,0.3c0.2,0.2,0.3,0.6,0.3,1v0.2h2v-0.2c0-1-0.2-1.8-0.7-2.3
	c-0.5-0.5-1.2-0.8-2.2-0.8c-1,0-1.8,0.2-2.4,0.7c-0.5,0.5-0.8,1.1-0.8,2c0,1.1,0.8,2.2,2.5,3.4l0.1,0.1c0.1,0.1,0.2,0.2,0.4,0.3
	c0.7,0.5,1.1,0.9,1.1,1.3c0,0.3-0.1,0.5-0.3,0.7c-0.2,0.2-0.4,0.3-0.7,0.3c-0.4,0-0.7-0.1-0.9-0.4c-0.2-0.2-0.3-0.6-0.3-1.2v-0.3h-2
	L305.3,151.6z M297.7,151.6l0,0.2c0,1.1,0.3,1.9,0.8,2.4c0.5,0.5,1.3,0.8,2.4,0.8c1,0,1.8-0.2,2.4-0.7c0.6-0.5,0.8-1.1,0.8-2
	c0-1.1-0.8-2.2-2.5-3.3c-0.2-0.2-0.4-0.3-0.5-0.3c-0.5-0.4-0.9-0.6-1-0.8c-0.2-0.2-0.2-0.4-0.2-0.6c0-0.3,0.1-0.5,0.3-0.6
	c0.2-0.2,0.4-0.2,0.7-0.2c0.4,0,0.7,0.1,0.9,0.3c0.2,0.2,0.3,0.6,0.3,1v0.2h2v-0.2c0-1-0.2-1.8-0.7-2.3c-0.5-0.5-1.2-0.8-2.2-0.8
	c-1,0-1.8,0.2-2.4,0.7c-0.5,0.5-0.8,1.1-0.8,2c0,1.1,0.8,2.2,2.5,3.4l0.1,0.1c0.1,0.1,0.2,0.2,0.4,0.3c0.7,0.5,1.1,0.9,1.1,1.3
	c0,0.3-0.1,0.5-0.3,0.7c-0.2,0.2-0.4,0.3-0.7,0.3c-0.4,0-0.7-0.1-0.9-0.4c-0.2-0.2-0.3-0.6-0.3-1.2v-0.3h-2L297.7,151.6z
	 M293.8,152.8c-0.2,0.3-0.5,0.5-0.9,0.5c-0.4,0-0.7-0.2-0.9-0.6c-0.2-0.4-0.3-1-0.3-2c0-0.2,0-0.3,0-0.4l0-0.2h4.5v-0.7
	c0-1.1-0.1-1.9-0.2-2.4c-0.1-0.5-0.3-0.9-0.5-1.2c-0.3-0.4-0.7-0.7-1.1-0.8c-0.4-0.2-1-0.3-1.6-0.3c-0.6,0-1.2,0.1-1.6,0.3
	c-0.5,0.2-0.8,0.4-1.1,0.8c-0.3,0.3-0.5,0.8-0.6,1.3c-0.1,0.5-0.2,1.4-0.2,2.6c0,1.5,0.1,2.5,0.2,3.1s0.4,1.1,0.7,1.4
	c0.3,0.3,0.6,0.6,1,0.7c0.4,0.2,0.9,0.2,1.5,0.2c1.2,0,2-0.3,2.5-0.8c0.5-0.5,0.8-1.3,0.8-2.5l0-0.2l0-0.2h-2.1
	C294.1,152,294,152.4,293.8,152.8 M291.8,148.1c0-0.7,0.1-1.1,0.3-1.4c0.2-0.3,0.5-0.4,0.9-0.4c0.4,0,0.7,0.1,0.9,0.4
	c0.2,0.3,0.2,0.7,0.2,1.4v0.4h-2.2C291.8,148.4,291.8,148.3,291.8,148.1 M283.6,154.6v-6.3c0-0.7,0.1-1.2,0.2-1.5
	c0.2-0.3,0.4-0.4,0.8-0.4c0.3,0,0.6,0.1,0.7,0.4c0.1,0.2,0.2,0.6,0.2,1.2v6.6h2.2v-7.7c0-0.8-0.2-1.4-0.6-1.8
	c-0.4-0.4-0.9-0.6-1.6-0.6c-0.4,0-0.8,0.1-1.2,0.3c-0.3,0.2-0.6,0.5-0.9,0.9v-1h-2.2v9.8H283.6z M279.4,144.8h-2.3v9.8h2.3V144.8z
	 M279.4,141.6h-2.3v2h2.3V141.6z M269.1,151.6l0,0.2c0,1.1,0.3,1.9,0.8,2.4c0.5,0.5,1.3,0.8,2.4,0.8c1,0,1.8-0.2,2.4-0.7
	c0.6-0.5,0.8-1.1,0.8-2c0-1.1-0.8-2.2-2.5-3.3c-0.2-0.2-0.4-0.3-0.5-0.3c-0.5-0.4-0.9-0.6-1-0.8c-0.1-0.2-0.2-0.4-0.2-0.6
	c0-0.3,0.1-0.5,0.3-0.6c0.2-0.2,0.4-0.2,0.7-0.2c0.4,0,0.7,0.1,0.9,0.3c0.2,0.2,0.3,0.6,0.3,1v0.2h2v-0.2c0-1-0.2-1.8-0.7-2.3
	c-0.5-0.5-1.2-0.8-2.2-0.8c-1,0-1.8,0.2-2.4,0.7c-0.5,0.5-0.8,1.1-0.8,2c0,1.1,0.8,2.2,2.5,3.4l0.1,0.1c0.1,0.1,0.2,0.2,0.4,0.3
	c0.7,0.5,1.1,0.9,1.1,1.3c0,0.3-0.1,0.5-0.3,0.7c-0.2,0.2-0.4,0.3-0.7,0.3c-0.4,0-0.7-0.1-0.9-0.4c-0.2-0.2-0.3-0.6-0.3-1.2v-0.3h-2
	L269.1,151.6z M265.2,144.8v6.3c0,0.7-0.1,1.2-0.2,1.5c-0.2,0.3-0.4,0.4-0.8,0.4c-0.4,0-0.6-0.1-0.7-0.4c-0.1-0.2-0.2-0.7-0.2-1.3
	v-6.4H261v7.7c0,0.8,0.2,1.4,0.6,1.8c0.4,0.4,0.9,0.6,1.6,0.6c0.4,0,0.8-0.1,1.2-0.3c0.3-0.2,0.6-0.5,0.9-0.9v1h2.2v-9.8H265.2z
	 M254.8,154.6v-1c0.2,0.4,0.4,0.7,0.8,1c0.3,0.2,0.7,0.3,1.2,0.3c1,0,1.6-0.4,2-1.1c0.4-0.8,0.6-2.1,0.6-4c0-2-0.2-3.3-0.6-4.1
	c-0.4-0.7-1-1.1-2-1.1c-0.5,0-0.9,0.1-1.2,0.3c-0.3,0.2-0.6,0.5-0.8,0.8v-4.1h-2.3v13.1H254.8z M256.8,147c0.1,0.4,0.2,1.3,0.2,2.7
	c0,1.4-0.1,2.3-0.2,2.7c-0.1,0.4-0.4,0.6-0.8,0.6c-0.5,0-0.8-0.2-0.9-0.5c-0.2-0.4-0.3-1.1-0.3-2.4c0-1.6,0.1-2.6,0.3-3
	c0.2-0.4,0.5-0.6,0.9-0.6C256.4,146.5,256.7,146.7,256.8,147 M244.7,154.6v-5.8c0-0.5,0.1-0.9,0.4-1.2c0.3-0.3,0.7-0.4,1.2-0.4
	l0.3,0l0.3,0v-2.8c-0.5,0-0.9,0.1-1.3,0.4c-0.4,0.3-0.7,0.8-1,1.4v-1.6h-2.2v9.8H244.7z M238.2,144.8v6.3c0,0.7-0.1,1.2-0.2,1.5
	c-0.2,0.3-0.4,0.4-0.8,0.4c-0.4,0-0.6-0.1-0.7-0.4c-0.1-0.2-0.2-0.7-0.2-1.3v-6.4H234v7.7c0,0.8,0.2,1.4,0.6,1.8
	c0.4,0.4,0.9,0.6,1.6,0.6c0.4,0,0.8-0.1,1.2-0.3c0.3-0.2,0.6-0.5,0.9-0.9v1h2.2v-9.8H238.2z M226.1,153.8c0.5,0.7,1.4,1.1,2.7,1.1
	c1.3,0,2.2-0.4,2.7-1.1c0.5-0.7,0.8-2.1,0.8-4.1c0-2-0.3-3.3-0.8-4.1c-0.5-0.7-1.4-1.1-2.7-1.1c-1.3,0-2.2,0.4-2.7,1.1
	c-0.5,0.7-0.8,2.1-0.8,4.1C225.4,151.7,225.6,153.1,226.1,153.8 M227.7,149c0-1.2,0.1-1.9,0.2-2.2c0.2-0.3,0.5-0.5,0.9-0.5
	c0.4,0,0.7,0.2,0.9,0.5c0.2,0.3,0.2,1.1,0.2,2.4v0.6v0.4c0,1.3-0.1,2.2-0.2,2.5c-0.2,0.3-0.5,0.5-0.9,0.5c-0.4,0-0.7-0.2-0.9-0.5
	c-0.2-0.3-0.2-1.3-0.2-2.8v-0.2V149z M218.9,157.9c0.1,0,0.3,0,0.4,0c0.8,0,1.4-0.2,1.8-0.5c0.4-0.3,0.7-0.9,0.9-1.9l2.6-10.7h-2.3
	l-1.3,7.1l-1.4-7.1h-2.4l2.5,10.1l0.1,0.3l0,0.3c0,0.2-0.1,0.4-0.2,0.5c-0.1,0.1-0.4,0.2-0.7,0.2l-0.2,0l-0.1,0v1.7
	C218.6,157.9,218.7,157.9,218.9,157.9 M209.5,154.6h2.2v-13.1h-2.3v4.1c-0.2-0.4-0.4-0.6-0.8-0.8c-0.3-0.2-0.7-0.3-1.2-0.3
	c-0.9,0-1.6,0.4-2,1.1c-0.4,0.8-0.6,2.1-0.6,4.1c0,1.9,0.2,3.2,0.6,4c0.4,0.8,1.1,1.1,2,1.1c0.5,0,0.9-0.1,1.2-0.3
	c0.3-0.2,0.6-0.5,0.8-1V154.6z M207.4,147c0.1-0.4,0.4-0.6,0.8-0.6c0.5,0,0.8,0.2,0.9,0.6c0.2,0.4,0.2,1.5,0.2,3.3
	c0,1.1-0.1,1.8-0.2,2.1c-0.2,0.3-0.5,0.5-0.9,0.5c-0.4,0-0.7-0.2-0.8-0.6c-0.1-0.4-0.2-1.3-0.2-2.9
	C207.2,148.3,207.3,147.4,207.4,147 M199,154.6v-6.3c0-0.7,0.1-1.2,0.2-1.5c0.2-0.3,0.4-0.4,0.8-0.4c0.3,0,0.6,0.1,0.7,0.4
	c0.1,0.2,0.2,0.6,0.2,1.2v6.6h2.2v-7.7c0-0.8-0.2-1.4-0.6-1.8c-0.4-0.4-0.9-0.6-1.6-0.6c-0.4,0-0.8,0.1-1.2,0.3
	c-0.3,0.2-0.6,0.5-0.9,0.9v-1h-2.2v9.8H199z M195.2,154.6c-0.1-0.2-0.2-0.4-0.3-0.7c-0.1-0.2-0.1-0.5-0.1-0.7v-5.5
	c0-1.2-0.2-2-0.7-2.4c-0.5-0.5-1.3-0.7-2.5-0.7c-1.2,0-2.1,0.3-2.6,0.8c-0.5,0.5-0.8,1.3-0.8,2.4h2.2v-0.2c0-0.5,0.1-0.8,0.3-1
	c0.2-0.2,0.5-0.3,0.9-0.3c0.3,0,0.6,0.1,0.8,0.3c0.2,0.2,0.3,0.4,0.3,0.7c0,0.5-0.4,1-1.3,1.3c-0.2,0.1-0.4,0.2-0.5,0.2
	c-1.1,0.5-1.8,1-2.2,1.4c-0.4,0.5-0.5,1.1-0.5,1.9c0,0.9,0.2,1.6,0.6,2.1c0.4,0.5,1,0.8,1.7,0.8c0.5,0,0.9-0.1,1.3-0.3
	c0.4-0.2,0.7-0.5,0.9-0.9c0,0.3,0.1,0.5,0.1,0.6c0,0.1,0.1,0.3,0.1,0.3H195.2z M192.6,151.1c0,0.7-0.1,1.2-0.3,1.6
	c-0.2,0.3-0.5,0.5-0.9,0.5c-0.3,0-0.6-0.1-0.8-0.3c-0.2-0.2-0.2-0.5-0.2-1c0-0.5,0.2-0.9,0.5-1.2c0.3-0.3,0.9-0.7,1.7-1.2V151.1z
	 M179.7,144.8v6.3c0,0.7-0.1,1.2-0.2,1.5c-0.2,0.3-0.4,0.4-0.8,0.4c-0.4,0-0.6-0.1-0.7-0.4c-0.1-0.2-0.2-0.7-0.2-1.3v-6.4h-2.2v7.7
	c0,0.8,0.2,1.4,0.6,1.8c0.4,0.4,0.9,0.6,1.6,0.6c0.4,0,0.8-0.1,1.2-0.3c0.3-0.2,0.6-0.5,0.9-0.9v1h2.2v-9.8H179.7z M167.7,153.8
	c0.5,0.7,1.4,1.1,2.7,1.1c1.3,0,2.2-0.4,2.7-1.1c0.5-0.7,0.8-2.1,0.8-4.1c0-2-0.3-3.3-0.8-4.1c-0.5-0.7-1.4-1.1-2.7-1.1
	c-1.3,0-2.2,0.4-2.7,1.1c-0.5,0.7-0.8,2.1-0.8,4.1C166.9,151.7,167.2,153.1,167.7,153.8 M169.3,149c0-1.2,0.1-1.9,0.2-2.2
	c0.2-0.3,0.5-0.5,0.9-0.5c0.4,0,0.7,0.2,0.9,0.5c0.2,0.3,0.2,1.1,0.2,2.4v0.6v0.4c0,1.3-0.1,2.2-0.2,2.5c-0.2,0.3-0.5,0.5-0.9,0.5
	c-0.4,0-0.7-0.2-0.9-0.5c-0.2-0.3-0.2-1.3-0.2-2.8v-0.2V149z M160.4,157.9c0.1,0,0.3,0,0.4,0c0.8,0,1.4-0.2,1.8-0.5
	c0.4-0.3,0.7-0.9,0.9-1.9l2.6-10.7h-2.3l-1.3,7.1l-1.4-7.1h-2.4l2.5,10.1l0.1,0.3l0,0.3c0,0.2-0.1,0.4-0.2,0.5
	c-0.1,0.1-0.4,0.2-0.7,0.2l-0.2,0l-0.1,0v1.7C160.2,157.9,160.3,157.9,160.4,157.9 M151.6,154.6v-5.8c0-0.5,0.1-0.9,0.4-1.2
	c0.3-0.3,0.7-0.4,1.2-0.4l0.3,0l0.3,0v-2.8c-0.5,0-0.9,0.1-1.3,0.4c-0.4,0.3-0.7,0.8-1,1.4v-1.6h-2.2v9.8H151.6z M141.5,153.8
	c0.5,0.7,1.4,1.1,2.7,1.1c1.3,0,2.2-0.4,2.7-1.1c0.5-0.7,0.8-2.1,0.8-4.1c0-2-0.3-3.3-0.8-4.1c-0.5-0.7-1.4-1.1-2.7-1.1
	c-1.3,0-2.2,0.4-2.7,1.1c-0.5,0.7-0.8,2.1-0.8,4.1C140.7,151.7,141,153.1,141.5,153.8 M143,149c0-1.2,0.1-1.9,0.2-2.2
	c0.2-0.3,0.5-0.5,0.9-0.5c0.4,0,0.7,0.2,0.9,0.5c0.2,0.3,0.2,1.1,0.2,2.4v0.6v0.4c0,1.3-0.1,2.2-0.2,2.5c-0.2,0.3-0.5,0.5-0.9,0.5
	c-0.4,0-0.7-0.2-0.9-0.5c-0.2-0.3-0.2-1.3-0.2-2.8v-0.2V149z M138.7,154.6v-8.1h0.9v-1.7h-0.9v-0.9c0-0.2,0.1-0.4,0.2-0.5
	c0.1-0.1,0.3-0.2,0.5-0.2l0.1,0l0.1,0v-1.7c-0.2,0-0.4,0-0.6,0s-0.3,0-0.5,0c-0.8,0-1.3,0.2-1.6,0.5c-0.3,0.4-0.5,1-0.5,1.8v1h-0.9
	v1.7h0.9v8.1H138.7z M125.1,157.9c0.1,0,0.3,0,0.4,0c0.8,0,1.4-0.2,1.8-0.5c0.4-0.3,0.7-0.9,0.9-1.9l2.6-10.7h-2.3l-1.3,7.1
	l-1.4-7.1h-2.4l2.5,10.1l0.1,0.3l0,0.3c0,0.2-0.1,0.4-0.2,0.5c-0.1,0.1-0.4,0.2-0.7,0.2l-0.2,0l-0.1,0v1.7
	C124.8,157.9,124.9,157.9,125.1,157.9 M116.2,151.6l0,0.2c0,1.1,0.3,1.9,0.8,2.4c0.5,0.5,1.3,0.8,2.4,0.8c1,0,1.8-0.2,2.4-0.7
	c0.6-0.5,0.8-1.1,0.8-2c0-1.1-0.8-2.2-2.5-3.3c-0.2-0.2-0.4-0.3-0.5-0.3c-0.5-0.4-0.9-0.6-1-0.8c-0.1-0.2-0.2-0.4-0.2-0.6
	c0-0.3,0.1-0.5,0.3-0.6c0.2-0.2,0.4-0.2,0.7-0.2c0.4,0,0.7,0.1,0.9,0.3c0.2,0.2,0.3,0.6,0.3,1v0.2h2v-0.2c0-1-0.2-1.8-0.7-2.3
	c-0.5-0.5-1.2-0.8-2.2-0.8c-1,0-1.8,0.2-2.4,0.7c-0.5,0.5-0.8,1.1-0.8,2c0,1.1,0.8,2.2,2.5,3.4l0.1,0.1c0.1,0.1,0.2,0.2,0.4,0.3
	c0.7,0.5,1.1,0.9,1.1,1.3c0,0.3-0.1,0.5-0.3,0.7c-0.2,0.2-0.4,0.3-0.7,0.3c-0.4,0-0.7-0.1-0.9-0.4c-0.2-0.2-0.3-0.6-0.3-1.2v-0.3h-2
	L116.2,151.6z M114.9,154.6c-0.1-0.2-0.2-0.4-0.3-0.7c-0.1-0.2-0.1-0.5-0.1-0.7v-5.5c0-1.2-0.2-2-0.7-2.4c-0.5-0.5-1.3-0.7-2.5-0.7
	c-1.2,0-2.1,0.3-2.6,0.8c-0.5,0.5-0.8,1.3-0.8,2.4h2.2v-0.2c0-0.5,0.1-0.8,0.3-1c0.2-0.2,0.5-0.3,0.9-0.3c0.3,0,0.6,0.1,0.8,0.3
	c0.2,0.2,0.3,0.4,0.3,0.7c0,0.5-0.4,1-1.3,1.3c-0.2,0.1-0.4,0.2-0.5,0.2c-1.1,0.5-1.8,1-2.2,1.4c-0.4,0.5-0.5,1.1-0.5,1.9
	c0,0.9,0.2,1.6,0.6,2.1c0.4,0.5,1,0.8,1.7,0.8c0.5,0,0.9-0.1,1.3-0.3c0.4-0.2,0.7-0.5,0.9-0.9c0,0.3,0.1,0.5,0.1,0.6
	c0,0.1,0.1,0.3,0.1,0.3H114.9z M112.4,151.1c0,0.7-0.1,1.2-0.3,1.6c-0.2,0.3-0.5,0.5-0.9,0.5c-0.3,0-0.6-0.1-0.8-0.3
	c-0.2-0.2-0.2-0.5-0.2-1c0-0.5,0.2-0.9,0.5-1.2c0.3-0.3,0.9-0.7,1.7-1.2V151.1z M103.9,152.8c-0.2,0.3-0.5,0.5-0.9,0.5
	c-0.4,0-0.7-0.2-0.9-0.6c-0.2-0.4-0.3-1-0.3-2c0-0.2,0-0.3,0-0.4l0-0.2h4.5v-0.7c0-1.1-0.1-1.9-0.2-2.4c-0.1-0.5-0.3-0.9-0.5-1.2
	c-0.3-0.4-0.7-0.7-1.1-0.8c-0.4-0.2-1-0.3-1.6-0.3c-0.6,0-1.2,0.1-1.6,0.3c-0.5,0.2-0.8,0.4-1.1,0.8c-0.3,0.3-0.5,0.8-0.6,1.3
	c-0.1,0.5-0.2,1.4-0.2,2.6c0,1.5,0.1,2.5,0.2,3.1s0.4,1.1,0.7,1.4c0.3,0.3,0.6,0.6,1,0.7c0.4,0.2,0.9,0.2,1.5,0.2
	c1.2,0,2-0.3,2.5-0.8c0.5-0.5,0.8-1.3,0.8-2.5l0-0.2l0-0.2h-2.1C104.1,152,104,152.4,103.9,152.8 M101.8,148.1
	c0-0.7,0.1-1.1,0.3-1.4c0.2-0.3,0.5-0.4,0.9-0.4c0.4,0,0.7,0.1,0.9,0.4c0.2,0.3,0.2,0.7,0.2,1.4v0.4h-2.2
	C101.9,148.4,101.8,148.3,101.8,148.1 M91,147c0.2,0.3,0.3,1.1,0.3,2.1c0,1.7-0.1,2.8-0.3,3.2c-0.2,0.4-0.5,0.6-0.9,0.6
	c-0.4,0-0.7-0.2-0.8-0.5c-0.1-0.4-0.2-1.2-0.2-2.5c0-1.5,0.1-2.5,0.2-2.9c0.1-0.4,0.4-0.6,0.8-0.6C90.5,146.4,90.9,146.6,91,147
	 M93.5,144.8h-2.2v1c-0.2-0.4-0.4-0.8-0.8-1c-0.3-0.2-0.7-0.3-1.2-0.3c-0.9,0-1.6,0.4-2,1.1c-0.4,0.8-0.6,2.1-0.6,4
	c0,2,0.2,3.4,0.6,4.1c0.4,0.7,1.1,1.1,2,1.1c0.4,0,0.8-0.1,1.1-0.3c0.3-0.2,0.6-0.5,0.8-0.8v0.7c0,0.7-0.1,1.2-0.3,1.4
	c-0.2,0.3-0.5,0.4-0.9,0.4c-0.3,0-0.5-0.1-0.6-0.2c-0.1-0.1-0.2-0.3-0.2-0.5H87c0,0.7,0.3,1.3,0.8,1.7c0.5,0.4,1.3,0.6,2.2,0.6
	c0.7,0,1.3-0.1,1.8-0.3c0.5-0.2,0.9-0.5,1.1-0.9c0.2-0.3,0.3-0.6,0.4-1c0.1-0.4,0.1-1,0.1-1.9V144.8z M80.9,154.6v-6.3
	c0-0.7,0.1-1.2,0.2-1.5c0.2-0.3,0.4-0.4,0.8-0.4c0.3,0,0.6,0.1,0.7,0.4c0.1,0.2,0.2,0.6,0.2,1.2v6.6h2.2v-7.7c0-0.8-0.2-1.4-0.6-1.8
	c-0.4-0.4-0.9-0.6-1.6-0.6c-0.4,0-0.8,0.1-1.2,0.3c-0.3,0.2-0.6,0.5-0.9,0.9v-1h-2.2v9.8H80.9z M76.6,144.8h-2.3v9.8h2.3V144.8z
	 M76.6,141.6h-2.3v2h2.3V141.6z M72,146.5H73v-1.7H72v-2.7h-2.3v2.7h-0.9v1.7h0.9v5.9c0,0.9,0.1,1.6,0.4,1.9
	c0.3,0.3,0.8,0.5,1.6,0.5c0.1,0,0.3,0,0.4,0c0.2,0,0.4,0,0.8-0.1v-1.8l-0.1,0l-0.1,0c-0.3,0-0.4-0.1-0.5-0.2c-0.1-0.1-0.1-0.5-0.1-1
	V151V146.5z M63.5,154.6v-6.3c0-0.7,0.1-1.2,0.2-1.5c0.2-0.3,0.4-0.4,0.8-0.4c0.3,0,0.6,0.1,0.7,0.4c0.1,0.2,0.2,0.6,0.2,1.2v6.6
	h2.2v-7.7c0-0.8-0.2-1.4-0.6-1.8c-0.4-0.4-0.9-0.6-1.6-0.6c-0.4,0-0.8,0.1-1.2,0.3c-0.3,0.2-0.6,0.5-0.9,0.9v-1h-2.2v9.8H63.5z
	 M59.3,144.8H57v9.8h2.3V144.8z M59.3,141.6H57v2h2.3V141.6z M53.5,154.6v-5.8c0-0.5,0.1-0.9,0.4-1.2c0.3-0.3,0.7-0.4,1.2-0.4l0.3,0
	l0.3,0v-2.8c-0.5,0-0.9,0.1-1.3,0.4c-0.4,0.3-0.7,0.8-1,1.4v-1.6h-2.2v9.8H53.5z M45,157.9v-4.1c0.2,0.4,0.4,0.6,0.8,0.8
	c0.3,0.2,0.7,0.3,1.2,0.3c0.9,0,1.6-0.4,2-1.1c0.4-0.7,0.6-2.1,0.6-4.1c0-1.9-0.2-3.2-0.6-4c-0.4-0.8-1.1-1.1-2-1.1
	c-0.5,0-0.9,0.1-1.2,0.3c-0.3,0.2-0.6,0.5-0.8,1v-1h-2.2v13.1H45z M45.2,147c0.2-0.4,0.5-0.5,0.9-0.5c0.4,0,0.7,0.2,0.8,0.6
	c0.1,0.4,0.2,1.3,0.2,2.7c0,1.5-0.1,2.4-0.2,2.7c-0.1,0.4-0.4,0.6-0.8,0.6c-0.5,0-0.8-0.2-0.9-0.6c-0.2-0.4-0.3-1.4-0.3-3
	C44.9,148.1,45,147.3,45.2,147 M34.1,152.8c-0.2,0.3-0.5,0.5-0.9,0.5c-0.4,0-0.7-0.2-0.9-0.6c-0.2-0.4-0.3-1-0.3-2
	c0-0.2,0-0.3,0-0.4l0-0.2h4.5v-0.7c0-1.1-0.1-1.9-0.2-2.4c-0.1-0.5-0.3-0.9-0.5-1.2c-0.3-0.4-0.7-0.7-1.1-0.8
	c-0.4-0.2-1-0.3-1.6-0.3c-0.6,0-1.2,0.1-1.6,0.3c-0.5,0.2-0.8,0.4-1.1,0.8c-0.3,0.3-0.5,0.8-0.6,1.3c-0.1,0.5-0.2,1.4-0.2,2.6
	c0,1.5,0.1,2.5,0.2,3.1c0.1,0.6,0.4,1.1,0.7,1.4c0.3,0.3,0.6,0.6,1,0.7c0.4,0.2,0.9,0.2,1.5,0.2c1.2,0,2-0.3,2.5-0.8
	c0.5-0.5,0.8-1.3,0.8-2.5l0-0.2l0-0.2h-2.1C34.4,152,34.3,152.4,34.1,152.8 M32.1,148.1c0-0.7,0.1-1.1,0.3-1.4
	c0.2-0.3,0.5-0.4,0.9-0.4c0.4,0,0.7,0.1,0.9,0.4c0.2,0.3,0.2,0.7,0.2,1.4v0.4h-2.2C32.1,148.4,32.1,148.3,32.1,148.1 M24.8,154.6
	v-3.1l0.6-0.9l1.4,3.9h2.5l-2.5-6.1l2.5-3.8h-2.4l-2,3.6v-6.8h-2.2v13.1H24.8z M21,154.6c-0.1-0.2-0.2-0.4-0.3-0.7
	c-0.1-0.2-0.1-0.5-0.1-0.7v-5.5c0-1.2-0.2-2-0.7-2.4c-0.5-0.5-1.3-0.7-2.5-0.7c-1.2,0-2.1,0.3-2.6,0.8c-0.5,0.5-0.8,1.3-0.8,2.4h2.2
	v-0.2c0-0.5,0.1-0.8,0.3-1c0.2-0.2,0.5-0.3,0.9-0.3c0.3,0,0.6,0.1,0.8,0.3c0.2,0.2,0.3,0.4,0.3,0.7c0,0.5-0.4,1-1.3,1.3
	c-0.2,0.1-0.4,0.2-0.5,0.2c-1.1,0.5-1.8,1-2.2,1.4c-0.4,0.5-0.5,1.1-0.5,1.9c0,0.9,0.2,1.6,0.6,2.1c0.4,0.5,1,0.8,1.7,0.8
	c0.5,0,0.9-0.1,1.3-0.3c0.4-0.2,0.7-0.5,0.9-0.9c0,0.3,0.1,0.5,0.1,0.6c0,0.1,0.1,0.3,0.1,0.3H21z M18.5,151.1
	c0,0.7-0.1,1.2-0.3,1.6c-0.2,0.3-0.5,0.5-0.9,0.5c-0.3,0-0.6-0.1-0.8-0.3c-0.2-0.2-0.2-0.5-0.2-1c0-0.5,0.2-0.9,0.5-1.2
	c0.3-0.3,0.9-0.7,1.7-1.2V151.1z M3.4,154.6l-0.1-11.6l2.4,11.6h1.5l2.4-11.6l-0.1,11.6H12v-13.1H8.4L6.6,150l-1.8-8.5H1.1v13.1H3.4
	z"/>
<g>
	<path class="st2" d="M40.9,215.6c-2.3,7.8-10.4,13.6-20,13.6s-17.7-5.8-20-13.6H40.9z M41.4,213.4c-0.1,0.6-0.2,1.2-0.4,1.7
		l-20-0.9l-20.4,0.9c-0.2-0.6-0.3-1.2-0.4-1.7l20.9,0.3L41.4,213.4z M41.6,211.2c0,0.6,0,1.1-0.1,1.6l-20.4-0.7l-20.8,0.7
		c-0.1-0.5-0.1-1.1-0.1-1.6l21,0.4L41.6,211.2z M41.5,209c0.1,0.6,0.1,1.2,0.1,1.8l-20.3-0.5l-21.1,0.5c0-0.6,0-1.2,0.1-1.8
		l20.8,0.7L41.5,209z M41,206.8c0.2,0.6,0.3,1.1,0.4,1.7l-20.2-0.3l-20.9,0.3c0.1-0.6,0.2-1.2,0.4-1.7l20.4,0.9L41,206.8z
		 M20.9,192.8c9.6,0,17.7,5.8,20,13.6H0.8C3.2,198.6,11.3,192.8,20.9,192.8"/>
	<path class="st2" d="M236.7,201.8h12.2v2.6h-4.6v15.6h-3v-15.6h-4.7V201.8z M228,201.8h3.1v15.8h7.2v2.5H228V201.8z M160.1,201.3
		c2.5,2.9,4.6,7.5,6.7,12.1c2.2-5.1,4.4-9.1,6.6-12.2l5.1,18.8h-3.1c-0.9-4.1-1.9-8.1-2.8-12.2c-2.1,3.1-3.4,6.8-4.7,10.5h-2.2
		c-1.2-4-2.7-7.7-4.7-10.7l-2.6,12.3h-3.1C156.8,213.8,158.5,207.6,160.1,201.3 M255.1,207.8l-5.1,12.2h-2.8l8-18.4l0-0.1l9.7,18.5
		h-3.4L255.1,207.8z M138.3,207.8l-5.1,12.2h-2.8l8-18.4l0-0.1l9.7,18.5h-3.4L138.3,207.8z M129.4,201.9v2.5
		c-6.4-0.6-9.9,2.7-9.9,6.7c0,4,3.7,7.1,9.9,6.6c0,0.8,0.1,1.5,0.1,2.3c-9.5,0.8-13.4-4.2-13.3-9.5
		C116.3,205.2,120.9,201.4,129.4,201.9 M188.6,201.9h2c0,0,0,0,0,0c0,0,0,0,0.1,0l0.9,0.6c4.1,2.6,6.7,5.4,9.8,10.1l-0.2-10.7h3
		v18.2l-1.8,0.1c0,0,0,0-0.1,0c0,0,0,0,0,0l-0.1,0l-0.1-0.6c-2.7-5.9-5.9-10.3-10.4-13.9v14.4h-3V201.9z M89.9,201.9h2c0,0,0,0,0,0
		c0,0,0,0,0.1,0l0.9,0.6c4.1,2.6,6.7,5.4,9.8,10.1l-0.2-10.7h3v18.2l-1.8,0.1c0,0-0.1,0-0.1,0c0,0,0,0,0,0l-0.2,0l-0.1-0.6
		c-2.7-5.9-5.9-10.3-10.4-13.9v14.4h-3V201.9z M216.1,203.7c3.2,0,5.9,3.2,5.9,7.2c0,4-2.6,7.2-5.9,7.2c-3.2,0-5.9-3.2-5.9-7.2
		C210.2,206.9,212.9,203.7,216.1,203.7 M216.1,201.4c5,0,9,4.2,9,9.4c0,5.2-4.1,9.4-9,9.4c-5,0-9-4.2-9-9.4
		C207.1,205.6,211.1,201.4,216.1,201.4 M78,203.7c3.2,0,5.9,3.2,5.9,7.2c0,4-2.6,7.2-5.9,7.2c-3.2,0-5.9-3.2-5.9-7.2
		C72.1,206.9,74.8,203.7,78,203.7 M78,201.4c5,0,9,4.2,9,9.4c0,5.2-4.1,9.4-9,9.4c-5,0-9-4.2-9-9.4C69,205.6,73.1,201.4,78,201.4
		 M64.7,201.7H68c-2.2,2.4-4.7,4.9-6.9,7.3c3.2,3,5.7,6.7,7.3,10.9h-3c-2.2-4.8-5.2-7.9-8.6-10.3L64.7,201.7z M181.1,201.9h3v18.2
		h-3V201.9z M109.8,201.9h3v18.2h-3V201.9z M52.2,201.9h3v18.2h-3V201.9z"/>
</g>
</svg>
