<?xml version="1.0" encoding="utf-8"?>
<!-- Generator: Adobe Illustrator 15.0.0, SVG Export Plug-In . SVG Version: 6.00 Build 0)  -->
<!DOCTYPE svg PUBLIC "-//W3C//DTD SVG 1.1//EN" "http://www.w3.org/Graphics/SVG/1.1/DTD/svg11.dtd">
<svg version="1.1" id="Layer_1" xmlns="http://www.w3.org/2000/svg" xmlns:xlink="http://www.w3.org/1999/xlink" x="0px" y="0px"
	 width="213.783px" height="108.757px" viewBox="0 0 213.783 108.757" enable-background="new 0 0 213.783 108.757"
	 xml:space="preserve">
<g>
	<path fill="#591F00" d="M196.342,51L196.342,51l0.004-0.007L196.336,51c-0.141-0.045-23.396-7.139-22.953,5.474l16.105-3.57
		l-15.535,5.45C179.131,69.634,196.229,51.126,196.342,51L196.342,51z"/>
	<path fill="#591F00" d="M60.665,49.752L60.665,49.752l-0.004-0.008l0.01,0.007c0.142-0.042,23.492-6.708,22.879,5.897
		l-16.053-3.867l15.455,5.736C77.624,68.7,60.776,49.881,60.665,49.752L60.665,49.752z"/>
	<path fill="#591F00" d="M128.016,5.681L128.016,5.681l0.006-0.005l-0.004,0.012c0.086,0.125,13.877,20.605,2.055,24.093
		l-1.693-16.818l-0.227,16.842C116.1,28.258,127.934,5.829,128.016,5.681L128.016,5.681z"/>
	<path fill="#591F00" d="M89.276,16.012L89.276,16.012l0.002-0.009l0.003,0.013c0.129,0.073,21.434,11.997,12.423,20.58
		l-8.903-14.25l7.205,15.158C88.575,41.694,89.268,16.184,89.276,16.012L89.276,16.012z"/>
	<path fill="#591F00" d="M66.997,22.558L66.997,22.558l0.002-0.01l0.008,0.013c0.199,0.046,32.89,7.745,24.04,22.633l-17.044-15.55
		l15.113,17.412C75.443,57.023,67.05,22.786,66.997,22.558L66.997,22.558z"/>
	<path fill="#591F00" d="M105.43,0.009L105.43,0.009L105.436,0l0.001,0.015c0.154,0.141,25.374,22.845,10.678,31.614l-7.803-21.977
		l5.238,22.669C96.889,34.418,105.371,0.239,105.43,0.009L105.43,0.009z"/>
	<path fill="#591F00" d="M167.896,16.732L167.896,16.732l-0.002-0.005l-0.004,0.011c-0.131,0.071-21.592,11.6-12.701,20.348
		l9.098-14.082l-7.406,15.021C168.248,42.426,167.9,16.907,167.896,16.732L167.896,16.732z"/>
	<path fill="#591F00" d="M190.084,23.69L190.084,23.69v-0.011l-0.01,0.012c-0.197,0.044-32.99,7.141-24.344,22.188l17.254-15.233
		l-15.348,17.132C181.172,57.999,190.027,23.917,190.084,23.69L190.084,23.69z"/>
	<path fill="#591F00" d="M151.961,0.437L151.961,0.437l-0.006-0.008v0.014c-0.154,0.138-25.682,22.373-11.105,31.413l8.098-21.831
		l-5.543,22.572C160.035,34.999,152.018,0.667,151.961,0.437L151.961,0.437z"/>
	<path fill="#591F00" d="M79.741,101.435v5.646h5.945v-1.918l2.203,0.434v1.053c0,1.676-0.568,2.108-2.349,2.108h-5.653
		c-1.78,0-2.349-0.433-2.349-2.108v-4.696c0-1.676,0.569-2.106,2.349-2.106h5.653c1.781,0,2.349,0.431,2.349,2.106v0.846
		l-2.203,0.328v-1.691H79.741L79.741,101.435z"/>
	<path fill="#591F00" d="M102.341,105.198l-2.038-3.627l-2.111,3.627H102.341L102.341,105.198z M99.313,99.846h2.129l5.432,8.911
		h-2.478l-1.138-1.952h-6l-1.038,1.982l-2.267-0.03L99.313,99.846L99.313,99.846z"/>
	<path fill="#591F00" d="M115.25,101.398v1.917h5.908c1.779,0,2.369,0.434,2.369,2.107v1.226c0,1.676-0.59,2.108-2.369,2.108h-5.854
		c-1.779,0-2.367-0.433-2.367-2.108v-0.242l1.945-0.379v1.054h6.697v-2.036h-5.906c-1.783,0-2.352-0.435-2.352-2.108v-0.984
		c0-1.676,0.568-2.106,2.352-2.106h5.377c1.688,0,2.348,0.414,2.348,1.951v0.188l-1.945,0.435v-1.021H115.25L115.25,101.398z"/>
	<polygon fill="#591F00" points="131.768,99.846 133.969,99.846 133.969,108.757 131.768,108.757 131.768,99.846 	"/>
	<path fill="#591F00" d="M142.467,99.846h1.504l6.662,5.249c0.385,0.294,0.752,0.604,1.084,0.968
		c-0.057-0.744-0.092-1.261-0.092-1.538v-4.679h1.98v8.911h-1.504l-6.955-5.509c-0.275-0.226-0.533-0.45-0.791-0.726
		c0.074,0.69,0.092,1.157,0.092,1.416v4.818h-1.98V99.846L142.467,99.846z"/>
	<path fill="#591F00" d="M171.371,101.435h-7.268v5.646h7.268V101.435L171.371,101.435z M164.25,99.846h6.975
		c1.779,0,2.348,0.431,2.348,2.106v4.696c0,1.676-0.568,2.108-2.348,2.108h-6.975c-1.781,0-2.35-0.433-2.35-2.108v-4.696
		C161.9,100.276,162.469,99.846,164.25,99.846L164.25,99.846z"/>
	<path fill="#591F00" d="M183.887,101.398v1.917h5.908c1.779,0,2.369,0.434,2.369,2.107v1.226c0,1.676-0.59,2.108-2.369,2.108
		h-5.854c-1.779,0-2.367-0.433-2.367-2.108v-0.242l1.945-0.379v1.054h6.699v-2.036h-5.91c-1.781,0-2.348-0.435-2.348-2.108v-0.984
		c0-1.676,0.566-2.106,2.348-2.106h5.377c1.688,0,2.35,0.414,2.35,1.951v0.188l-1.943,0.435v-1.021H183.887L183.887,101.398z"/>
	<path fill="#591F00" d="M157.279,62.532c0,0-0.143,1.266-0.266,2.011c-1.092,6.72,2.844,10.078,7.021,14.154l0.021-0.111
		l0.596-3.06l0.654-3.368c2.092-9.55,5.83-19.711-4.072-27.639c-6.412-5.132-13.781-10.383-33.859-10.01
		c-17.613,0.327-38.234,13.13-40.743,24.522c6.372-9.461,18.584-18.023,35.528-19.31C144.91,37.998,158.619,49.185,157.279,62.532
		L157.279,62.532z"/>
	<path fill="#591F00" d="M120.801,84.585c-1.363,0.183-2.682,0.375-3.965,0.576c-1.111,1.285-2.172,2.165-2.994,2.165
		c-0.777,0-1.104-0.743-1.174-1.475c-3.229,0.563-6.337,1.152-9.56,1.712c-0.006,0.174-0.016,0.351-0.016,0.524
		c0,0.454,0.035,0.914,0.099,1.371c5.288-0.91,10.545-1.937,16.536-2.771C120.123,85.985,120.484,85.279,120.801,84.585
		L120.801,84.585z"/>
	<path fill="#591F00" d="M164.861,65.151c-2.566-0.411-5.129-1.69-7.436-3.432l-0.615,3.376l-2.627-0.381
		c-4.457-0.651-10.154,3.209-13.572,7.936c-1.854,2.569-3.52,5.754-4.529,9.087c2.775-0.13,5.764-0.209,9.012-0.226
		c0.479-2.179,1.248-4.446,1.959-6.143c1.088-2.555,2.723-5.763,5.646-5.763c1.141,0,2.031,0.544,3.021,1.142l-0.842,4.783
		c-0.615,1.152-2.031,3.675-3.635,6.062c4.063,0.141,8.1,0.449,12.064,0.885l3.063-17.263
		C165.891,65.246,165.393,65.236,164.861,65.151L164.861,65.151z"/>
	<path fill="#591F00" d="M144.633,85.036c0.01-0.617,0.076-1.283,0.178-1.979c-3.303,0.021-6.336,0.105-9.15,0.244
		c-0.154,0.654-0.281,1.311-0.379,1.969c2.906-0.146,5.998-0.233,9.344-0.233H144.633L144.633,85.036z"/>
	<path fill="#591F00" d="M95.741,88.981c-2.936,0.351-5.317,0.652-8.779,0.879c0.05,0.579,0.365,1.159,0.409,1.738
		c2.813-0.122,4.737-0.249,7.282-0.512L95.741,88.981L95.741,88.981z"/>
	<path fill="#591F00" d="M193.914,89.828c-2.889-0.756-5.967-1.506-9.205-2.219l-0.363,1.685c3.793,0.809,6.924,1.598,9.264,2.228
		L193.914,89.828L193.914,89.828z"/>
	<path fill="#591F00" d="M171.32,73.194l-1.842,10.064c3.215,0.462,6.361,0.996,9.404,1.577l2.047-11.642l1.785-8.152l-12.582,0.325
		l-0.695,5.219l2.082,0.325L171.32,73.194L171.32,73.194z"/>
	<path fill="#591F00" d="M153.379,83.231c-1.064-0.052-2.129-0.092-3.195-0.122c-0.529,0.722-1.064,1.393-1.586,1.971
		c1.318,0.029,2.621,0.074,3.908,0.131C152.834,84.54,153.129,83.875,153.379,83.231L153.379,83.231z"/>
	<path fill="#591F00" d="M154.082,83.272l-0.459,1.992c3.137,0.156,6.168,0.385,9.072,0.671l0.344-1.935
		C160.086,83.681,157.092,83.435,154.082,83.272L154.082,83.272z"/>
	<path fill="#591F00" d="M121.789,84.455l-0.461,2.018c2.914-0.38,6.01-0.712,9.371-0.959l0.352-1.976
		C127.682,83.775,124.633,84.092,121.789,84.455L121.789,84.455z"/>
	<path fill="#591F00" d="M80.498,90.199c-2.447,0.078-6.022,0.121-8.801,0.122c-0.292,0-0.57-0.007-0.86-0.007
		c0.043,0.447,0.156,0.969,0.195,1.416c2.431,0.04,6.689-0.014,9.271-0.006L80.498,90.199L80.498,90.199z"/>
	<path fill="#591F00" d="M187.268,73.194l-2.266,12.898c3.227,0.708,6.305,1.456,9.188,2.208l0.656-3.638
		c1.189-2.119,6.143-10.979,8.223-10.979c0.596,0,0.844,0.597,0.398,3.043l-1.834,10.273l-0.701,3.161
		c4.777,1.39,8.746,2.697,11.629,3.701l0.564-4.254l-2.08-0.326l0.148-2.282l2.23-12.665c1.236-6.957-0.842-9.619-4.361-9.619
		c-5.895,0-11.047,7.771-12.979,13.262h-0.594l2.922-12.937l-12.283,0.325l-0.695,5.219l2.082,0.325L187.268,73.194L187.268,73.194z
		"/>
	<path fill="#591F00" d="M178.615,86.356c-3.047-0.582-6.195-1.116-9.414-1.576l-0.342,1.861c3.43,0.447,6.631,0.957,9.568,1.488
		l0.076-1.128L178.615,86.356L178.615,86.356z"/>
	<path fill="#591F00" d="M33.436,88.143l-1.028-1.482c-5.341-1.092-9.977-2.327-13.916-3.574l1.665,2.716
		c3.898,1.044,8.494,2.065,13.851,2.968L33.436,88.143L33.436,88.143z"/>
	<path fill="#591F00" d="M13.647,83.852l0.41-2.264c-3.537-1.282-6.321-2.506-8.404-3.519l-0.43,2.409
		c1.166,0.566,2.643,1.227,4.465,1.94C10.862,82.879,12.184,83.359,13.647,83.852L13.647,83.852z"/>
	<path fill="#591F00" d="M37.118,87.553c0.109,0.635,0.267,1.233,0.482,1.787c7.06,1.042,15.297,1.73,24.899,2.091l0.224-1.27
		C52.977,89.795,44.464,88.825,37.118,87.553L37.118,87.553z"/>
	<path fill="#591F00" d="M168.393,88.917l-1.234,5.911h12.533l0.57-4.002C176.727,90.146,172.74,89.48,168.393,88.917
		L168.393,88.917z"/>
	<path fill="#591F00" d="M103.799,91.709c0.868,2.124,2.514,3.771,4.842,3.771c3.547,0,6.91-2.782,9.416-6.209
		C113.014,90.031,108.43,90.91,103.799,91.709L103.799,91.709z"/>
	<path fill="#591F00" d="M130.383,87.856c-3.447,0.265-6.623,0.617-9.605,1.023l-1.436,6.273l12.334-0.325l0.693-5.219l-2.082-0.326
		L130.383,87.856L130.383,87.856z"/>
	<path fill="#591F00" d="M87.983,93.903c0.005,0.074,0.01,0.147,0.016,0.218l0.392,1.084l5.006-0.052l0.731-1.655
		C92.165,93.672,90.114,93.81,87.983,93.903L87.983,93.903z"/>
	<path fill="#591F00" d="M144.625,87.352c-3.426-0.002-6.582,0.088-9.547,0.241c-0.004,0.166-0.014,0.331-0.014,0.495
		c0,3.533,1.982,7.393,5.547,7.393c4.15,0,8.047-3.807,10.635-7.999C149.082,87.398,146.877,87.352,144.625,87.352L144.625,87.352z"
		/>
	<path fill="#591F00" d="M162.398,88.235c-2.973-0.292-6.08-0.525-9.299-0.679l-1.738,7.597l12.334-0.325l0.645-5.219l-2.031-0.326
		L162.398,88.235L162.398,88.235z"/>
	<path fill="#591F00" d="M200.598,91.676l-0.699,3.152h10.715C207.943,93.921,204.555,92.827,200.598,91.676L200.598,91.676z"/>
	<path fill="#591F00" d="M71.423,93.974c0.03,0.393,0.062,0.788,0.09,1.18H80.1l0.075-1.117
		C78.225,94.024,73.286,94.004,71.423,93.974L71.423,93.974z"/>
	<path fill="#591F00" d="M183.859,91.558l-0.703,3.271h9.857l0.184-1.018C190.873,93.179,187.715,92.381,183.859,91.558
		L183.859,91.558z"/>
	<path fill="#591F00" d="M52.403,70.586c1.536,0,2.328,1.413,2.328,2.989c0,1.956-1.04,3.643-2.526,4.675
		c-1.536,1.087-3.417,1.142-5.2,1.194C47.35,76.728,49.332,70.586,52.403,70.586L52.403,70.586z M36.963,85.961
		c3.223,0.565,6.683,1.072,10.376,1.497c-0.522-0.729-0.831-1.687-0.831-2.902C53.344,84.772,63.4,79.988,63.4,71.293
		c0-2.065-0.941-3.751-2.427-4.946c-1.586-1.305-3.369-1.631-5.35-1.631c-5.003,0-9.759,2.554-13.126,6.631
		c-3.072,3.696-5.549,9.24-5.549,14.351C36.948,85.788,36.96,85.87,36.963,85.961L36.963,85.961z"/>
	<path fill="#591F00" d="M62.995,88.621l0.554-3.142c-1.942,1.08-4.203,2.115-6.503,2.836C58.979,88.44,60.954,88.548,62.995,88.621
		L62.995,88.621z"/>
	<path fill="#591F00" d="M112.723,84.272c0.275-2.812,1.367-6.224,2.309-8.578c1.088-2.554,2.727-5.761,5.646-5.761
		c1.139,0,2.08,0.544,3.023,1.141l-0.844,4.783c-0.744,1.394-2.641,4.79-4.631,7.529c1.057-0.155,2.135-0.306,3.248-0.447
		c0.307-0.011,0.682-0.086,0.682-0.086c2.814-0.349,5.838-0.65,9.17-0.879l1.438-8.127l1.883-8.806l-6.885,0.325h-1.289
		l-4.607-0.651c-5.645,0-9.855,3.207-13.273,7.935c-2.589,3.647-4.84,8.532-5.376,13.324
		C106.404,85.417,109.494,84.83,112.723,84.272L112.723,84.272z"/>
	<path fill="#591F00" d="M91.522,86.968c0,0-1.02-8.11-0.885-13.518c0.13-5.19,0.34-6.693,0.34-6.693h-7.214
		c-3.165,4.439-5.511,9.944-6.805,17.572l-3.641-19.287l-7.209,0.325l-0.681,5.219l1.992,0.325
		c1.664,5.825,2.638,11.828,3.268,17.856c0.34,0.001,0.667,0.008,1.01,0.008c3.19,0.001,6.136-0.054,8.891-0.154l0.028-0.044
		c0.152-1.932,0.717-4.84,1.446-6.822c1.379-3.751,3.267-6.115,3.267-6.115c-0.069,8.046,0.545,9.462,1.051,12.686
		c2.019-0.133,3.929-0.29,5.754-0.469v-1.015C92.091,86.902,91.563,86.912,91.522,86.968L91.522,86.968z"/>
	<path fill="#591F00" d="M106.014,65.233l-10.738,0.327c1.415,1.577,2.234,3.785,2.234,5.96c0,3.625-4.948,12.41-7.213,15.515v1.014
		c1.774-0.174,4.382-0.366,6.014-0.574c0,0,10.28-15.391,10.28-19.903C106.591,66.756,106.38,65.94,106.014,65.233L106.014,65.233z"
		/>
	<path fill="#591F00" d="M39.157,91.899c2.197,2.476,5.716,3.581,9.085,3.581c3.575,0,7.095-0.741,10.501-1.888
		C51.433,93.239,44.938,92.681,39.157,91.899L39.157,91.899z"/>
	<path fill="#591F00" d="M21.899,88.646l0.393,0.638l-1.487,0.326l-1.338,5.219h15.802l0.456-3.432
		C30.462,90.572,25.868,89.629,21.899,88.646L21.899,88.646z"/>
	<path fill="#591F00" d="M8.272,63.356L5.934,76.489c2.023,1,4.818,2.243,8.404,3.557l0.522-2.883l2.387,3.893
		c0.414,0.138,0.82,0.276,1.252,0.415c3.598,1.154,7.804,2.308,12.631,3.348l-8.294-11.95l8.272-9.022l3.022-2.772l1.486-0.325
		l1.337-5.219H26.007l-0.645,5.219l1.486,0.325L15.505,73.521l1.931-10.382l0.645-2.066l1.486-0.325l1.287-5.219H7.133l-0.694,5.219
		l2.081,0.325L8.272,63.356L8.272,63.356z"/>
	<path fill="#591F00" d="M13.077,87.001l0.152-0.847c-3.627-1.203-6.402-2.357-8.428-3.31l-0.74,4.156l-0.693,2.282l-2.08,0.326
		L0,94.828h13.721l0.744-5.219l-1.486-0.326L13.077,87.001L13.077,87.001z"/>
</g>
</svg>
