<?xml version="1.0" encoding="utf-8"?>
<!-- Generator: Adobe Illustrator 15.0.0, SVG Export Plug-In . SVG Version: 6.00 Build 0)  -->
<!DOCTYPE svg PUBLIC "-//W3C//DTD SVG 1.1//EN" "http://www.w3.org/Graphics/SVG/1.1/DTD/svg11.dtd">
<svg version="1.1" id="Layer_1" xmlns="http://www.w3.org/2000/svg" xmlns:xlink="http://www.w3.org/1999/xlink" x="0px" y="0px"
	 width="668.24px" height="171.715px" viewBox="0 0 668.24 171.715" enable-background="new 0 0 668.24 171.715"
	 xml:space="preserve">
<polygon fill-rule="evenodd" clip-rule="evenodd" stroke="#000000" stroke-width="0.072" stroke-miterlimit="2.6131" points="0,0 
	641.067,0 641.067,171.715 0,171.715 0,0 "/>
<path fill-rule="evenodd" clip-rule="evenodd" fill="#FFFFFF" stroke="#000000" stroke-width="0.072" stroke-miterlimit="2.6131" d="
	M585.675,52.751h10.436c1.08-3.239,2.879-10.075-2.879-10.075S586.395,48.074,585.675,52.751L585.675,52.751z M609.424,62.107
	h-25.908l-2.158,10.076c0,2.518,0.359,3.958,3.598,3.958c5.398,0,6.117-3.958,7.197-8.636h15.112
	c-2.159,13.314-11.874,19.072-24.828,19.072c-11.516,0-17.992-3.959-16.192-15.833l3.957-17.992
	c3.239-13.673,11.516-19.431,25.189-19.431c11.874,0,19.432,3.958,16.913,16.192L609.424,62.107L609.424,62.107z M528.1,84.058
	c-9.715-0.36-10.795-8.636-8.996-16.193l4.318-19.072c1.439-8.277,7.917-15.473,16.553-15.473c7.916,0,10.436,7.556,10.796,7.556
	l1.438-6.477h14.035l-11.155,52.177c-2.52,11.155-14.035,15.474-24.47,15.474c-10.795,0-18.352-1.8-16.553-14.035h15.473
	c-1.079,3.599,0,4.679,3.6,4.679c3.598,0,5.037-1.08,5.757-4.679l2.158-9.715C539.975,78.3,536.017,84.418,528.1,84.058
	L528.1,84.058z M543.573,67.145l3.599-16.912c0.719-2.519,0-5.398-3.238-5.398c-3.239,0-5.397,2.879-5.758,5.757l-3.958,16.194
	c0,2.518-0.36,5.397,3.238,5.397C540.694,72.184,542.854,70.384,543.573,67.145L543.573,67.145L543.573,67.145z M493.556,79.38
	c-3.599,4.318-8.637,7.197-14.034,7.197c-10.795,0-10.076-11.516-8.637-19.072l4.679-19.431c1.799-7.558,7.917-15.114,16.192-15.114
	c6.837,0,9.716,6.118,10.076,6.118l5.037-21.591h15.114l-15.114,67.65h-14.393L493.556,79.38L493.556,79.38z M498.593,52.751
	c0.36-2.159,1.44-7.916-2.159-7.916c-3.598,0-5.757,3.598-6.477,6.477l-3.959,17.632c-0.359,2.518-0.719,6.117,2.88,6.117
	c4.317,0,5.758-3.599,6.477-6.837L498.593,52.751L498.593,52.751z M419.429,85.137l15.473-68.009h38.503l-2.879,14.033h-21.591
	l-2.878,12.235h20.871l-2.88,13.314h-21.229l-3.239,14.753h23.03l-3.238,13.674H419.429L419.429,85.137z M347.82,85.137
	L359.334,34.4h14.035l-1.08,6.477c2.879-4.678,7.557-7.556,13.314-7.556c5.757,0,11.515,3.599,10.435,9.715l-9.715,42.102H371.21
	l8.275-35.984c0-2.519,0.36-4.318-3.238-4.318c-2.878,0.359-4.318,1.799-5.037,4.677l-8.277,35.625H347.82L347.82,85.137z
	 M326.949,71.104l4.677-20.512c0.36-2.518,1.439-7.196-2.878-7.196c-3.239,0-5.398,2.159-6.117,6.117l-5.039,21.591
	c-0.719,2.878-0.719,5.397,3.238,5.397C324.43,76.501,325.87,74.702,326.949,71.104L326.949,71.104z M307.158,48.793
	c2.878-11.155,12.234-15.473,23.029-15.473c11.875,0,18.712,4.318,16.912,16.553l-3.958,17.992
	c-3.238,14.034-11.155,19.071-25.908,19.071c-10.796,0-17.993-4.677-15.115-16.553L307.158,48.793L307.158,48.793z M287.006,29.722
	l2.519-12.235h15.113l-2.52,12.235H287.006L287.006,29.722z M274.052,85.137L285.567,34.4h15.473l-11.515,50.737H274.052
	L274.052,85.137z M244.905,69.664c-1.08,4.318-0.719,7.557,5.039,7.557c2.878-0.36,5.397-2.159,5.397-5.397
	c0-5.037-6.837-6.117-10.436-7.917c-6.477-2.878-10.795-6.837-9.716-14.394c1.44-11.875,13.675-16.192,24.109-16.192
	c10.076,0,17.993,5.037,15.474,16.192h-14.394c0.36-3.598,1.08-6.836-3.958-6.836c-3.238,0-7.917,3.598-5.397,6.836
	c2.159,2.879,8.636,5.039,11.515,6.477c6.118,2.879,10.076,6.837,8.277,13.674c-2.879,12.954-13.674,16.913-25.909,16.913
	c-11.875,0-16.913-5.397-14.394-16.913H244.905L244.905,69.664z M217.557,29.722l2.878-12.235h15.114l-2.519,12.235H217.557
	L217.557,29.722z M204.962,85.137L216.478,34.4h15.473l-11.515,50.737H204.962L204.962,85.137z M190.929,64.627h14.754
	c-2.52,14.753-9.356,21.95-24.83,21.95c-11.514,0-19.071-3.599-16.193-16.193l5.397-22.31c2.52-11.516,11.516-14.754,21.951-14.754
	c14.753,0,19.432,6.117,15.833,20.151h-14.394c0.36-2.52,0.719-4.678,0.719-5.757c0-2.879-1.08-4.318-3.238-4.318
	c-3.239,0-5.398,1.799-6.117,5.397l-5.039,22.311c0,2.159-0.359,5.038,2.879,5.038c2.159,0,3.958-0.72,5.397-2.159
	C189.13,72.184,190.209,68.945,190.929,64.627L190.929,64.627z M134.793,52.751h10.795c1.08-3.239,2.879-10.075-2.878-10.075
	C136.592,42.677,135.873,48.074,134.793,52.751L134.793,52.751z M158.543,62.107h-25.909l-1.799,10.076
	c0,2.518,0.359,3.958,3.598,3.958c2.52,0,4.318-0.36,5.398-2.878c0.36-1.08,1.08-2.879,1.799-5.758h15.113
	c-2.159,13.314-11.875,19.072-24.829,19.072c-11.875,0-17.992-3.959-16.553-15.833l4.318-17.992
	c2.878-13.673,11.155-19.431,25.188-19.431c11.514,0,19.431,3.958,16.913,16.192L158.543,62.107L158.543,62.107z M80.817,85.137
	L92.333,34.4h14.034l-1.44,7.917l0,0c1.8-2.879,3.599-5.038,5.397-6.477c2.159-1.8,5.039-2.519,8.277-2.519l-3.599,16.192
	c-6.117-0.359-10.436-1.438-12.234,6.477L95.93,85.137H80.817L80.817,85.137z M54.189,46.634c6.477,0,11.875-0.36,13.314-8.277
	c0.719-8.995,0-8.636-9.715-8.636L54.189,46.634L54.189,46.634z M28.281,85.137l15.113-67.65h21.95
	c14.034,0,23.03,4.678,19.431,20.151c-3.598,15.833-13.313,20.871-28.427,21.231c-1.438,0-2.878-0.36-5.037-0.36l-6.118,26.628
	H28.281L28.281,85.137z"/>
<polygon fill-rule="evenodd" clip-rule="evenodd" fill="#FFFFFF" points="7.632,111.914 633.436,111.914 633.436,164.204 
	7.632,164.204 7.632,111.914 "/>
<path fill="#EF3A42" d="M17.979,141.205h5.414c0,1.589,0.38,2.723,1.134,3.396c0.76,0.673,2.069,1.009,3.944,1.009
	c0.885,0,1.788-0.131,2.71-0.386c0.922-0.262,1.701-0.68,2.349-1.253c0.642-0.573,0.997-1.302,1.065-2.174
	c0-0.866-0.33-1.483-0.984-1.856c-0.654-0.368-1.657-0.723-3.009-1.06c-1.539-0.38-3.015-0.754-4.43-1.121
	c-1.42-0.368-2.635-0.879-3.651-1.521c-1.016-0.648-1.632-1.545-1.857-2.704c-0.075-0.404-0.112-0.841-0.112-1.302
	c0-1.209,0.243-2.411,0.723-3.613c0.486-1.209,1.228-2.312,2.218-3.321c0.99-1.003,2.255-1.813,3.794-2.43s3.309-0.922,5.302-0.922
	c1.564,0,3.034,0.243,4.405,0.735s2.492,1.265,3.352,2.323c0.86,1.06,1.29,2.393,1.29,4.007c0,0.722-0.025,1.258-0.075,1.606h-5.42
	c0-1.52-0.43-2.579-1.29-3.171c-0.86-0.598-1.863-0.896-3.009-0.896c-1.482,0-2.829,0.33-4.031,0.996
	c-1.203,0.66-1.801,1.688-1.801,3.071c0.025,0.636,0.324,1.115,0.903,1.452c0.573,0.336,1.688,0.704,3.327,1.108
	c1.645,0.405,2.536,0.623,2.667,0.661c1.433,0.367,2.511,0.654,3.221,0.878c0.716,0.219,1.408,0.53,2.075,0.935
	c0.672,0.411,1.177,0.923,1.526,1.546c0.392,0.753,0.592,1.676,0.592,2.766c0,1.152-0.256,2.33-0.76,3.526s-1.29,2.306-2.349,3.34
	c-1.065,1.034-2.43,1.869-4.087,2.504c-1.657,0.629-3.57,0.947-5.732,0.947c-1.919,0-3.595-0.249-5.034-0.741
	c-1.439-0.498-2.561-1.277-3.365-2.337c-0.804-1.053-1.221-2.398-1.246-4.018C17.823,142.569,17.898,141.909,17.979,141.205
	L17.979,141.205z"/>
<path fill="#EF3A42" d="M44.869,142.47l2.803-12.859h5.165l-2.548,12.342c-0.068,0.405-0.106,0.767-0.106,1.078
	c0,0.841,0.23,1.489,0.704,1.925c0.467,0.442,1.065,0.673,1.794,0.691c1.14-0.019,2.206-0.404,3.208-1.158s1.614-1.726,1.838-2.91
	l2.585-11.968h5.302l-4.218,19.924h-5.047l0.592-2.834c-1.035,1.127-2.094,1.975-3.178,2.529c-1.09,0.555-2.342,0.828-3.775,0.828
	c-3.564,0-5.383-1.682-5.458-5.046c0.031-0.361,0.081-0.791,0.162-1.296C44.769,143.211,44.825,142.794,44.869,142.47L44.869,142.47
	z"/>
<path fill="#EF3A42" d="M67.322,149.534l4.193-19.924h5.046l-0.748,3.445v0.068c0.206-0.255,0.573-0.697,1.096-1.34
	c0.53-0.642,1.24-1.252,2.144-1.831c0.897-0.58,1.925-0.872,3.078-0.872c0.449,0,0.797,0.024,1.047,0.081l-1.159,5.345
	c-0.162,0-0.423-0.012-0.778-0.037c-0.349-0.024-0.629-0.037-0.829-0.037c-1.539,0-2.779,0.393-3.713,1.171
	c-0.941,0.785-1.595,2.112-1.975,3.987l-2.206,9.943H67.322L67.322,149.534z"/>
<path fill="#EF3A42" d="M83.975,141.049c0.255-2.081,0.81-4.031,1.657-5.851c0.847-1.813,2.037-3.289,3.563-4.417
	c1.526-1.134,3.358-1.7,5.501-1.7c2.873,0,4.58,1.221,5.122,3.669l0.642-3.14h5.047l-4.23,19.85
	c-0.48,2.236-1.583,4.162-3.309,5.775c-1.726,1.607-4.374,2.411-7.943,2.411c-2.343,0-4.268-0.418-5.769-1.259
	c-1.508-0.841-2.262-2.124-2.262-3.856c0-0.174,0.025-0.467,0.075-0.866h5.669c0,0.667,0.274,1.159,0.816,1.477
	c0.548,0.312,1.258,0.468,2.143,0.468c0.723,0,1.396-0.063,2.019-0.181c0.891-0.193,1.588-0.623,2.106-1.296
	c0.511-0.673,0.891-1.434,1.14-2.287c0.243-0.854,0.486-1.925,0.716-3.221c-1.482,1.987-3.526,2.984-6.13,2.984
	c-0.156,0-0.393-0.013-0.71-0.037c-0.317-0.025-0.542-0.038-0.673-0.038c-1.657-0.273-2.953-0.99-3.888-2.143
	c-0.935-1.159-1.42-2.735-1.458-4.735C83.925,141.865,83.975,141.329,83.975,141.049L83.975,141.049z M89.426,141.578
	c0,1.153,0.305,2.057,0.916,2.704c0.604,0.648,1.371,0.991,2.299,1.028c0.891-0.149,1.688-0.455,2.393-0.91
	c0.704-0.461,1.321-1.046,1.838-1.757c0.523-0.716,0.916-1.495,1.177-2.336s0.393-1.701,0.393-2.579
	c0-0.879-0.149-1.614-0.455-2.212c-0.299-0.599-0.698-1.053-1.184-1.364c-0.492-0.312-1.015-0.492-1.576-0.542
	c-0.928,0-1.838,0.286-2.729,0.866c-0.897,0.579-1.639,1.457-2.231,2.641c-0.592,1.178-0.897,2.611-0.922,4.306
	c0.038,0.031,0.056,0.063,0.069,0.094C89.42,141.541,89.426,141.566,89.426,141.578L89.426,141.578z"/>
<path fill="#EF3A42" d="M107.132,149.534l4.255-19.924h5.24l-4.156,19.924H107.132L107.132,149.534z M111.879,127.262l1.041-4.903
	h5.24l-1.015,4.903H111.879L111.879,127.262z"/>
<path fill="#EF3A42" d="M119.162,144.937c-0.075-0.554-0.112-1.152-0.112-1.788c0-1.589,0.25-3.208,0.754-4.854
	c0.499-1.645,1.252-3.171,2.243-4.566c0.997-1.402,2.243-2.523,3.732-3.377c1.495-0.847,3.202-1.271,5.115-1.271h0.449
	c1.439,0,2.698,0.255,3.782,0.772c1.09,0.517,1.925,1.258,2.517,2.218c0.592,0.959,0.885,2.093,0.885,3.401
	c0,0.523-0.025,0.922-0.081,1.196h-5.339c0-1.221-0.218-2.05-0.654-2.492c-0.442-0.436-1.09-0.679-1.962-0.723
	c-1.377,0-2.504,0.468-3.377,1.402c-0.878,0.934-1.514,2.056-1.913,3.37s-0.648,2.647-0.76,4.013
	c0.099,2.323,1.171,3.482,3.214,3.482c1.159,0,2.087-0.393,2.785-1.171c0.704-0.779,1.184-1.546,1.439-2.306h5.258
	c-0.168,0.885-0.704,1.95-1.601,3.19c-0.897,1.239-2.112,2.317-3.651,3.239s-3.302,1.383-5.29,1.383
	C122.19,149.996,119.71,148.288,119.162,144.937L119.162,144.937z"/>
<path fill="#EF3A42" d="M140.401,143.778c0.224-0.997,0.654-1.926,1.29-2.772c0.636-0.848,1.521-1.564,2.654-2.144
	c1.127-0.586,2.486-0.96,4.062-1.141c0.673-0.056,1.52-0.13,2.536-0.236c1.016-0.1,1.851-0.349,2.499-0.729
	c0.654-0.386,0.978-0.996,0.978-1.844c0-1.071-0.984-1.607-2.959-1.607c-2.038,0-3.29,0.91-3.769,2.729h-5.046
	c0.448-1.439,1.059-2.667,1.837-3.683c0.779-1.016,1.807-1.794,3.084-2.355c1.277-0.554,2.878-0.859,4.803-0.915
	c2.386,0,4.218,0.393,5.508,1.171c1.29,0.785,1.931,1.9,1.931,3.358c0,0.448-0.025,0.797-0.075,1.046l-2.393,11.439
	c-0.025,0.168-0.043,0.312-0.068,0.417c-0.019,0.112-0.038,0.212-0.056,0.299c-0.013,0.088-0.031,0.188-0.05,0.312
	c-0.025,0.119-0.043,0.212-0.05,0.287c0.043,0.66,0.305,1.109,0.785,1.34l-0.15,0.784h-5.613c-0.025-0.112-0.05-0.28-0.075-0.511
	c-0.024-0.23-0.049-0.398-0.074-0.504c0.05-0.343,0.074-0.792,0.074-1.34c-1.09,0.891-2.137,1.589-3.14,2.105
	c-1.003,0.518-2.224,0.772-3.657,0.772c-1.371,0-2.567-0.336-3.588-1.015c-1.022-0.68-1.551-1.789-1.577-3.321
	C140.195,144.874,140.295,144.227,140.401,143.778L140.401,143.778z M146.375,142.395c-0.561,0.53-0.878,1.203-0.965,2.019
	c0.068,0.617,0.255,1.054,0.573,1.309c0.312,0.256,0.804,0.479,1.483,0.673c1.533-0.094,2.891-0.647,4.081-1.676
	c0.499-0.492,0.854-0.979,1.078-1.464c0.225-0.486,0.411-1.097,0.573-1.839c0.156-0.741,0.293-1.271,0.398-1.601
	c-0.654,0.405-1.663,0.729-3.021,0.96c-1.358,0.23-2.262,0.404-2.723,0.529S146.899,141.797,146.375,142.395L146.375,142.395z"/>
<polygon fill="#EF3A42" points="162.542,149.534 168.331,122.657 173.57,122.657 167.807,149.534 162.542,149.534 "/>
<path fill="#EF3A42" d="M183.563,149.534l5.757-26.877h12.074c2.398,0,4.137,0.599,5.221,1.801c1.084,1.202,1.626,2.747,1.626,4.623
	c0,1.875-0.467,3.638-1.408,5.289s-2.224,2.972-3.838,3.963c-1.62,0.99-3.371,1.482-5.258,1.482h-6.511l-2.019,9.719H183.563
	L183.563,149.534z M192.192,135.211h5.545c0.91,0,1.738-0.236,2.474-0.704c0.741-0.467,1.314-1.096,1.726-1.881
	s0.617-1.633,0.617-2.529c0-0.973-0.299-1.688-0.897-2.15c-0.598-0.454-1.552-0.685-2.847-0.685h-4.928L192.192,135.211
	L192.192,135.211z"/>
<path fill="#EF3A42" d="M209.226,149.534l4.193-19.924h5.046l-0.748,3.445v0.068c0.206-0.255,0.573-0.697,1.096-1.34
	c0.53-0.642,1.24-1.252,2.144-1.831c0.897-0.58,1.925-0.872,3.078-0.872c0.449,0,0.797,0.024,1.047,0.081l-1.159,5.345
	c-0.162,0-0.424-0.012-0.778-0.037c-0.349-0.024-0.629-0.037-0.829-0.037c-1.539,0-2.779,0.393-3.713,1.171
	c-0.941,0.785-1.595,2.112-1.975,3.987l-2.206,9.943H209.226L209.226,149.534z"/>
<path fill="#EF3A42" d="M226.321,138.064c0.592-1.607,1.396-3.084,2.417-4.417c1.021-1.34,2.349-2.437,3.981-3.29
	c1.632-0.853,3.563-1.276,5.788-1.276c1.37,0,2.554,0.199,3.563,0.592c1.009,0.398,1.838,0.953,2.486,1.676
	c0.654,0.723,1.134,1.563,1.452,2.529c0.312,0.966,0.467,2.019,0.467,3.171c0,1.732-0.324,3.384-0.978,4.972
	c-0.648,1.583-1.57,2.984-2.76,4.193c-1.19,1.215-2.567,2.155-4.137,2.829c-1.564,0.679-3.228,1.015-4.984,1.015
	c-2.76,0-4.779-0.754-6.056-2.262c-1.284-1.514-1.944-3.383-1.987-5.625C225.654,140.551,225.903,139.18,226.321,138.064
	L226.321,138.064z M231.336,139.51c-0.143,0.822-0.23,1.633-0.268,2.437c0.037,2.467,1.271,3.7,3.694,3.7
	c1.321,0,2.461-0.41,3.42-1.239c0.959-0.822,1.676-1.869,2.156-3.14c0.479-1.271,0.716-2.555,0.716-3.851
	c0-1.203-0.28-2.144-0.835-2.822c-0.554-0.68-1.376-1.034-2.461-1.072C234.302,133.522,232.158,135.517,231.336,139.51
	L231.336,139.51z"/>
<path fill="#EF3A42" d="M249.703,144.793c-0.025-0.262-0.063-0.647-0.106-1.158c-0.05-0.518-0.087-0.903-0.112-1.165
	c0.019-1.558,0.287-3.128,0.804-4.717s1.252-3.034,2.211-4.336c0.96-1.302,2.137-2.349,3.533-3.146
	c1.402-0.791,2.94-1.189,4.623-1.189c2.455,0.093,4.068,1.165,4.835,3.221l2.087-9.645h5.277l-5.757,26.877h-5.121l0.517-2.541
	c-1.563,1.956-3.632,2.978-6.205,3.064c-1.196,0-2.249-0.192-3.159-0.573c-0.916-0.386-1.664-0.965-2.25-1.75
	C250.294,146.955,249.902,145.971,249.703,144.793L249.703,144.793z M255.092,140.189c-0.013,0.174-0.031,0.436-0.05,0.797
	c-0.019,0.355-0.038,0.63-0.063,0.811c0,1.252,0.299,2.212,0.897,2.878c0.592,0.66,1.377,1.01,2.355,1.047
	c1.327-0.106,2.455-0.555,3.383-1.346c0.935-0.798,1.632-1.801,2.093-3.016c0.461-1.221,0.692-2.505,0.692-3.862
	c0-2.592-1.122-3.888-3.364-3.888c-1.315,0-2.536,0.523-3.651,1.576C256.269,136.233,255.503,137.902,255.092,140.189
	L255.092,140.189z"/>
<path fill="#EF3A42" d="M274.405,142.47l2.803-12.859h5.165l-2.548,12.342c-0.068,0.405-0.106,0.767-0.106,1.078
	c0,0.841,0.23,1.489,0.704,1.925c0.467,0.442,1.065,0.673,1.794,0.691c1.14-0.019,2.206-0.404,3.208-1.158s1.614-1.726,1.838-2.91
	l2.585-11.968h5.302l-4.218,19.924h-5.047l0.592-2.834c-1.034,1.127-2.093,1.975-3.177,2.529c-1.09,0.555-2.342,0.828-3.776,0.828
	c-3.563,0-5.383-1.682-5.458-5.046c0.031-0.361,0.081-0.791,0.162-1.296C274.305,143.211,274.361,142.794,274.405,142.47
	L274.405,142.47z"/>
<path fill="#EF3A42" d="M297.538,144.937c-0.075-0.554-0.112-1.152-0.112-1.788c0-1.589,0.249-3.208,0.753-4.854
	c0.499-1.645,1.252-3.171,2.243-4.566c0.997-1.402,2.243-2.523,3.732-3.377c1.495-0.847,3.202-1.271,5.115-1.271h0.448
	c1.439,0,2.698,0.255,3.782,0.772c1.09,0.517,1.925,1.258,2.517,2.218c0.592,0.959,0.885,2.093,0.885,3.401
	c0,0.523-0.025,0.922-0.081,1.196h-5.339c0-1.221-0.218-2.05-0.654-2.492c-0.442-0.436-1.09-0.679-1.963-0.723
	c-1.377,0-2.504,0.468-3.376,1.402c-0.878,0.934-1.514,2.056-1.913,3.37c-0.398,1.314-0.648,2.647-0.76,4.013
	c0.1,2.323,1.171,3.482,3.215,3.482c1.159,0,2.087-0.393,2.785-1.171c0.704-0.779,1.184-1.546,1.439-2.306h5.258
	c-0.168,0.885-0.704,1.95-1.602,3.19c-0.897,1.239-2.112,2.317-3.651,3.239c-1.539,0.922-3.302,1.383-5.29,1.383
	C300.565,149.996,298.085,148.288,297.538,144.937L297.538,144.937z"/>
<path fill="#EF3A42" d="M320.57,144.189l2.355-10.872h-2.691l0.785-3.707h2.691l1.196-5.42h5.159l-1.084,5.42h3.221l-0.829,3.707
	h-3.215l-2.393,11.171c0,0.492,0.106,0.822,0.318,0.99s0.542,0.274,0.984,0.312c0.903-0.093,1.489-0.144,1.763-0.144l-0.86,3.957
	c-0.448,0.05-1.333,0.074-2.654,0.074c-1.533,0-2.76-0.155-3.682-0.461c-0.916-0.306-1.408-1.053-1.477-2.23
	C320.247,146.064,320.383,145.13,320.57,144.189L320.57,144.189z"/>
<path fill="#EF3A42" d="M332.432,143.187h5.352c0,1.899,1.121,2.891,3.364,2.983c1.003-0.037,1.912-0.23,2.723-0.585
	c0.804-0.361,1.283-0.823,1.42-1.396c0-0.63-0.33-1.104-0.997-1.421c-0.66-0.312-1.737-0.642-3.227-0.984s-2.536-0.623-3.141-0.841
	c-2.161-0.866-3.245-2.361-3.245-4.492c0-0.349,0.012-0.61,0.037-0.785c0.548-4.33,3.844-6.548,9.869-6.653
	c2.604,0,4.461,0.522,5.563,1.576c1.103,1.053,1.65,2.36,1.65,3.918c0,0.523-0.024,0.91-0.074,1.159h-5.196
	c0.05-0.243,0.075-0.417,0.075-0.523c0-0.686-0.287-1.202-0.866-1.558c-0.58-0.354-1.309-0.529-2.199-0.529
	c-0.941,0-1.77,0.187-2.48,0.567c-0.71,0.373-1.064,0.859-1.064,1.451c0.024,0.573,0.38,0.997,1.046,1.283
	c0.667,0.287,1.72,0.586,3.159,0.892c1.439,0.305,2.492,0.579,3.152,0.815c2.206,0.804,3.377,1.976,3.508,3.514
	c0,1.62-0.442,3.065-1.327,4.337c-0.885,1.271-2.094,2.268-3.626,2.99c-1.533,0.729-3.215,1.109-5.059,1.152
	c-1.508,0-2.916-0.181-4.212-0.548c-1.302-0.361-2.349-0.947-3.146-1.744c-0.804-0.804-1.215-1.819-1.24-3.047
	c0.043-0.368,0.075-0.66,0.1-0.892C332.376,143.591,332.401,143.379,332.432,143.187L332.432,143.187z"/>
<path fill="#EF3A42" d="M365.677,135.747c0.448-1.925,1.128-3.72,2.031-5.39c0.903-1.663,2.006-3.127,3.314-4.379
	c1.309-1.259,2.828-2.243,4.561-2.96c1.731-0.717,3.613-1.071,5.645-1.071c1.521,0,2.872,0.212,4.056,0.642
	c1.184,0.424,2.175,1.021,2.979,1.794c0.797,0.773,1.396,1.657,1.794,2.66c0.393,1.004,0.592,2.068,0.592,3.203
	c0,0.243-0.024,0.642-0.074,1.202h-5.614c0-0.953-0.199-1.782-0.604-2.479c-0.405-0.704-0.96-1.228-1.67-1.583
	c-0.704-0.354-1.502-0.535-2.398-0.535c-1.527,0-2.872,0.386-4.031,1.165c-1.165,0.772-2.131,1.794-2.897,3.064
	c-0.766,1.271-1.346,2.643-1.731,4.101c-0.393,1.457-0.617,2.903-0.686,4.329c0,1.327,0.225,2.431,0.667,3.314
	c0.442,0.879,1.04,1.533,1.8,1.957c0.754,0.424,1.602,0.647,2.542,0.679c0.779-0.031,1.539-0.168,2.28-0.417
	c0.748-0.25,1.445-0.604,2.1-1.065c0.654-0.462,1.222-1.004,1.701-1.633s0.822-1.302,1.021-2.013h5.688
	c-0.474,1.146-1.084,2.274-1.825,3.39c-0.735,1.109-1.657,2.168-2.761,3.159c-1.108,0.996-2.411,1.807-3.925,2.43
	c-1.508,0.623-3.158,0.935-4.953,0.935c-0.08,0-0.205-0.007-0.386-0.019c-0.175-0.013-0.312-0.02-0.399-0.02
	c-2.111-0.074-3.868-0.535-5.264-1.389c-1.402-0.848-2.437-2-3.109-3.445c-0.667-1.452-1.016-3.128-1.047-5.041
	C365.142,138.968,365.341,137.436,365.677,135.747L365.677,135.747z"/>
<path fill="#EF3A42" d="M393.12,138.064c0.593-1.607,1.396-3.084,2.418-4.417c1.021-1.34,2.349-2.437,3.981-3.29
	c1.632-0.853,3.563-1.276,5.787-1.276c1.371,0,2.555,0.199,3.564,0.592c1.009,0.398,1.838,0.953,2.485,1.676
	c0.654,0.723,1.134,1.563,1.452,2.529c0.311,0.966,0.467,2.019,0.467,3.171c0,1.732-0.324,3.384-0.979,4.972
	c-0.647,1.583-1.569,2.984-2.76,4.193c-1.189,1.215-2.566,2.155-4.137,2.829c-1.563,0.679-3.228,1.015-4.984,1.015
	c-2.76,0-4.778-0.754-6.056-2.262c-1.283-1.514-1.944-3.383-1.987-5.625C392.454,140.551,392.703,139.18,393.12,138.064
	L393.12,138.064z M398.136,139.51c-0.143,0.822-0.23,1.633-0.268,2.437c0.037,2.467,1.271,3.7,3.694,3.7
	c1.321,0,2.461-0.41,3.421-1.239c0.959-0.822,1.676-1.869,2.155-3.14c0.479-1.271,0.717-2.555,0.717-3.851
	c0-1.203-0.281-2.144-0.835-2.822c-0.555-0.68-1.377-1.034-2.461-1.072C401.102,133.522,398.958,135.517,398.136,139.51
	L398.136,139.51z"/>
<path fill="#EF3A42" d="M415.687,149.534l4.187-19.924h5.046l-0.598,2.99c1.8-2.349,4.043-3.52,6.734-3.52
	c1.091,0,2.007,0.249,2.76,0.747c0.755,0.499,1.365,1.321,1.832,2.467c1.801-2.143,3.845-3.214,6.131-3.214
	c1.078,0,2.037,0.192,2.872,0.573c0.835,0.386,1.489,0.94,1.956,1.669c0.468,0.735,0.704,1.595,0.704,2.586
	c0,0.548-0.024,0.935-0.074,1.159l-2.997,14.466h-5.302l2.623-12.192c0.093-0.654,0.143-1.097,0.143-1.314
	c0-0.878-0.199-1.532-0.592-1.95c-0.398-0.417-0.935-0.623-1.613-0.623c-0.885,0-1.757,0.349-2.61,1.041
	c-0.86,0.691-1.396,1.569-1.62,2.622l-2.679,12.417h-5.277l2.767-13.015c0.05-0.299,0.074-0.529,0.074-0.673
	c0-0.747-0.242-1.333-0.729-1.757c-0.479-0.424-1.109-0.636-1.882-0.636c-0.872,0-1.694,0.312-2.479,0.929
	c-0.778,0.623-1.277,1.464-1.489,2.517l-2.61,12.635H415.687L415.687,149.534z"/>
<path fill="#EF3A42" d="M448.332,157.197l5.906-27.587h4.979l-0.604,2.997c0.729-0.904,1.595-1.688,2.585-2.367
	c0.997-0.674,2.057-1.06,3.172-1.159c4.386,0,6.828,1.881,7.326,5.65c0,0.149,0.013,0.405,0.038,0.761
	c0.024,0.349,0.037,0.622,0.037,0.81c0,2.105-0.455,4.23-1.371,6.373c-0.915,2.149-2.218,3.913-3.906,5.302
	c-1.682,1.39-3.601,2.081-5.744,2.081c-1.152,0-2.174-0.262-3.071-0.778c-0.891-0.518-1.526-1.277-1.906-2.286l-2.28,10.204H448.332
	L448.332,157.197z M457.379,138.582c-0.374,1.239-0.599,2.33-0.673,3.289c0.037,1.134,0.33,2.025,0.884,2.667
	c0.555,0.642,1.253,1.016,2.106,1.108c0.299,0,0.523,0.025,0.679,0.075c1.184-0.037,2.225-0.479,3.121-1.333
	c0.897-0.854,1.583-1.906,2.063-3.172c0.48-1.264,0.717-2.479,0.717-3.645c0-0.816-0.131-1.521-0.387-2.111
	c-0.255-0.586-0.61-1.035-1.077-1.347c-0.468-0.305-1.022-0.473-1.677-0.504c-1.444,0-2.635,0.398-3.563,1.196
	C458.637,135.604,457.908,136.862,457.379,138.582L457.379,138.582z"/>
<path fill="#EF3A42" d="M474,143.778c0.225-0.997,0.654-1.926,1.29-2.772c0.636-0.848,1.521-1.564,2.654-2.144
	c1.128-0.586,2.485-0.96,4.062-1.141c0.673-0.056,1.521-0.13,2.536-0.236c1.016-0.1,1.851-0.349,2.498-0.729
	c0.654-0.386,0.979-0.996,0.979-1.844c0-1.071-0.984-1.607-2.96-1.607c-2.037,0-3.289,0.91-3.769,2.729h-5.047
	c0.448-1.439,1.06-2.667,1.838-3.683s1.807-1.794,3.084-2.355c1.277-0.554,2.879-0.859,4.804-0.915c2.386,0,4.218,0.393,5.508,1.171
	c1.289,0.785,1.931,1.9,1.931,3.358c0,0.448-0.024,0.797-0.074,1.046l-2.393,11.439c-0.024,0.168-0.044,0.312-0.068,0.417
	c-0.019,0.112-0.038,0.212-0.057,0.299c-0.012,0.088-0.031,0.188-0.05,0.312c-0.024,0.119-0.043,0.212-0.05,0.287
	c0.044,0.66,0.306,1.109,0.785,1.34l-0.149,0.784h-5.613c-0.024-0.112-0.05-0.28-0.075-0.511c-0.024-0.23-0.05-0.398-0.074-0.504
	c0.05-0.343,0.074-0.792,0.074-1.34c-1.09,0.891-2.137,1.589-3.14,2.105c-1.003,0.518-2.225,0.772-3.657,0.772
	c-1.371,0-2.567-0.336-3.589-1.015c-1.021-0.68-1.551-1.789-1.576-3.321C473.795,144.874,473.895,144.227,474,143.778L474,143.778z
	 M479.976,142.395c-0.562,0.53-0.879,1.203-0.966,2.019c0.068,0.617,0.255,1.054,0.573,1.309c0.312,0.256,0.804,0.479,1.482,0.673
	c1.532-0.094,2.891-0.647,4.081-1.676c0.498-0.492,0.854-0.979,1.078-1.464c0.224-0.486,0.41-1.097,0.573-1.839
	c0.155-0.741,0.292-1.271,0.398-1.601c-0.654,0.405-1.664,0.729-3.022,0.96c-1.357,0.23-2.261,0.404-2.722,0.529
	C480.99,141.43,480.498,141.797,479.976,142.395L479.976,142.395z"/>
<path fill="#EF3A42" d="M495.993,149.534l4.261-19.924h5.047l-0.673,3.059c0.454-0.679,1.047-1.289,1.77-1.838
	c0.723-0.548,1.532-0.978,2.417-1.283c0.891-0.312,1.788-0.467,2.691-0.467c1.246,0,2.287,0.224,3.141,0.666
	c0.847,0.442,1.47,1.047,1.869,1.807c0.398,0.761,0.598,1.62,0.598,2.573c0,0.58-0.025,1.016-0.075,1.314l-2.983,14.093h-5.277
	l2.729-12.635c0.025-0.255,0.037-0.592,0.037-1.016c0-1.539-0.847-2.349-2.535-2.43c-1.184,0-2.274,0.374-3.29,1.122
	c-1.009,0.741-1.67,1.813-1.987,3.215l-2.461,11.743H495.993L495.993,149.534z"/>
<path fill="#EF3A42" d="M525.1,150.307l-2.915-20.696h5.763l1.265,14.803l7.215-14.803h5.538l-12.978,23.133
	c-0.76,1.34-1.482,2.349-2.168,3.034c-0.679,0.686-1.358,1.14-2.031,1.37c-0.679,0.23-1.47,0.343-2.386,0.343
	c-0.28,0-0.785-0.012-1.521-0.037c-0.735-0.019-1.327-0.031-1.763-0.031l0.928-4.162c0.149,0,0.374,0.013,0.68,0.038
	c0.305,0.024,0.529,0.037,0.673,0.037c0.922,0,1.663-0.218,2.224-0.654C524.184,152.238,524.676,151.447,525.1,150.307
	L525.1,150.307z"/>
<polygon fill="#EF3A42" points="551.604,149.534 557.323,122.657 562.924,122.657 558.258,144.632 571.603,144.632 570.587,149.534 
	551.604,149.534 "/>
<polygon fill="#EF3A42" points="575.59,149.534 581.309,122.657 586.91,122.657 582.243,144.632 595.589,144.632 594.573,149.534 
	575.59,149.534 "/>
<path fill="#EF3A42" d="M601.264,135.747c0.448-1.925,1.128-3.72,2.031-5.39c0.903-1.663,2.006-3.127,3.314-4.379
	c1.309-1.259,2.828-2.243,4.561-2.96c1.731-0.717,3.613-1.071,5.645-1.071c1.521,0,2.872,0.212,4.056,0.642
	c1.184,0.424,2.175,1.021,2.979,1.794c0.797,0.773,1.396,1.657,1.794,2.66c0.393,1.004,0.592,2.068,0.592,3.203
	c0,0.243-0.024,0.642-0.074,1.202h-5.614c0-0.953-0.199-1.782-0.604-2.479c-0.404-0.704-0.959-1.228-1.669-1.583
	c-0.704-0.354-1.502-0.535-2.399-0.535c-1.525,0-2.871,0.386-4.03,1.165c-1.165,0.772-2.131,1.794-2.897,3.064
	c-0.766,1.271-1.346,2.643-1.731,4.101c-0.393,1.457-0.617,2.903-0.686,4.329c0,1.327,0.225,2.431,0.667,3.314
	c0.441,0.879,1.04,1.533,1.8,1.957c0.754,0.424,1.602,0.647,2.542,0.679c0.779-0.031,1.539-0.168,2.28-0.417
	c0.748-0.25,1.445-0.604,2.1-1.065c0.654-0.462,1.222-1.004,1.701-1.633s0.822-1.302,1.021-2.013h5.688
	c-0.474,1.146-1.084,2.274-1.825,3.39c-0.735,1.109-1.657,2.168-2.761,3.159c-1.108,0.996-2.411,1.807-3.925,2.43
	c-1.508,0.623-3.158,0.935-4.953,0.935c-0.081,0-0.205-0.007-0.386-0.019c-0.175-0.013-0.312-0.02-0.399-0.02
	c-2.111-0.074-3.868-0.535-5.264-1.389c-1.402-0.848-2.437-2-3.109-3.445c-0.667-1.452-1.016-3.128-1.047-5.041
	C600.729,138.968,600.928,137.436,601.264,135.747L601.264,135.747z"/>
<path d="M656.554,24.059c-1.567,0-3.058-0.29-4.478-0.865c-1.42-0.574-2.676-1.389-3.775-2.442
	c-1.094-1.048-1.948-2.284-2.569-3.709c-0.615-1.424-0.926-2.941-0.926-4.554c0-1.607,0.311-3.124,0.932-4.543
	c0.62-1.425,1.475-2.651,2.559-3.689c1.084-1.032,2.346-1.841,3.775-2.417c1.435-0.575,2.926-0.865,4.482-0.865
	s3.048,0.285,4.472,0.86c1.425,0.575,2.672,1.379,3.75,2.412s1.924,2.259,2.539,3.684c0.615,1.419,0.926,2.94,0.926,4.558
	c0,2.167-0.529,4.131-1.588,5.897c-1.058,1.765-2.482,3.149-4.283,4.161C660.572,23.555,658.635,24.059,656.554,24.059
	L656.554,24.059z M647.151,12.489c0,1.806,0.417,3.445,1.246,4.915c0.83,1.476,1.964,2.63,3.409,3.47
	c1.445,0.84,3.022,1.262,4.742,1.262c1.725,0,3.307-0.422,4.741-1.262c1.436-0.839,2.569-1.994,3.394-3.47
	c0.829-1.476,1.241-3.114,1.241-4.915c0-1.358-0.238-2.63-0.712-3.805c-0.473-1.176-1.14-2.198-1.999-3.068
	c-0.86-0.875-1.857-1.547-2.997-2.03c-1.14-0.478-2.36-0.717-3.668-0.717s-2.529,0.239-3.669,0.717
	c-1.14,0.483-2.142,1.16-3.007,2.041c-0.865,0.88-1.536,1.908-2.01,3.078C647.391,9.879,647.151,11.141,647.151,12.489
	L647.151,12.489z M654.111,13.375v5.764h-2.01V5.865h5.134c1.557,0,2.717,0.3,3.485,0.901c0.763,0.595,1.145,1.551,1.145,2.859
	c0,1.125-0.311,1.984-0.931,2.585c-0.616,0.595-1.44,0.966-2.463,1.104l3.76,5.825h-2.294l-3.511-5.764H654.111L654.111,13.375z
	 M654.111,11.695h2.438c1.043,0,1.842-0.137,2.401-0.417s0.839-0.87,0.839-1.781c0-1.302-0.977-1.954-2.936-1.954h-2.742V11.695
	L654.111,11.695z"/>
</svg>
