<?xml version="1.0" encoding="utf-8"?>
<!-- Generator: Adobe Illustrator 15.0.0, SVG Export Plug-In . SVG Version: 6.00 Build 0)  -->
<!DOCTYPE svg PUBLIC "-//W3C//DTD SVG 1.1//EN" "http://www.w3.org/Graphics/SVG/1.1/DTD/svg11.dtd">
<svg version="1.1" id="Layer_1" xmlns="http://www.w3.org/2000/svg" xmlns:xlink="http://www.w3.org/1999/xlink" x="0px" y="0px"
	 width="475.092px" height="546.082px" viewBox="0 0 475.092 546.082" enable-background="new 0 0 475.092 546.082"
	 xml:space="preserve">
<rect y="132.541" fill="#FFFFFF" width="475.091" height="136"/>
<path fill="#B5DDC6" d="M429.141,183.038v-45.141l45.951,0.006v-12.251H324.567L324.556,0H149.988l-0.039,125.652H0v12.258h45.596
	v59.813l29.283-37.483l29.27,37.6v-59.93h45.93v125.645h-43.61L74.88,217.472l-30.769,46.083H0v12.175h149.949l0.039,125.613
	h174.566V275.768l150.537-0.038v-12.175l-45.951,0.013v-45.122h-58.629v45.122H324.58V137.897h46.021v45.141H429.141z
	 M312.354,263.543h-46.032v-59.937l-29.327,37.599l-29.218-37.483v59.821h-45.595V137.865l44.16,0.026l30.653,46.089l31.646-46.115
	h43.713V263.543L312.354,263.543z"/>
<path fill="#0079C1" stroke="#0079C1" stroke-width="0.4997" stroke-miterlimit="2.6131" d="M252.303,241.415
	c0.462,1.438,0.193,2.268-0.801,2.491c0,0-0.692-0.271-2.078-0.813c-1.385-0.541-3.118-0.578-5.198-0.111
	c-7.146,1.601-14.517,7.346-22.108,17.236c-10.496,13.541-20.101,33.486-28.816,59.841c-2.271,6.832-5.216,10.654-8.833,11.467
	c-2.081,0.465-4.353-0.119-6.816-1.758c-1.866-1.283-3.292-2.709-4.277-4.271c-0.986-1.563-1.806-3.363-2.46-5.406
	c-1.527-4.766-1.681-11.297-0.462-19.596c1.64-8.801,3.224-17.627,4.749-26.48c0.077-0.666-0.2-0.928-0.834-0.786
	c-3.437,0.771-10.139,7.542-20.104,20.313c-11.76,15.039-21.188,30.852-28.282,47.438c-1.064,2.43-2.185,3.773-3.36,4.037
	c-0.633,0.143-1.216-0.012-1.748-0.459c-1.546-1.193-2.646-2.813-3.3-4.854c-1.479-4.615-0.46-11.572,3.056-20.871
	c3.542-8.01,7.083-16.02,10.625-24.027c3.734-8.619,5.153-14.328,4.256-17.127c-0.945-2.95-4.086-3.827-9.424-2.631
	c-5.065,1.135-10.36,3.598-15.884,7.389c-5.522,3.792-7.981,6.633-7.376,8.523c0.243,0.756-0.631,1.357-2.621,1.803
	c-2.081,0.468-3.388-0.133-3.921-1.797c-0.824-2.571,1.907-6,8.193-10.287c6.286-4.285,12.821-7.189,19.605-8.709
	c7.78-1.743,13.002-0.724,15.668,3.057c0.701,0.979,1.221,1.996,1.561,3.057c1.042,3.252,0.702,7.787-1.021,13.604
	c-1.754,5.419-3.553,10.849-5.397,16.288c-0.15,0.439-0.189,0.771-0.117,0.998c0,0,0.058,0.027,0.172,0.084
	c0.271-0.061,5.55-6.434,15.835-19.114c10.459-13.045,17.908-20.51,22.346-22.396c1.193-0.511,2.197-0.857,3.012-1.04
	c3.347-0.75,5.553,0.54,6.62,3.868c1.042,3.252,0.911,10.558-0.394,21.917c-1.305,11.359-1.448,18.627-0.43,21.803
	c0.242,0.758,0.544,1.096,0.906,1.016c0.633-0.143,1.578-1.732,2.834-4.771c8.952-21.381,18.516-38.279,28.694-50.693
	c9.358-11.339,18.668-18.289,27.931-20.851c2.847-0.8,5.222-0.805,7.121-0.015C250.955,239.325,251.916,240.205,252.303,241.415
	L252.303,241.415z M271.836,289.208c0.461,1.438-1.787,5.467-6.742,12.09c-4.78,6.26-8.17,10.061-10.163,11.398
	c-1.367,0.873-2.642,1.441-3.816,1.705c-3.348,0.75-5.59-0.652-6.729-4.207c-1.065-3.328-0.719-7.986,1.048-13.979
	c0.084-0.342,0.102-0.59,0.053-0.74c-0.121-0.378-0.361-0.525-0.724-0.445c0,0-0.157,0.116-0.471,0.35
	c-0.488,0.595-3.088,4.582-7.801,11.961c-3.834,5.887-7.056,10.053-9.664,12.502c-1.048,0.965-2.161,1.58-3.337,1.844
	c-1.9,0.426-3.82,0.105-5.761-0.959s-3.166-2.393-3.675-3.98c-0.243-0.756-0.259-1.563-0.049-2.42
	c1.763-7.205,4.958-14.408,9.584-21.604c4.625-7.198,9.527-12.554,14.705-16.063c1.435-0.97,2.92-1.627,4.457-1.972
	c3.799-0.851,7.125,0.755,9.979,4.817c0.889,1.261,0.698,2.031-0.566,2.315c-0.361,0.081-1.055-0.188-2.078-0.812
	s-2.078-0.813-3.164-0.568c-5.246,1.176-11.015,6.318-17.306,15.432c-6.291,9.11-8.758,15.785-7.4,20.02
	c0.194,0.605,0.563,0.848,1.105,0.727c0.814-0.184,2.254-1.438,4.32-3.766c1.066-1.211,4.652-5.906,10.757-14.084
	c5.021-6.719,8.263-10.525,9.72-11.42c0.561-0.369,1.112-0.614,1.655-0.734c2.353-0.527,3.916,0.42,4.691,2.84
	c0.314,0.982,0.311,1.877-0.016,2.678c-2.781,7.354-4.008,13.06-3.676,17.119c0.067,1.121,0.555,1.578,1.459,1.375
	c2.17-0.486,5.399-3.723,9.686-9.709c2.65-3.836,5.266-7.625,7.848-11.365c0.447-0.424,0.851-0.678,1.211-0.758
	C271.429,288.691,271.715,288.83,271.836,289.208L271.836,289.208z M317.36,277.427c0.146,0.453,0.086,0.871-0.18,1.256
	c-6.422,10.52-11.447,18.131-15.078,22.836c-1.992,2.555-3.623,3.975-4.891,4.257c-0.813,0.183-1.654,0.128-2.523-0.163
	c-3.223-0.98-5.174-2.529-5.854-4.646c-0.533-1.664-0.447-3.67,0.254-6.016c1.377-3.877,2.707-7.742,3.992-11.598
	c1.736-5.172,2.326-8.628,1.768-10.368c-0.436-1.362-1.559-1.839-3.367-1.434c-1.086,0.244-2.494,0.843-4.223,1.797
	c-2.25,1.151-3.729,1.829-4.441,2.028c-0.711,0.201-1.594,0.621-2.647,1.264c-2.147,3.886-5.666,9.699-10.553,17.443
	c-0.796,1.149-1.601,1.816-2.414,2c-0.543,0.121-0.875-0.008-0.996-0.385c-0.121-0.38,0.051-0.904,0.515-1.574
	c1.721-2.494,3.885-6.183,6.489-11.063c2.604-4.881,3.858-7.473,3.763-7.773c-1.865-1.285-3.064-2.76-3.599-4.423
	c-0.461-1.438-0.322-3.272,0.418-5.505c0.737-2.233,1.922-3.532,3.549-3.896c0.813-0.183,1.601-0.156,2.354,0.081
	c2.813,0.91,4.486,2.197,5.02,3.861c0.412,1.286,0.115,2.933-0.889,4.942c-0.242,0.459-0.326,0.802-0.252,1.029
	c0.119,0.378,0.688,0.333,1.701-0.138c2.428-1.192,4.502-1.982,6.221-2.367c3.166-0.709,5.771,0.004,7.813,2.141
	c0.719,0.731,1.248,1.625,1.588,2.685c0.728,2.269,0.646,5.651-0.237,10.147c-0.925,3.773-1.814,7.5-2.673,11.179
	c-0.313,1.448-0.37,2.476-0.178,3.079c0.146,0.454,0.445,0.63,0.896,0.529c0.635-0.144,1.385-0.676,2.252-1.6
	c3.824-4.101,8.445-10.404,13.863-18.914c0.438-0.748,0.93-1.183,1.473-1.304C316.836,276.693,317.19,276.897,317.36,277.427
	L317.36,277.427z M136.887,388.183c1.284,4.01,1.574,8.24,0.869,12.695c-1.208,7.729-2.261,15.787-3.16,24.178
	c-0.928,9.207-1.149,14.566-0.665,16.08c0.072,0.227,0.176,0.547,0.309,0.965c0.133,0.414,0.224,0.699,0.273,0.852
	c0.388,1.209,0.016,1.939-1.137,2.199c-0.611,0.137-1.155,0.178-1.656,0.129c-4.074-0.387-6.791-2.734-8.172-7.047
	c-1.26-3.934-1.386-9.621-0.377-17.063c0.567-4.586,1.87-10.959,3.909-19.117c1.649-7.262,2.504-11.627,2.564-13.1
	c0.062-1.475-0.042-2.625-0.308-3.457c-0.654-2.043-2.157-2.801-4.509-2.275c-5.132,1.232-11.759,7.176-19.881,17.832
	c-9.315,12.385-17.63,27.582-24.946,45.6c-0.216,0.535-0.541,1.943-0.971,4.229c-0.336,1.373-0.866,2.143-1.59,2.305
	c-0.543,0.119-1.203,0.025-1.982-0.287c-1.648-0.604-2.75-1.775-3.308-3.516c-1.381-4.311,0.373-13.662,5.263-28.055
	c6.71-19.906,10.284-30.84,10.721-32.803c0.269-1.277,0.307-2.219,0.114-2.822c-0.218-0.682-0.689-0.941-1.413-0.779
	c-2.713,0.609-7.689,5.352-14.922,14.248s-14.065,18.738-20.493,29.541c-7.457,12.434-12.4,23.025-14.825,31.799
	c-0.36,1.295-0.947,2.035-1.761,2.219c-1.9,0.426-3.274-0.686-4.116-3.314c-2.03-6.334-0.164-16.096,5.602-29.266
	c10.985-25.02,15.403-40.885,13.252-47.6c-0.721-2.25-2.306-3.109-4.749-2.563c-4.975,1.115-13.257,7.795-24.846,20.039
	c-2.024,2.154-3.896,3.426-5.614,3.811c-1.899,0.426-3.276-0.238-4.13-1.994c-1.112-2.264-0.629-4.234,1.449-5.918
	c0.537-0.443,0.94-0.695,1.212-0.758c0.091-0.02,0.147,0.008,0.172,0.084c0.048,0.15-0.067,0.623-0.347,1.416
	c-0.279,0.791-0.383,1.301-0.31,1.527c0,0,0.058,0.029,0.172,0.084c0.453-0.104,1.301-0.779,2.549-2.031
	c5.434-5.434,13.008-11.143,22.724-17.131c1.863-1.146,3.834-1.953,5.915-2.418c7.417-1.662,12.192,0.834,14.325,7.49
	c2.012,6.277,0.75,15.803-3.786,28.574c-0.193,0.611-0.448,1.479-0.766,2.605c0.223-0.213,0.942-1.145,2.158-2.795
	c14.793-20.096,25.627-30.914,32.502-32.455c3.98-0.893,6.479,0.25,7.498,3.428c0.873,2.725,0.556,7.334-0.949,13.832
	c-0.27,1.277-1.677,6.416-4.222,15.418c-0.084,0.344-0.102,0.59-0.053,0.742c0.121,0.377,0.363,0.525,0.725,0.445
	c0.337-0.156,0.626-0.465,0.867-0.924c12.561-20.406,23.274-31.605,32.139-33.592C130.358,378.093,134.584,380.996,136.887,388.183
	L136.887,388.183z M191.479,406.96c0.097,0.303,0.025,0.684-0.215,1.143c-3.357,5.859-7.823,11.441-13.396,16.744
	c-6.439,6.227-12.329,9.938-17.665,11.133c-3.167,0.709-5.984,0.389-8.453-0.965c-2.469-1.352-4.128-3.352-4.976-5.998
	c-1.818-5.674,0.466-13.521,6.852-23.547c6.013-9.373,10.964-14.496,14.854-15.367c2.262-0.508,4.649,0.135,7.161,1.924
	c2.512,1.787,4.132,3.814,4.859,6.086c0.146,0.453,0.249,1.078,0.31,1.875c-0.104,2.699-1.907,5.697-5.407,8.994
	c-3.097,3.045-6.761,5.527-10.993,7.449c-0.766,0.334-1.233,0.234-1.403-0.295c-0.194-0.604,0.089-1.234,0.848-1.893
	c5.356-4.768,8.937-8.568,10.743-11.404c1.433-2.186,1.931-3.959,1.495-5.322c-0.363-1.135-1.224-1.549-2.581-1.244
	c-0.995,0.223-2.186,0.895-3.572,2.016c-4.669,3.885-8.451,8.42-11.346,13.609c-3.49,6.051-4.975,11.855-4.454,17.414
	c0.055,0.475,0.13,0.861,0.228,1.164c0.582,1.816,2.048,2.459,4.4,1.934c3.799-0.852,9.305-4.396,16.517-10.633
	c6.296-5.463,11.004-10.287,14.123-14.473c0.356-0.404,0.759-0.656,1.212-0.76C191.071,406.445,191.357,406.582,191.479,406.96
	L191.479,406.96z M275.174,390.398c0.269,0.83-0.159,2.223-1.278,4.178c-6.582,11.525-12.181,17.809-16.793,18.842
	c-0.363,0.08-0.931,0.127-1.701,0.137c-4.156,0.041-6.805-1.717-7.943-5.271c-0.994-3.102-0.715-7.826,0.838-14.174
	c1.25-4.576,2.543-9.162,3.881-13.76c0.336-1.373,0.406-2.359,0.213-2.967c-0.266-0.832-0.94-1.125-2.026-0.883
	c-4.072,0.912-9.259,5.602-15.563,14.066c-7.189,9.637-11.202,19.049-12.04,28.234c0.055,0.475-0.188,0.771-0.731,0.895
	c-1.356,0.305-2.686,0.014-3.987-0.869c-1.302-0.885-2.134-1.895-2.498-3.029c-1.115-3.479-0.037-10.854,3.235-22.127
	c1.104-3.814,1.414-6.479,0.929-7.992c-0.267-0.832-0.806-1.154-1.621-0.973c-0.995,0.223-2.207,0.979-3.634,2.271
	c-3.326,2.936-7.224,8.471-11.694,16.605c-4.778,8.691-7.72,15.998-8.828,21.92c-0.102,0.592-0.243,0.906-0.424,0.947
	c-0.296-0.016-0.73-0.16-1.304-0.438c-1.811-0.811-3.031-2.199-3.662-4.166c-1.042-3.252-0.54-8.189,1.508-14.809
	c0.954-3.377,2.967-8.895,6.039-16.555c2.362-5.639,3.398-8.91,3.108-9.816c-0.049-0.152-0.216-0.297-0.503-0.436
	c-0.287-0.139-0.466-0.32-0.539-0.549c-0.17-0.527,0.063-0.863,0.695-1.006c0.181-0.041,0.476-0.025,0.887,0.043
	c2.166,0.406,3.552,1.557,4.158,3.447c0.727,2.27,0.242,6.35-1.458,12.244c-0.234,0.781-0.486,1.811-0.755,3.088
	c0.856-0.354,2.832-2.662,5.926-6.922c3.757-5.221,7.761-8.307,12.013-9.258c3.618-0.813,5.984,0.521,7.1,4.002
	c0.582,1.814,0.739,3.969,0.471,6.461c-0.077,0.666-0.056,1.188,0.065,1.566c0.097,0.303,0.281,0.424,0.553,0.361
	c0.452-0.1,0.911-0.486,1.374-1.158c8.398-11.609,15.628-18.094,21.69-19.453c4.342-0.973,7.19,0.66,8.549,4.896
	c0.992,3.102,0.854,6.902-0.42,11.402c-2.778,9.783-3.729,16.037-2.858,18.76c0.362,1.135,1.043,1.592,2.039,1.369
	c2.713-0.609,7.237-6,13.575-16.178c1.211-1.973,2.179-3.039,2.9-3.201C274.931,390.087,275.103,390.169,275.174,390.398
	L275.174,390.398z M308.36,375.056c1.648,5.145-0.553,11.436-6.604,18.871s-12.243,11.863-18.575,13.281
	c-1.99,0.447-3.785,0.443-5.386-0.008c-3.86-1.162-6.303-3.332-7.319-6.508c-1.502-4.689-0.043-11.18,4.379-19.467
	c3.701-6.908,8.364-13.225,13.998-18.945c0.801-0.828,1.52-1.313,2.151-1.455s1.353-0.02,2.154,0.369
	c2.547,1.295,3.918,2.244,4.11,2.85c0.146,0.453-0.188,1.379-1,2.777c2.666,0.455,5.187,1.432,7.558,2.928
	C306.194,371.246,307.707,373.015,308.36,375.056L308.36,375.056z M303.396,375.441c-0.56-1.74-1.547-3.16-2.965-4.262
	c-1.421-1.102-3.683-1.506-6.789-1.217c-4.615,4.359-8.705,9.896-12.273,16.613c-3.941,7.369-5.121,12.457-3.543,15.266
	c0.967,1.811,2.672,2.441,5.115,1.895c1.627-0.363,3.641-1.344,6.041-2.934c5.199-3.436,9.199-7.596,11.998-12.479
	C303.776,383.441,304.582,379.146,303.396,375.441L303.396,375.441z M362.658,365.687c0.146,0.455,0.086,0.873-0.179,1.258
	c-6.422,10.52-11.448,18.131-15.08,22.836c-1.991,2.553-3.623,3.973-4.889,4.256c-0.813,0.184-1.656,0.129-2.525-0.164
	c-3.223-0.979-5.174-2.529-5.852-4.646c-0.533-1.664-0.449-3.67,0.254-6.016c1.375-3.875,2.707-7.74,3.992-11.596
	c1.736-5.172,2.324-8.629,1.768-10.369c-0.438-1.361-1.559-1.838-3.368-1.434c-1.085,0.242-2.492,0.844-4.224,1.799
	c-2.248,1.15-3.729,1.826-4.438,2.025c-0.714,0.201-1.597,0.621-2.65,1.264c-2.147,3.887-5.665,9.701-10.553,17.443
	c-0.795,1.152-1.601,1.818-2.412,2c-0.543,0.121-0.875-0.006-0.998-0.385c-0.121-0.379,0.052-0.902,0.515-1.574
	c1.723-2.494,3.887-6.182,6.492-11.061c2.604-4.881,3.856-7.473,3.762-7.775c-1.867-1.285-3.066-2.758-3.601-4.422
	c-0.461-1.439-0.321-3.273,0.418-5.506c0.738-2.232,1.923-3.531,3.552-3.896c0.813-0.184,1.598-0.156,2.352,0.08
	c2.814,0.91,4.486,2.197,5.02,3.861c0.412,1.285,0.115,2.934-0.889,4.941c-0.24,0.459-0.324,0.803-0.252,1.029
	c0.121,0.379,0.689,0.332,1.701-0.139c2.43-1.191,4.504-1.982,6.223-2.367c3.166-0.709,5.77,0.004,7.811,2.141
	c0.722,0.73,1.25,1.627,1.588,2.686c0.729,2.27,0.648,5.65-0.237,10.146c-0.924,3.773-1.813,7.5-2.672,11.18
	c-0.312,1.447-0.369,2.475-0.177,3.08c0.146,0.453,0.443,0.629,0.896,0.527c0.633-0.143,1.383-0.676,2.25-1.6
	c3.826-4.1,8.445-10.404,13.863-18.914c0.439-0.748,0.93-1.182,1.473-1.303C362.133,364.955,362.488,365.158,362.658,365.687
	L362.658,365.687z M379.974,330.312c-0.056,4.066-1.847,6.494-5.373,7.285c-1.81,0.406-3.263-0.039-4.355-1.336
	c-0.881-0.938-0.818-1.803,0.188-2.594c0.156-0.117,1.439-0.648,3.853-1.594c2.141-0.885,3.731-1.973,4.772-3.258
	C379.42,328.734,379.726,329.234,379.974,330.312L379.974,330.312z M385.931,363.88c0.17,0.529-0.031,1.262-0.604,2.201
	c-8.854,13.82-15.589,21.248-20.201,22.281c-2.983,0.668-4.998-0.623-6.041-3.875c-1.721-5.371,1.054-16.531,8.322-33.482
	c0.391-0.898,0.538-1.5,0.44-1.803c-0.049-0.15-0.166-0.287-0.35-0.408c-0.184-0.119-0.289-0.219-0.313-0.295
	c-0.099-0.303-0.025-0.684,0.217-1.143c0.041-0.172,0.242-0.299,0.604-0.379c0.904-0.201,2.146-0.035,3.724,0.504
	c1.58,0.537,2.551,1.375,2.914,2.51c0.582,1.813-1.011,6.832-4.775,15.053c-4.07,8.777-6.078,14.617-6.02,17.523
	c0.014,0.645,0.08,1.156,0.2,1.535c0.244,0.758,0.728,1.055,1.449,0.893c2.985-0.67,9.129-7.52,18.433-20.547
	c0.396-0.576,0.819-0.914,1.272-1.016C385.565,363.353,385.81,363.501,385.931,363.88L385.931,363.88z M439.932,349.957
	c0.461,1.438-1.787,5.467-6.741,12.09c-4.781,6.26-8.171,10.061-10.164,11.398c-1.367,0.873-2.642,1.441-3.816,1.705
	c-3.348,0.75-5.59-0.652-6.729-4.207c-1.065-3.328-0.717-7.986,1.048-13.979c0.084-0.342,0.102-0.59,0.055-0.74
	c-0.121-0.379-0.363-0.525-0.725-0.445c0,0-0.158,0.115-0.472,0.35c-0.488,0.594-3.088,4.582-7.801,11.961
	c-3.834,5.887-7.057,10.053-9.664,12.502c-1.049,0.965-2.162,1.58-3.338,1.844c-1.897,0.426-3.817,0.105-5.76-0.959
	c-1.941-1.064-3.166-2.393-3.677-3.98c-0.242-0.756-0.258-1.563-0.049-2.42c1.764-7.205,4.959-14.408,9.584-21.605
	s9.527-12.553,14.705-16.063c1.435-0.971,2.92-1.627,4.457-1.973c3.799-0.85,7.125,0.756,9.979,4.818
	c0.889,1.26,0.701,2.031-0.566,2.316c-0.361,0.08-1.055-0.189-2.078-0.813c-1.022-0.623-2.078-0.813-3.164-0.568
	c-5.246,1.176-11.014,6.318-17.305,15.432c-6.291,9.111-8.758,15.783-7.401,20.02c0.194,0.605,0.563,0.848,1.104,0.727
	c0.813-0.184,2.256-1.438,4.319-3.766c1.066-1.213,4.652-5.906,10.759-14.084c5.021-6.719,8.262-10.525,9.719-11.42
	c0.561-0.369,1.113-0.613,1.656-0.736c2.352-0.525,3.916,0.422,4.69,2.842c0.314,0.982,0.31,1.875-0.016,2.678
	c-2.781,7.354-4.008,13.061-3.676,17.119c0.067,1.121,0.555,1.578,1.459,1.375c2.172-0.486,5.399-3.723,9.686-9.709
	c2.65-3.836,5.267-7.625,7.849-11.365c0.444-0.424,0.85-0.678,1.211-0.758C439.523,349.437,439.811,349.578,439.932,349.957
	L439.932,349.957z M458.656,301.74c0.944,2.948-1.437,12.156-7.146,27.623c-6.356,17.07-9.567,29.141-9.631,36.209
	c-0.004,0.893,0.078,1.604,0.248,2.133c0.314,0.984,0.924,1.373,1.828,1.172c1.899-0.426,4.91-3.289,9.029-8.59
	c3.678-4.555,7.221-9.686,10.627-15.395c0.438-0.748,0.84-1.16,1.203-1.24c0.27-0.063,0.454,0.059,0.551,0.361
	c0.194,0.604,0.008,1.537-0.558,2.799c-2.151,4.779-5.032,9.561-8.639,14.342c-4.756,6.336-9.08,9.938-12.969,10.811
	c-2.625,0.588-4.969-0.227-7.035-2.438c-0.744-0.809-1.32-1.854-1.732-3.139c-1.479-4.613-0.44-12.266,3.115-22.953
	c1.695-5,5.307-13.998,10.838-26.992c3.969-9.4,5.724-14.82,5.263-16.259c-0.121-0.378-0.513-0.614-1.175-0.71
	c-0.66-0.096-1.024-0.256-1.1-0.482c-0.217-0.682,0.307-1.162,1.574-1.447c0.903-0.203,1.885-0.018,2.94,0.558
	C457.201,298.862,458.123,300.074,458.656,301.74L458.656,301.74z M188.948,446.716c0.436,1.361,0.156,2.154-0.839,2.377
	c-0.452,0.102-0.935-0.195-1.448-0.893c-0.75-1.129-1.713-1.563-2.889-1.299c-1.99,0.445-4.004,2.781-6.044,7.01
	c-2.039,4.227-3.65,7.973-4.834,11.236c-2.482,6.475-4.256,12.588-5.322,18.34c-0.162,1.01-0.242,1.514-0.242,1.514
	c0.139,0.131,0.389,0.156,0.751,0.074c0.814-0.184,1.673-0.375,2.578-0.578c0.995-0.223,1.583-0.354,1.764-0.396
	c0.724-0.16,1.628-0.363,2.714-0.605c1.176-0.264,1.944-0.438,2.307-0.518c4.704-1.055,7.141-1.316,7.311-0.787
	c0.097,0.303-0.943,1.145-3.124,2.504c-2.176,1.381-3.352,2.252-3.525,2.613c-1.143,2.184-5.014,4.021-11.617,5.502
	c-0.362,0.08-0.66,0.514-0.894,1.295c-1.454,4.846-2.723,11.17-3.804,18.992c-1.267,8.756-1.505,14.361-0.711,16.84
	c0.412,1.285,1.1,1.617,2.064,0.996c0.561-0.367,1.112-0.613,1.655-0.734c0.814-0.184,1.293-0.047,1.439,0.406
	c0.218,0.682-0.616,1.557-2.502,2.629c-1.887,1.07-3.463,1.748-4.73,2.031c-4.342,0.975-7.241-0.811-8.695-5.348
	c-2.036-6.355-0.788-17.133,3.746-32.336c0.084-0.344,0.077-0.666-0.02-0.969c-0.121-0.379-1.539-0.264-4.252,0.344
	c-5.156,1.156-12.591,3.066-22.306,5.729c-9.714,2.664-15.835,4.439-18.362,5.33c-0.247,0.137-0.65,0.996-1.208,2.582
	c-4.294,13.527-6.704,24.16-7.229,31.9c-0.143,1.977-0.576,3.047-1.299,3.209c-4.794,1.074-7.762-0.166-8.901-3.723
	c-0.533-1.664-0.647-3.383-0.342-5.152c1.519-9.176,3.373-16.402,5.561-21.676c0.716-1.701,1.061-2.588,1.037-2.664
	c-0.073-0.227-0.482-0.297-1.23-0.211c-1.653,0.289-3.362,0.551-5.129,0.785c-2.697,0.359-4.527,0.242-5.493-0.352
	c-0.966-0.594-1.498-1.043-1.595-1.346c-0.048-0.15,0.289-0.309,1.013-0.469l1.085-0.244c0.905-0.203,1.797-0.443,2.677-0.723
	c5.644-1.75,9.307-3.18,10.988-4.285c0.561-0.369,1.127-1.021,1.698-1.963c2.396-4.021,4.847-9.455,7.356-16.301
	c2.508-6.846,3.481-10.689,2.919-11.537c-0.375-0.564-0.598-0.961-0.671-1.188c-0.314-0.982-0.111-1.557,0.613-1.719
	c1.176-0.264,2.2,0.967,3.073,3.689c0.945,2.949,0.969,6.957,0.071,12.023c-0.82,4.398-2.045,8.441-3.674,12.131
	c-0.283,0.633-0.071,0.99,0.635,1.076c10.751-3.059,25.453-7.406,44.103-13.045c0.609-0.219,1.01-0.633,1.202-1.242
	c9.082-27.328,17.739-41.916,25.971-43.76c1.357-0.305,2.706-0.182,4.045,0.369C187.732,444.738,188.583,445.582,188.948,446.716
	L188.948,446.716z M217.428,493.841c1.648,5.145-0.554,11.436-6.606,18.871c-6.052,7.436-12.244,11.863-18.576,13.281
	c-1.99,0.447-3.785,0.441-5.384-0.01c-3.863-1.16-6.303-3.33-7.32-6.508c-1.503-4.689-0.043-11.178,4.378-19.465
	c3.7-6.91,8.367-13.225,13.999-18.945c0.801-0.828,1.519-1.314,2.151-1.455c0.632-0.141,1.352-0.02,2.154,0.367
	c2.547,1.295,3.918,2.244,4.112,2.85c0.146,0.455-0.187,1.381-1,2.779c2.667,0.455,5.186,1.432,7.556,2.928
	S216.773,491.798,217.428,493.841L217.428,493.841z M212.461,494.226c-0.558-1.74-1.546-3.16-2.965-4.262s-3.682-1.506-6.789-1.215
	c-4.614,4.357-8.706,9.895-12.273,16.613c-3.941,7.367-5.122,12.457-3.543,15.266c0.968,1.811,2.673,2.439,5.116,1.895
	c1.628-0.365,3.641-1.344,6.04-2.936c5.202-3.436,9.202-7.594,12-12.479C212.843,502.226,213.648,497.931,212.461,494.226
	L212.461,494.226z M256.955,488.755c0.071,0.229-0.033,0.656-0.313,1.287c-4.4,7.146-8.537,12.695-12.41,16.643
	c-0.283,0.633-0.642,1.482-1.072,2.553c-1.246,2.467-3.357,4.805-6.334,7.012c-2.977,2.209-5.867,3.625-8.672,4.254
	c-1.81,0.406-3.234,0.422-4.275,0.047c-1.042-0.375-1.646-0.828-1.817-1.355c-0.314-0.984,0.67-2.299,2.954-3.945
	c9.021-6.643,12.975-11.703,11.859-15.184c-0.582-1.814-2.385-3.355-5.409-4.625c-4.926-2.059-7.836-4.486-8.733-7.285
	c-1.503-4.689,2.251-9.463,11.263-14.32c0.495-0.271,1.058-0.479,1.691-0.621c1.538-0.344,3.072,0.203,4.599,1.646
	c0.946,0.84,1.459,1.375,1.53,1.602c0.314,0.984-1.311,2.564-4.878,4.742c-5.183,3.188-7.375,6.029-6.576,8.525
	c0.364,1.135,1.292,2.063,2.783,2.781c3.669,1.771,5.875,2.9,6.61,3.383c2.047,1.244,3.313,2.623,3.797,4.137
	c0.269,0.832,0.328,1.629,0.187,2.391c0.049,0.15,0.162,0.207,0.344,0.166s0.338-0.156,0.471-0.348
	c2.74-2.643,6.139-7.012,10.195-13.107c0.332-0.48,0.68-0.762,1.041-0.842C256.42,488.146,256.81,488.302,256.955,488.755
	L256.955,488.755z"/>
<path fill="#0079C1" stroke="#0079C1" stroke-width="0.4997" stroke-miterlimit="2.6131" d="M303.696,470.257
	c1.382,4.313-0.481,9.391-5.588,15.236c-3.885,4.518-9.166,9.064-15.844,13.643c-5.672,3.785-9.547,5.91-11.627,6.375
	c-1.447,0.324-2.229,0.459-2.344,0.404c-0.229-0.111-0.387-0.604-0.473-1.477c0.035-0.494,2.875-3.277,8.521-8.354
	c7.072-6.369,12.188-11.285,15.345-14.748c5.313-5.811,7.58-9.928,6.805-12.348c-0.291-0.908-0.877-1.527-1.758-1.855
	c-0.881-0.33-1.955-0.354-3.222-0.068c-3.075,0.688-6.909,2.945-11.502,6.771c-4.59,3.826-8.344,7.848-11.258,12.068
	c-1.258,1.822-2.354,3.689-3.295,5.602c-4.781,9.584-8.179,18.047-10.188,25.389c-1.801,6.484-2.313,10.938-1.537,13.357
	c0.314,0.982,0.826,1.518,1.531,1.604c1.115,0.154,1.734,0.422,1.855,0.799c0.195,0.605-0.342,1.051-1.607,1.334
	c-3.102,0.613-5.197-1.391-6.289-6.01c-1.293-5.547,0.115-14.617,4.223-27.213c3.479-10.021,6.945-20.082,10.398-30.178
	c0.637-2.252,0.607-3.703-0.086-4.359c-0.279-0.262-0.441-0.469-0.49-0.619c-0.072-0.227,0.072-0.381,0.435-0.461
	c1.719-0.387,3.432,0.121,5.141,1.521c0.787,0.635,1.361,1.521,1.726,2.654c0.873,2.723,0.401,5.949-1.406,9.68
	c-0.086,0.342-0.115,0.551-0.09,0.627c0.049,0.152,0.162,0.207,0.344,0.166c0.361-0.08,0.707-0.361,1.039-0.84
	c7.166-8.498,13.961-13.465,20.383-14.904c3.076-0.688,5.412-0.359,7.006,0.984C301.832,466.703,303.115,468.441,303.696,470.257
	L303.696,470.257z M331.51,439.582c-0.055,4.066-1.846,6.494-5.372,7.285c-1.81,0.404-3.261-0.041-4.354-1.336
	c-0.884-0.938-0.82-1.803,0.187-2.596c0.155-0.115,1.438-0.646,3.852-1.594c2.141-0.885,3.732-1.971,4.773-3.258
	C330.957,438.003,331.263,438.503,331.51,439.582L331.51,439.582z M337.467,473.148c0.171,0.529-0.03,1.264-0.604,2.201
	c-8.854,13.82-15.589,21.248-20.201,22.281c-2.983,0.668-4.998-0.623-6.041-3.875c-1.722-5.371,1.055-16.531,8.321-33.482
	c0.392-0.898,0.539-1.498,0.441-1.801c-0.049-0.152-0.164-0.289-0.35-0.408c-0.184-0.121-0.287-0.221-0.313-0.295
	c-0.097-0.303-0.025-0.684,0.217-1.145c0.041-0.17,0.242-0.297,0.604-0.377c0.904-0.203,2.146-0.035,3.726,0.502
	c1.576,0.539,2.549,1.375,2.912,2.51c0.582,1.814-1.011,6.834-4.773,15.055c-4.072,8.775-6.08,14.617-6.021,17.521
	c0.014,0.646,0.08,1.158,0.203,1.537c0.242,0.756,0.725,1.053,1.447,0.891c2.986-0.668,9.129-7.518,18.432-20.547
	c0.396-0.574,0.822-0.914,1.273-1.016C337.104,472.621,337.347,472.769,337.467,473.148L337.467,473.148z M371.506,445.943
	c0.269,0.832-0.944,1.59-3.635,2.271c-2.688,0.686-6.588,1.68-11.695,2.986c-0.993,0.223-1.534,0.506-1.618,0.85
	c-1.939,5.137-3.836,10.266-5.688,15.381c-2.295,6.756-3.59,12.396-3.886,16.922c-0.063,1.313-0.022,2.195,0.121,2.648
	c0.34,1.059,1.099,1.457,2.273,1.193c3.348-0.75,9.732-6.844,19.158-18.277c0.775-0.904,1.48-1.426,2.113-1.568
	c0.363-0.08,0.592,0.029,0.688,0.332c0.17,0.529-0.075,1.273-0.737,2.232c-9.041,13.539-16.729,21.018-23.062,22.436
	c-1.356,0.305-2.527,0.283-3.513-0.064c-2.86-1.063-4.69-2.84-5.489-5.336c-0.972-3.025-0.552-7.619,1.256-13.779
	c0.896-2.957,3.236-9.563,7.029-19.816c0.19-0.609,0.151-0.885-0.119-0.824c-0.726,0.162-1.629,0.365-2.715,0.607
	c-1.062,0.32-1.771,0.52-2.134,0.602c-3.799,0.852-5.832,0.859-6.1,0.027c-0.242-0.756,0.395-1.344,1.906-1.766
	c1.152-0.338,2.859-0.762,5.121-1.268c1.266-0.283,2.533-0.568,3.799-0.854c1.266-0.283,1.945-0.434,2.035-0.455
	c1.709-3.441,3.518-7.477,5.43-12.1c2.002-4.949,2.912-7.707,2.748-8.217c-0.434-0.146-0.699-0.369-0.797-0.674
	c-0.145-0.453,0.111-0.713,0.768-0.779c2.293-0.107,3.717,0.707,4.275,2.447c0.922,2.873-0.234,8.646-3.469,17.314l11.533-2.584
	C369.822,445.226,371.289,445.263,371.506,445.943L371.506,445.943z M424.713,451.777c0.461,1.438-1.787,5.467-6.742,12.09
	c-4.78,6.26-8.17,10.059-10.164,11.396c-1.366,0.875-2.641,1.443-3.815,1.707c-3.349,0.75-5.59-0.652-6.729-4.207
	c-1.065-3.33-0.719-7.986,1.047-13.977c0.084-0.344,0.103-0.592,0.054-0.742c-0.121-0.379-0.361-0.527-0.724-0.445
	c0,0-0.157,0.115-0.471,0.35c-0.488,0.596-3.088,4.582-7.801,11.963c-3.836,5.885-7.058,10.053-9.664,12.502
	c-1.05,0.963-2.162,1.578-3.338,1.842c-1.898,0.426-3.82,0.105-5.761-0.959s-3.166-2.393-3.676-3.98
	c-0.242-0.756-0.258-1.563-0.049-2.422c1.764-7.203,4.957-14.404,9.584-21.604c4.625-7.197,9.527-12.551,14.703-16.063
	c1.436-0.971,2.922-1.627,4.459-1.973c3.799-0.85,7.125,0.756,9.979,4.818c0.889,1.26,0.698,2.031-0.566,2.314
	c-0.361,0.082-1.055-0.188-2.078-0.811s-2.078-0.813-3.164-0.568c-5.246,1.176-11.014,6.318-17.307,15.432
	c-6.289,9.109-8.759,15.783-7.4,20.02c0.195,0.605,0.563,0.848,1.104,0.727c0.814-0.184,2.257-1.438,4.32-3.766
	c1.066-1.211,4.652-5.906,10.756-14.084c5.023-6.719,8.265-10.525,9.722-11.42c0.561-0.369,1.113-0.615,1.656-0.736
	c2.352-0.525,3.916,0.42,4.688,2.842c0.316,0.982,0.313,1.875-0.014,2.678c-2.781,7.354-4.008,13.061-3.676,17.119
	c0.067,1.121,0.555,1.578,1.459,1.375c2.17-0.484,5.397-3.723,9.686-9.709c2.65-3.836,5.266-7.625,7.848-11.365
	c0.445-0.424,0.851-0.676,1.212-0.758C424.305,451.259,424.592,451.398,424.713,451.777L424.713,451.777z M443.438,403.56
	c0.945,2.949-1.436,12.156-7.145,27.623c-6.359,17.072-9.568,29.143-9.631,36.209c-0.006,0.893,0.078,1.604,0.246,2.135
	c0.315,0.982,0.926,1.373,1.83,1.17c1.899-0.426,4.908-3.289,9.028-8.59c3.679-4.555,7.222-9.686,10.627-15.395
	c0.439-0.746,0.841-1.16,1.201-1.24c0.271-0.063,0.457,0.061,0.554,0.361c0.192,0.605,0.01,1.539-0.558,2.801
	c-2.151,4.779-5.033,9.561-8.639,14.34c-4.758,6.336-9.08,9.939-12.972,10.811c-2.622,0.588-4.967-0.225-7.032-2.438
	c-0.744-0.807-1.32-1.852-1.732-3.139c-1.479-4.613-0.44-12.266,3.115-22.951c1.692-5.002,5.307-14,10.838-26.994
	c3.969-9.4,5.723-14.82,5.262-16.258c-0.121-0.377-0.512-0.615-1.172-0.711c-0.662-0.094-1.026-0.256-1.102-0.482
	c-0.218-0.68,0.307-1.162,1.571-1.445c0.906-0.203,1.888-0.018,2.941,0.557C441.982,400.683,442.904,401.896,443.438,403.56
	L443.438,403.56z"/>
</svg>
